<?xml version="1.0" encoding="UTF-8"?>
<svg width="500px" height="500px" viewBox="0 0 500 500" xmlns="http://www.w3.org/2000/svg" xmlns:xlink="http://www.w3.org/1999/xlink" version="1.1">
 <!-- Generated by Pixelmator Pro 2.0.7 -->
 <path id="Ellipse" d="M500 250 C500 111.929 388.071 0 250 0 111.929 0 0 111.929 0 250 0 388.071 111.929 500 250 500 388.071 500 500 388.071 500 250 Z" fill="#ffffff" fill-opacity="1" stroke="none"/>
 <path id="􀆄" d="M130.096 149.441 L351.863 371.208 C353.649 372.994 355.751 374.202 358.167 374.833 360.584 375.463 363.027 375.489 365.496 374.912 367.966 374.334 370.094 373.099 371.88 371.208 373.666 369.421 374.848 367.32 375.426 364.903 376.004 362.486 376.004 360.069 375.426 357.653 374.848 355.236 373.666 353.134 371.88 351.348 L150.114 129.582 C148.327 127.69 146.2 126.456 143.73 125.878 141.261 125.3 138.818 125.3 136.401 125.878 133.984 126.456 131.883 127.69 130.096 129.582 128.31 131.368 127.128 133.47 126.55 135.886 125.972 138.303 125.972 140.72 126.55 143.137 127.128 145.554 128.31 147.655 130.096 149.441 Z M130.096 351.348 C128.31 353.134 127.102 355.236 126.471 357.653 125.841 360.069 125.815 362.486 126.393 364.903 126.97 367.32 128.205 369.421 130.096 371.208 131.988 372.994 134.142 374.202 136.559 374.833 138.976 375.463 141.392 375.463 143.809 374.833 146.226 374.202 148.327 372.994 150.114 371.208 L371.88 149.441 C373.666 147.655 374.875 145.554 375.505 143.137 376.136 140.72 376.136 138.303 375.505 135.886 374.875 133.47 373.666 131.368 371.88 129.582 369.988 127.69 367.834 126.456 365.418 125.878 363.001 125.3 360.584 125.3 358.167 125.878 355.751 126.456 353.649 127.69 351.863 129.582 Z" fill="#000000" fill-opacity="1" stroke="none"/>
</svg>
