<?xml version="1.0" encoding="UTF-8"?>
<svg width="500px" height="500px" viewBox="0 0 500 500" xmlns="http://www.w3.org/2000/svg" xmlns:xlink="http://www.w3.org/1999/xlink" version="1.1">
 <!-- Generated by Pixelmator Pro 2.0.7 -->
 <path id="Ellipse" d="M500 250 C500 111.929 388.071 0 250 0 111.929 0 0 111.929 0 250 0 388.071 111.929 500 250 500 388.071 500 500 388.071 500 250 Z" fill="#000000" fill-opacity="1" stroke="none"/>
 <path id="􀛹" d="M158.973 329.133 C164.919 329.133 170.043 328.036 174.344 325.842 178.645 323.649 182.614 320.3 186.251 315.797 L201.924 296.833 C203.079 295.447 204.291 294.437 205.561 293.802 206.831 293.167 208.101 292.85 209.372 292.85 L292.589 292.85 C293.859 292.85 295.129 293.167 296.4 293.802 297.67 294.437 298.882 295.447 300.037 296.833 L315.71 315.797 C319.347 320.3 323.316 323.649 327.617 325.842 331.918 328.036 337.042 329.133 342.988 329.133 349.569 329.133 355.342 327.762 360.307 325.02 365.272 322.277 369.125 318.395 371.867 313.373 374.609 308.35 375.98 302.462 375.98 295.707 375.98 291.378 375.504 286.73 374.552 281.765 373.599 276.801 372.286 271.518 370.612 265.919 368.88 259.972 366.744 253.507 364.204 246.521 361.663 239.536 358.936 232.478 356.02 225.349 353.105 218.219 350.175 211.537 347.231 205.302 344.748 200.106 342.41 195.777 340.217 192.313 338.023 188.849 335.237 186.02 331.86 183.826 328.483 181.633 323.735 179.843 317.615 178.457 309.475 176.61 299.806 175.109 288.606 173.955 277.406 172.8 264.879 172.223 251.024 172.223 237.168 172.223 224.627 172.8 213.398 173.955 202.17 175.109 192.486 176.61 184.346 178.457 178.226 179.843 173.478 181.633 170.101 183.826 166.723 186.02 163.938 188.849 161.744 192.313 159.55 195.777 157.212 200.106 154.73 205.302 151.786 211.537 148.856 218.219 145.941 225.349 143.025 232.478 140.298 239.536 137.757 246.521 135.217 253.507 133.081 259.972 131.349 265.919 129.675 271.518 128.362 276.801 127.409 281.765 126.457 286.73 125.98 291.378 125.98 295.707 125.98 302.462 127.352 308.35 130.094 313.373 132.836 318.395 136.689 322.277 141.654 325.02 146.619 327.762 152.392 329.133 158.973 329.133 Z M180.882 233.272 C180.882 231.136 181.517 229.433 182.787 228.163 184.057 226.893 185.818 226.258 188.069 226.258 L203.656 226.258 203.656 211.104 C203.656 208.91 204.262 207.178 205.475 205.908 206.687 204.638 208.361 204.003 210.497 204.003 212.633 204.003 214.307 204.638 215.52 205.908 216.732 207.178 217.338 208.91 217.338 211.104 L217.338 226.258 231.973 226.258 C234.398 226.258 236.288 226.893 237.645 228.163 239.001 229.433 239.68 231.136 239.68 233.272 239.68 235.524 239.001 237.299 237.645 238.598 236.288 239.897 234.398 240.546 231.973 240.546 L217.338 240.546 217.338 255.7 C217.338 257.894 216.732 259.64 215.52 260.939 214.307 262.238 212.633 262.888 210.497 262.888 208.361 262.888 206.687 262.238 205.475 260.939 204.262 259.64 203.656 257.894 203.656 255.7 L203.656 240.546 188.069 240.546 C185.818 240.546 184.057 239.897 182.787 238.598 181.517 237.299 180.882 235.524 180.882 233.272 Z M266.005 245.395 C266.005 241.874 267.217 238.901 269.642 236.476 272.066 234.052 275.011 232.839 278.474 232.839 281.996 232.839 284.955 234.052 287.35 236.476 289.746 238.901 290.944 241.874 290.944 245.395 290.944 248.917 289.746 251.876 287.35 254.271 284.955 256.667 281.996 257.865 278.474 257.865 275.011 257.865 272.066 256.667 269.642 254.271 267.217 251.876 266.005 248.917 266.005 245.395 Z M291.55 219.763 C291.55 216.242 292.748 213.269 295.144 210.844 297.54 208.419 300.47 207.207 303.933 207.207 307.455 207.207 310.414 208.419 312.809 210.844 315.205 213.269 316.403 216.242 316.403 219.763 316.403 223.285 315.205 226.229 312.809 228.596 310.414 230.963 307.455 232.146 303.933 232.146 300.47 232.146 297.54 230.963 295.144 228.596 292.748 226.229 291.55 223.285 291.55 219.763 Z" fill="#ffffff" fill-opacity="1" stroke="none"/>
</svg>
