<?xml version="1.0" encoding="UTF-8"?>
<svg width="500px" height="500px" viewBox="0 0 500 500" xmlns="http://www.w3.org/2000/svg" xmlns:xlink="http://www.w3.org/1999/xlink" version="1.1">
 <!-- Generated by Pixelmator Pro 2.0.7 -->
 <path id="Ellipse" d="M500 250 C500 111.929 388.071 0 250 0 111.929 0 0 111.929 0 250 0 388.071 111.929 500 250 500 388.071 500 500 388.071 500 250 Z" fill="#000000" fill-opacity="1" stroke="none"/>
 <path id="ô€¯" d="M272.31 320.094 C274.189 317.807 274.638 315.417 273.658 312.925 272.677 310.433 270.635 309.187 267.53 309.187 L233.584 309.187 C230.398 309.187 228.315 310.413 227.334 312.864 226.354 315.315 226.844 317.725 228.805 320.094 L245.839 341.295 C247.146 342.929 248.76 343.746 250.68 343.746 252.6 343.746 254.173 342.929 255.398 341.295 Z M319.614 272.79 L340.815 256.001 C342.449 254.694 343.266 253.08 343.266 251.16 343.266 249.24 342.449 247.627 340.815 246.32 L319.614 229.285 C317.245 227.325 314.834 226.834 312.383 227.815 309.932 228.795 308.707 230.919 308.707 234.187 L308.707 268.011 C308.707 271.115 309.953 273.158 312.445 274.138 314.936 275.119 317.326 274.669 319.614 272.79 Z M272.31 182.104 L255.398 160.78 C254.173 159.228 252.6 158.452 250.68 158.452 248.76 158.452 247.146 159.228 245.839 160.78 L228.805 182.104 C226.844 184.473 226.354 186.863 227.334 189.273 228.315 191.683 230.398 192.888 233.584 192.888 L267.53 192.888 C270.635 192.888 272.677 191.642 273.658 189.151 274.638 186.659 274.189 184.31 272.31 182.104 Z M181.501 272.79 C183.789 274.669 186.178 275.119 188.67 274.138 191.162 273.158 192.408 271.115 192.408 268.011 L192.408 234.187 C192.408 230.919 191.203 228.795 188.793 227.815 186.383 226.834 183.952 227.325 181.501 229.285 L160.3 246.32 C158.748 247.627 157.972 249.24 157.972 251.16 157.972 253.08 158.748 254.694 160.3 256.001 Z M250.374 297.055 C258.789 297.055 266.509 294.972 273.535 290.805 280.561 286.638 286.158 281.062 290.325 274.077 294.491 267.092 296.575 259.392 296.575 250.977 296.575 242.643 294.491 234.984 290.325 227.999 286.158 221.013 280.561 215.417 273.535 211.209 266.509 207.002 258.789 204.898 250.374 204.898 242.04 204.898 234.381 207.002 227.396 211.209 220.41 215.417 214.834 221.013 210.668 227.999 206.501 234.984 204.418 242.643 204.418 250.977 204.418 259.392 206.501 267.092 210.668 274.077 214.834 281.062 220.41 286.638 227.396 290.805 234.381 294.972 242.04 297.055 250.374 297.055 Z M250.496 375.977 C267.571 375.977 283.646 372.709 298.719 366.173 313.793 359.637 327.089 350.609 338.609 339.089 350.128 327.57 359.156 314.273 365.692 299.2 372.228 284.126 375.496 268.052 375.496 250.977 375.496 233.901 372.228 217.827 365.692 202.754 359.156 187.68 350.128 174.383 338.609 162.864 327.089 151.344 313.772 142.317 298.658 135.78 283.543 129.244 267.449 125.977 250.374 125.977 233.298 125.977 217.224 129.244 202.151 135.78 187.077 142.317 173.801 151.344 162.322 162.864 150.843 174.383 141.836 187.68 135.3 202.754 128.764 217.827 125.496 233.901 125.496 250.977 125.496 268.052 128.764 284.126 135.3 299.2 141.836 314.273 150.864 327.57 162.383 339.089 173.903 350.609 187.199 359.637 202.273 366.173 217.347 372.709 233.421 375.977 250.496 375.977 Z M250.496 355.143 C236.035 355.143 222.514 352.447 209.932 347.055 197.351 341.663 186.301 334.208 176.783 324.69 167.265 315.172 159.83 304.122 154.479 291.54 149.128 278.959 146.452 265.437 146.452 250.977 146.452 236.516 149.128 222.995 154.479 210.413 159.83 197.831 167.244 186.761 176.722 177.202 186.199 167.643 197.228 160.188 209.81 154.837 222.392 149.485 235.913 146.81 250.374 146.81 264.834 146.81 278.355 149.485 290.937 154.837 303.519 160.188 314.589 167.643 324.148 177.202 333.707 186.761 341.182 197.831 346.575 210.413 351.967 222.995 354.663 236.516 354.663 250.977 354.663 265.437 351.987 278.959 346.636 291.54 341.284 304.122 333.85 315.172 324.332 324.69 314.814 334.208 303.744 341.663 291.121 347.055 278.498 352.447 264.957 355.143 250.496 355.143 Z" fill="#ffffff" fill-opacity="1" stroke="none"/>
</svg>
