<?xml version="1.0" encoding="UTF-8"?>
<svg width="500px" height="500px" viewBox="0 0 500 500" xmlns="http://www.w3.org/2000/svg" xmlns:xlink="http://www.w3.org/1999/xlink" version="1.1">
 <!-- Generated by Pixelmator Pro 2.0.7 -->
 <path id="Ellipse" d="M500 250 C500 111.929 388.071 0 250 0 111.929 0 0 111.929 0 250 0 388.071 111.929 500 250 500 388.071 500 500 388.071 500 250 Z" fill="#000000" fill-opacity="1" stroke="none"/>
 <path id="􀦒" d="M233.522 263.056 L270.865 263.056 C273.289 263.056 275.229 262.329 276.684 260.874 278.139 259.419 278.867 257.56 278.867 255.297 278.867 252.953 278.139 251.053 276.684 249.598 275.229 248.143 273.289 247.416 270.865 247.416 L242.494 247.416 242.494 192.736 C242.494 189.665 241.666 187.28 240.009 185.583 238.352 183.885 236.19 183.037 233.522 183.037 230.855 183.037 228.673 183.906 226.975 185.643 225.278 187.381 224.429 189.745 224.429 192.736 L224.429 253.357 C224.429 256.266 225.258 258.611 226.915 260.389 228.572 262.167 230.774 263.056 233.522 263.056 Z M250.496 306.945 C269.41 306.945 286.545 304.965 301.902 301.005 317.26 297.044 330.414 291.427 341.367 284.152 352.319 276.878 360.745 268.249 366.645 258.267 372.546 248.285 375.496 237.232 375.496 225.107 375.496 213.064 372.546 202.051 366.645 192.069 360.745 182.087 352.299 173.459 341.306 166.184 330.313 158.91 317.139 153.292 301.781 149.331 286.424 145.371 269.289 143.391 250.375 143.391 231.461 143.391 214.346 145.371 199.029 149.331 183.712 153.292 170.578 158.91 159.626 166.184 148.673 173.459 140.247 182.087 134.347 192.069 128.446 202.051 125.496 213.064 125.496 225.107 125.496 237.232 128.446 248.285 134.347 258.267 140.247 268.249 148.673 276.878 159.626 284.152 170.578 291.427 183.732 297.044 199.09 301.005 214.447 304.965 231.582 306.945 250.496 306.945 Z M250.496 286.092 C229.966 286.092 211.962 283.526 196.483 278.393 181.004 273.26 168.961 266.128 160.353 256.994 151.745 247.86 147.441 237.232 147.441 225.107 147.441 213.064 151.745 202.456 160.353 193.281 168.961 184.108 180.984 176.975 196.422 171.882 211.86 166.79 229.844 164.244 250.375 164.244 270.905 164.244 288.93 166.79 304.449 171.882 319.967 176.975 332.031 184.108 340.639 193.281 349.247 202.456 353.551 213.064 353.551 225.107 353.551 237.232 349.247 247.86 340.639 256.994 332.031 266.128 319.988 273.26 304.509 278.393 289.031 283.526 271.026 286.092 250.496 286.092 Z M250.496 358.352 C265.207 358.352 276.704 355.078 284.989 348.531 293.274 341.984 297.417 332.891 297.417 321.252 L297.417 316.402 C290.223 317.938 282.706 319.09 274.866 319.858 267.025 320.626 258.902 321.009 250.496 321.009 242.09 321.009 233.987 320.626 226.187 319.858 218.387 319.09 210.891 317.938 203.697 316.402 L203.697 321.252 C203.697 332.891 207.819 341.984 216.064 348.531 224.308 355.078 235.785 358.352 250.496 358.352 Z" fill="#ffffff" fill-opacity="1" stroke="none"/>
</svg>
