<?xml version="1.0" encoding="UTF-8"?>
<svg viewBox="0 0 500 500" xmlns="http://www.w3.org/2000/svg" xmlns:xlink="http://www.w3.org/1999/xlink" version="1.1">
 <!-- Generated by Pixelmator Pro 2.0.7 -->
 <path id="Ellipse" d="M500 250 C500 111.929 388.071 0 250 0 111.929 0 0 111.929 0 250 0 388.071 111.929 500 250 500 388.071 500 500 388.071 500 250 Z" fill="#000000" fill-opacity="1" stroke="none"/>
 <path id="ô€¢" d="M286.249 375.934 C289.043 375.934 291.55 374.913 293.77 372.872 295.99 370.83 297.1 367.983 297.1 364.331 297.1 362.898 296.885 361.52 296.456 360.194 296.026 358.869 295.453 357.455 294.737 355.951 L272.605 311.151 C271.674 309.217 270.654 307.337 269.543 305.51 268.433 303.684 267.341 302.019 266.267 300.515 L252.193 280.532 253.16 277.631 C255.093 271.758 256.508 266.619 257.403 262.214 258.299 257.809 258.961 252.706 259.391 246.905 L261.647 213.922 C262.005 208.694 261.289 203.913 259.498 199.58 257.708 195.247 254.932 191.791 251.172 189.212 247.412 186.634 242.846 185.345 237.474 185.345 231.386 185.345 226.015 186.956 221.359 190.179 216.704 193.402 211.583 197.7 205.996 203.072 L188.699 220.154 C185.762 223.09 183.721 225.901 182.575 228.587 181.429 231.273 180.713 234.442 180.427 238.095 L178.278 265.061 C177.991 268.571 178.743 271.418 180.534 273.602 182.325 275.787 184.831 276.986 188.054 277.201 191.063 277.416 193.587 276.628 195.629 274.838 197.67 273.047 198.869 270.254 199.228 266.458 L201.699 236.699 211.905 227.674 C212.836 226.815 213.839 226.582 214.913 226.976 215.987 227.37 216.453 228.247 216.31 229.608 L214.376 256.252 C213.946 262.626 214.841 268.195 217.062 272.958 219.282 277.721 221.968 282.072 225.119 286.011 L247.573 314.374 C248.719 315.806 249.489 316.898 249.883 317.65 250.277 318.402 250.689 319.244 251.118 320.175 L275.076 368.521 C276.437 371.314 278.102 373.248 280.072 374.322 282.042 375.396 284.101 375.934 286.249 375.934 Z M184.724 375.934 C188.448 375.934 191.421 374.573 193.641 371.851 L227.268 331.778 C228.987 329.701 230.115 328.161 230.652 327.158 231.189 326.156 231.816 324.652 232.532 322.646 233.034 321.07 233.499 319.548 233.929 318.08 234.359 316.612 234.753 315.126 235.111 313.622 L216.31 290.308 210.723 317.167 179.137 354.554 C177.633 356.273 176.398 357.92 175.431 359.496 174.464 361.072 173.98 363.006 173.98 365.298 173.98 368.449 175.019 371.009 177.096 372.979 179.173 374.949 181.716 375.934 184.724 375.934 Z M290.654 251.739 L315.364 251.739 C318.874 251.739 321.703 250.808 323.852 248.946 326 247.084 327.075 244.541 327.075 241.318 327.075 238.167 326 235.624 323.852 233.69 321.703 231.757 318.874 230.79 315.364 230.79 L289.15 230.79 270.779 210.807 268.845 238.955 276.795 246.905 C278.729 248.767 280.717 250.038 282.758 250.719 284.799 251.399 287.431 251.739 290.654 251.739 Z M250.259 176.32 C254.914 176.32 259.158 175.157 262.99 172.829 266.822 170.501 269.866 167.439 272.122 163.643 274.378 159.847 275.506 155.729 275.506 151.288 275.506 146.633 274.378 142.371 272.122 138.503 269.866 134.636 266.822 131.574 262.99 129.318 259.158 127.062 254.914 125.934 250.259 125.934 245.603 125.934 241.396 127.062 237.635 129.318 233.875 131.574 230.867 134.636 228.611 138.503 226.355 142.371 225.227 146.633 225.227 151.288 225.227 155.729 226.355 159.847 228.611 163.643 230.867 167.439 233.875 170.501 237.635 172.829 241.396 175.157 245.603 176.32 250.259 176.32 Z" fill="#ffffff" fill-opacity="1" stroke="none"/>
</svg>
