<?xml version="1.0" encoding="UTF-8"?>
<svg width="500px" height="500px" viewBox="0 0 500 500" xmlns="http://www.w3.org/2000/svg" xmlns:xlink="http://www.w3.org/1999/xlink" version="1.1">
 <!-- Generated by Pixelmator Pro 2.0.7 -->
 <path id="Ellipse" d="M500 250 C500 111.929 388.071 0 250 0 111.929 0 0 111.929 0 250 0 388.071 111.929 500 250 500 388.071 500 500 388.071 500 250 Z" fill="#ffffff" fill-opacity="1" stroke="none"/>
 <path id="􀎽" d="M365.638 207.022 C372.533 207.022 375.98 203.532 375.98 196.552 L375.98 165.27 C375.98 152.161 372.64 142.309 365.957 135.712 359.275 129.115 349.253 125.816 335.889 125.816 L304.607 125.816 C297.712 125.816 294.264 129.221 294.264 136.031 294.264 139.351 295.158 141.904 296.946 143.692 298.733 145.479 301.287 146.373 304.607 146.373 L335.505 146.373 C341.804 146.373 346.699 148.054 350.189 151.417 353.679 154.779 355.424 159.78 355.424 166.419 L355.424 196.552 C355.424 203.532 358.828 207.022 365.638 207.022 Z M166.072 375.689 L197.227 375.689 C204.207 375.689 207.697 372.284 207.697 365.474 207.697 362.155 206.803 359.601 205.015 357.813 203.228 356.026 200.632 355.132 197.227 355.132 L166.328 355.132 C159.944 355.132 155.049 353.451 151.644 350.089 148.24 346.726 146.537 341.725 146.537 335.086 L146.537 304.953 C146.537 297.973 143.09 294.483 136.195 294.483 129.385 294.483 125.98 297.973 125.98 304.953 L125.98 336.108 C125.98 349.301 129.321 359.196 136.003 365.793 142.685 372.39 152.708 375.689 166.072 375.689 Z M304.607 375.689 L335.889 375.689 C349.253 375.689 359.275 372.39 365.957 365.793 372.64 359.196 375.98 349.301 375.98 336.108 L375.98 304.953 C375.98 297.973 372.533 294.483 365.638 294.483 362.319 294.483 359.786 295.377 358.041 297.165 356.296 298.952 355.424 301.548 355.424 304.953 L355.424 335.086 C355.424 341.725 353.679 346.726 350.189 350.089 346.699 353.451 341.804 355.132 335.505 355.132 L304.607 355.132 C297.712 355.132 294.264 358.579 294.264 365.474 294.264 372.284 297.712 375.689 304.607 375.689 Z M136.195 207.022 C139.6 207.022 142.175 206.107 143.92 204.277 145.665 202.447 146.537 199.872 146.537 196.552 L146.537 166.419 C146.537 159.78 148.24 154.779 151.644 151.417 155.049 148.054 159.944 146.373 166.328 146.373 L197.227 146.373 C204.207 146.373 207.697 142.926 207.697 136.031 207.697 129.221 204.207 125.816 197.227 125.816 L166.072 125.816 C152.708 125.816 142.685 129.115 136.003 135.712 129.321 142.309 125.98 152.161 125.98 165.27 L125.98 196.552 C125.98 203.532 129.385 207.022 136.195 207.022 Z M250.214 315.168 C257.875 315.168 265.408 313.614 272.814 310.507 280.219 307.4 286.731 303.038 292.349 297.42 293.115 296.654 293.69 295.76 294.073 294.739 294.456 293.717 294.647 292.568 294.647 291.291 294.647 288.908 293.839 286.929 292.222 285.354 290.604 283.779 288.646 282.992 286.348 282.992 284.05 282.992 281.837 284.141 279.709 286.439 276.219 290.1 271.856 293.058 266.621 295.313 261.387 297.569 255.918 298.697 250.214 298.697 244.852 298.697 239.532 297.59 234.254 295.377 228.977 293.164 224.508 290.185 220.848 286.439 219.826 285.503 218.826 284.695 217.847 284.014 216.868 283.333 215.613 282.992 214.081 282.992 211.697 282.992 209.697 283.779 208.08 285.354 206.462 286.929 205.654 288.908 205.654 291.291 205.654 292.398 205.866 293.441 206.292 294.42 206.718 295.398 207.356 296.356 208.207 297.292 213.314 303.166 219.656 307.613 227.232 310.635 234.808 313.657 242.468 315.168 250.214 315.168 Z M202.334 242.134 C205.313 242.134 207.76 241.176 209.676 239.261 211.591 237.346 212.548 234.856 212.548 231.792 L212.548 214.427 C212.548 211.363 211.591 208.873 209.676 206.958 207.76 205.043 205.313 204.085 202.334 204.085 199.355 204.085 196.907 205.043 194.992 206.958 193.077 208.873 192.119 211.363 192.119 214.427 L192.119 231.792 C192.119 234.856 193.077 237.346 194.992 239.261 196.907 241.176 199.355 242.134 202.334 242.134 Z M240.638 272.267 C240.809 272.267 241 272.267 241.213 272.267 241.426 272.267 241.617 272.267 241.787 272.267 248.257 272.267 253.194 270.565 256.598 267.16 260.003 263.755 261.706 258.818 261.706 252.349 L261.706 212.129 C261.706 209.661 260.961 207.681 259.471 206.192 257.982 204.702 255.96 203.957 253.406 203.957 250.938 203.957 248.938 204.702 247.405 206.192 245.873 207.681 245.107 209.661 245.107 212.129 L245.107 253.498 C245.107 254.179 244.937 254.668 244.596 254.966 244.256 255.264 243.788 255.413 243.192 255.413 L238.723 255.413 C236.425 255.413 234.488 256.2 232.914 257.775 231.339 259.35 230.551 261.286 230.551 263.585 230.551 266.308 231.445 268.436 233.233 269.969 235.02 271.501 237.489 272.267 240.638 272.267 Z M299.116 242.134 C302.095 242.134 304.543 241.176 306.458 239.261 308.373 237.346 309.331 234.856 309.331 231.792 L309.331 214.427 C309.331 211.363 308.373 208.873 306.458 206.958 304.543 205.043 302.095 204.085 299.116 204.085 296.137 204.085 293.69 205.043 291.775 206.958 289.859 208.873 288.902 211.363 288.902 214.427 L288.902 231.792 C288.902 234.856 289.859 237.346 291.775 239.261 293.69 241.176 296.137 242.134 299.116 242.134 Z" fill="#000000" fill-opacity="1" stroke="none"/>
</svg>
