<?xml version="1.0" encoding="UTF-8"?>
<svg width="500px" height="500px" viewBox="0 0 500 500" xmlns="http://www.w3.org/2000/svg" xmlns:xlink="http://www.w3.org/1999/xlink" version="1.1">
 <!-- Generated by Pixelmator Pro 2.0.7 -->
 <path id="Ellipse" d="M500 250 C500 111.929 388.071 0 250 0 111.929 0 0 111.929 0 250 0 388.071 111.929 500 250 500 388.071 500 500 388.071 500 250 Z" fill="#f7ba00" fill-opacity="1" stroke="none"/>
 <path id="􀎠" d="M192.526 375.289 L309.303 375.289 C318.822 375.289 325.961 372.846 330.72 367.959 335.48 363.072 337.86 355.401 337.86 344.947 L337.86 257.11 C337.86 246.826 335.48 239.24 330.72 234.353 325.961 229.466 318.822 227.023 309.303 227.023 L192.526 227.023 C183.007 227.023 175.867 229.466 171.108 234.353 166.348 239.24 163.969 246.826 163.969 257.11 L163.969 344.947 C163.969 355.401 166.348 363.072 171.108 367.959 175.867 372.846 183.007 375.289 192.526 375.289 Z M193.291 356.166 C190.316 356.166 188.106 355.422 186.661 353.935 185.216 352.448 184.494 349.919 184.494 346.35 L184.494 255.835 C184.494 252.265 185.216 249.758 186.661 248.313 188.106 246.868 190.316 246.146 193.291 246.146 L308.665 246.146 C311.64 246.146 313.829 246.868 315.231 248.313 316.633 249.758 317.334 252.265 317.334 255.835 L317.334 346.35 C317.334 349.919 316.633 352.448 315.231 353.935 313.829 355.422 311.64 356.166 308.665 356.166 Z M186.024 237.094 L206.549 237.094 206.549 193.877 C206.549 183.168 208.589 174.18 212.668 166.913 216.748 159.647 222.166 154.165 228.923 150.468 235.68 146.77 243.01 144.922 250.914 144.922 258.903 144.922 266.255 146.77 272.969 150.468 279.684 154.165 285.08 159.647 289.16 166.913 293.24 174.18 295.279 183.168 295.279 193.877 L295.279 237.094 315.805 237.094 315.805 196.554 C315.805 184.57 314.02 174.116 310.45 165.192 306.881 156.268 302.036 148.853 295.917 142.946 289.797 137.039 282.849 132.62 275.073 129.687 267.296 126.755 259.243 125.289 250.914 125.289 242.585 125.289 234.554 126.755 226.819 129.687 219.085 132.62 212.158 137.039 206.039 142.946 199.92 148.853 195.054 156.268 191.442 165.192 187.83 174.116 186.024 184.57 186.024 196.554 Z" fill="#000000" fill-opacity="1" stroke="none"/>
</svg>
