<?xml version="1.0" encoding="UTF-8"?>
<svg width="500px" height="500px" viewBox="0 0 500 500" xmlns="http://www.w3.org/2000/svg" xmlns:xlink="http://www.w3.org/1999/xlink" version="1.1">
 <!-- Generated by Pixelmator Pro 2.0.7 -->
 <path id="Ellipse" d="M500 250 C500 111.929 388.071 0 250 0 111.929 0 0 111.929 0 250 0 388.071 111.929 500 250 500 388.071 500 500 388.071 500 250 Z" fill="#f7ba00" fill-opacity="1" stroke="none"/>
 <path id="􀎡" d="M189.845 375.289 L311.834 375.289 C320.12 375.289 326.292 373.175 330.35 368.946 334.408 364.718 336.436 358.118 336.436 349.149 L336.436 255.094 C336.436 246.21 334.408 239.654 330.35 235.425 326.292 231.196 320.12 229.082 311.834 229.082 L192.408 229.338 C184.207 229.338 177.629 231.431 172.674 235.617 167.719 239.803 165.242 246.295 165.242 255.094 L165.242 349.149 C165.242 358.118 167.292 364.718 171.393 368.946 175.493 373.175 181.644 375.289 189.845 375.289 Z M185.616 237.667 L206.247 237.667 206.247 194.228 C206.247 183.464 208.297 174.431 212.397 167.127 216.498 159.823 221.944 154.313 228.735 150.597 235.527 146.881 242.895 145.023 250.839 145.023 258.869 145.023 266.259 146.881 273.007 150.597 279.756 154.313 285.181 159.823 289.281 167.127 293.382 174.431 295.432 183.464 295.432 194.228 L295.432 237.667 316.062 237.667 316.062 196.919 C316.062 184.874 314.268 174.366 310.68 165.397 307.093 156.427 302.223 148.973 296.073 143.036 289.922 137.099 282.938 132.657 275.122 129.71 267.305 126.763 259.211 125.289 250.839 125.289 242.468 125.289 234.395 126.763 226.621 129.71 218.847 132.657 211.885 137.099 205.734 143.036 199.584 148.973 194.693 156.427 191.062 165.397 187.432 174.366 185.616 184.874 185.616 196.919 Z" fill="#000000" fill-opacity="1" stroke="none"/>
</svg>
