<?xml version="1.0" encoding="UTF-8"?>
<svg width="500px" height="500px" viewBox="0 0 500 500" xmlns="http://www.w3.org/2000/svg" xmlns:xlink="http://www.w3.org/1999/xlink" version="1.1">
 <!-- Generated by Pixelmator Pro 2.0.7 -->
 <path id="Ellipse" d="M500 250 C500 111.929 388.071 0 250 0 111.929 0 0 111.929 0 250 0 388.071 111.929 500 250 500 388.071 500 500 388.071 500 250 Z" fill="#f5f5f5" fill-opacity="1" stroke="none"/>
 <path id="􀎹" d="M365.638 207.022 C372.533 207.022 375.98 203.532 375.98 196.552 L375.98 165.27 C375.98 152.161 372.64 142.309 365.957 135.712 359.275 129.115 349.253 125.816 335.889 125.816 L304.607 125.816 C297.712 125.816 294.264 129.221 294.264 136.031 294.264 139.351 295.158 141.904 296.946 143.692 298.733 145.479 301.287 146.373 304.607 146.373 L335.505 146.373 C341.804 146.373 346.699 148.054 350.189 151.417 353.679 154.779 355.424 159.78 355.424 166.419 L355.424 196.552 C355.424 203.532 358.828 207.022 365.638 207.022 Z M166.072 375.689 L197.227 375.689 C204.207 375.689 207.697 372.284 207.697 365.474 207.697 362.155 206.803 359.601 205.015 357.813 203.228 356.026 200.632 355.132 197.227 355.132 L166.328 355.132 C159.944 355.132 155.049 353.451 151.644 350.089 148.24 346.726 146.537 341.725 146.537 335.086 L146.537 304.953 C146.537 297.973 143.09 294.483 136.195 294.483 129.385 294.483 125.98 297.973 125.98 304.953 L125.98 336.108 C125.98 349.301 129.321 359.196 136.003 365.793 142.685 372.39 152.708 375.689 166.072 375.689 Z M304.607 375.689 L335.889 375.689 C349.253 375.689 359.275 372.39 365.957 365.793 372.64 359.196 375.98 349.301 375.98 336.108 L375.98 304.953 C375.98 297.973 372.533 294.483 365.638 294.483 362.319 294.483 359.786 295.377 358.041 297.165 356.296 298.952 355.424 301.548 355.424 304.953 L355.424 335.086 C355.424 341.725 353.679 346.726 350.189 350.089 346.699 353.451 341.804 355.132 335.505 355.132 L304.607 355.132 C297.712 355.132 294.264 358.579 294.264 365.474 294.264 372.284 297.712 375.689 304.607 375.689 Z M136.195 207.022 C139.6 207.022 142.175 206.107 143.92 204.277 145.665 202.447 146.537 199.872 146.537 196.552 L146.537 166.419 C146.537 159.78 148.24 154.779 151.644 151.417 155.049 148.054 159.944 146.373 166.328 146.373 L197.227 146.373 C204.207 146.373 207.697 142.926 207.697 136.031 207.697 129.221 204.207 125.816 197.227 125.816 L166.072 125.816 C152.708 125.816 142.685 129.115 136.003 135.712 129.321 142.309 125.98 152.161 125.98 165.27 L125.98 196.552 C125.98 203.532 129.385 207.022 136.195 207.022 Z" fill="#000000" fill-opacity="1" stroke="none"/>
</svg>
