<?xml version="1.0" encoding="UTF-8"?>
<svg width="500px" height="500px" viewBox="0 0 500 500" xmlns="http://www.w3.org/2000/svg" xmlns:xlink="http://www.w3.org/1999/xlink" version="1.1">
 <!-- Generated by Pixelmator Pro 2.0.7 -->
 <path id="Ellipse" d="M500 250 C500 111.929 388.071 0 250 0 111.929 0 0 111.929 0 250 0 388.071 111.929 500 250 500 388.071 500 500 388.071 500 250 Z" fill="#f5f5f5" fill-opacity="1" stroke="none"/>
 <path id="􀤑" d="M131.137 289.764 C133.181 291.807 135.794 293.261 138.977 294.126 142.16 294.99 145.539 295.029 149.115 294.244 152.691 293.458 156.051 291.65 159.195 288.821 159.98 288.113 161.002 287.131 162.26 285.873 163.517 284.616 165.05 283.064 166.857 281.217 168.665 279.37 170.787 277.209 173.223 274.733 175.66 272.257 178.45 269.448 181.593 266.304 196.604 251.057 210.299 237.284 222.677 224.984 235.056 212.684 245.901 202.31 255.215 193.862 264.528 185.413 272.132 179.322 278.026 175.589 283.92 171.856 287.929 170.932 290.051 172.819 291.701 174.312 291.839 177.121 290.463 181.248 289.088 185.374 286.632 190.364 283.095 196.219 279.559 202.075 275.432 208.401 270.717 215.199 266.001 221.998 261.168 228.816 256.217 235.653 248.829 246.027 241.854 255.753 235.291 264.83 228.729 273.908 223.011 282.376 218.139 290.235 213.266 298.095 209.553 305.364 206.998 312.045 204.444 318.725 203.442 324.836 203.992 330.376 204.542 335.917 207.018 340.849 211.419 345.171 217.235 351.066 224.23 353.247 232.403 351.714 240.577 350.182 250.106 345.604 260.991 337.98 271.876 330.357 284.353 320.415 298.421 308.154 306.28 301.16 313.412 294.892 319.817 289.351 326.223 283.81 331.606 279.704 335.968 277.032 340.33 274.36 343.375 273.927 345.104 275.735 346.44 276.993 346.755 278.918 346.048 281.512 345.34 284.105 343.926 287.367 341.804 291.296 339.682 295.226 337.127 299.745 334.141 304.854 331.312 309.726 328.463 314.638 325.594 319.59 322.725 324.541 320.427 329.394 318.697 334.149 316.968 338.904 316.261 343.383 316.576 347.588 316.89 351.793 318.737 355.624 322.116 359.082 326.832 363.798 333.571 364.937 342.334 362.501 351.097 360.065 361.098 353.345 372.337 342.342 374.302 340.377 375.48 338.334 375.873 336.212 376.266 334.09 375.677 332.243 374.105 330.671 372.612 329.178 370.883 328.51 368.918 328.667 366.953 328.824 365.185 329.649 363.613 331.143 358.111 336.487 353.298 340.652 349.172 343.639 345.046 346.625 341.686 348.57 339.092 349.474 336.499 350.378 334.73 350.358 333.787 349.415 332.687 348.394 332.569 346.507 333.434 343.757 334.298 341.006 336.007 337.253 338.562 332.498 341.116 327.743 344.397 321.829 348.405 314.756 352.178 308.076 355.439 301.985 358.19 296.483 360.941 290.982 362.925 285.972 364.143 281.453 365.362 276.934 365.597 272.827 364.851 269.133 364.104 265.439 362.12 262.021 358.897 258.877 354.653 254.712 350.076 252.59 345.163 252.511 340.251 252.433 334.828 254.063 328.895 257.403 322.961 260.744 316.281 265.479 308.854 271.609 301.427 277.739 292.998 284.93 283.567 293.183 274.686 301.042 267.259 307.329 261.286 312.045 255.313 316.76 250.46 320.238 246.727 322.478 242.993 324.718 240.086 325.995 238.003 326.309 235.92 326.624 234.329 326.231 233.228 325.13 232.05 323.873 231.519 322.321 231.637 320.474 231.755 318.627 232.659 316.112 234.348 312.929 236.038 309.746 238.651 305.561 242.188 300.374 245.725 295.187 250.283 288.703 255.863 280.922 261.443 273.142 268.202 263.711 276.14 252.629 285.414 239.661 293.568 227.853 300.602 217.204 307.636 206.554 313.078 196.986 316.929 188.498 320.78 180.01 322.627 172.485 322.47 165.922 322.313 159.36 319.719 153.642 314.689 148.769 307.852 142.089 300.169 138.552 291.642 138.159 283.115 137.766 272.859 141.008 260.873 147.885 248.888 154.762 234.309 165.667 217.137 180.599 199.964 195.532 179.236 214.983 154.951 238.954 151.728 242.176 148.86 245.006 146.345 247.442 143.83 249.878 141.649 252 139.802 253.808 137.955 255.616 136.403 257.148 135.145 258.406 133.888 259.663 132.905 260.685 132.198 261.471 129.212 264.85 127.325 268.328 126.539 271.904 125.754 275.48 125.813 278.839 126.716 281.983 127.62 285.127 129.094 287.72 131.137 289.764 Z" fill="#000000" fill-opacity="1" stroke="none"/>
</svg>
