<?xml version="1.0" encoding="UTF-8"?>
<svg width="6000px" height="3000px" viewBox="0 0 6000 3000" xmlns="http://www.w3.org/2000/svg" xmlns:xlink="http://www.w3.org/1999/xlink" version="1.1">
 <!-- Generated by Pixelmator Pro 2.0.5 -->
 <path id="Rectangle" d="M0 3000 L6000 3000 6000 1500 0 1500 Z" fill="#000000" fill-opacity="1" stroke="none"/>
 <defs>
  <linearGradient id="linear-gradient" gradientUnits="userSpaceOnUse" x1="-184.371" y1="3172.027" x2="6205.296" y2="1635.804">
   <stop offset="0" stop-color="#a1c4fd" stop-opacity="1"/>
   <stop offset="1" stop-color="#c2e9fb" stop-opacity="1"/>
  </linearGradient>
 </defs>
 <path id="Ellipse" d="M2999.5 3000 C1276.649 3000 -120 2888.071 -120 2750 -120 2726.1 -78.142 2702.984 0 2681.096 L0 1500 6000 1500 6000 2681.375 C6077.502 2703.18 6119 2726.202 6119 2750 6119 2888.071 4722.35 3000 2999.5 3000 Z" fill-opacity="1" fill="url(#linear-gradient)" stroke="none"/>
 <defs>
  <linearGradient id="linear-gradient-1" gradientUnits="userSpaceOnUse" x1="-61.905" y1="3044.143" x2="6082.99" y2="-34.45">
   <stop offset="0" stop-color="#304352" stop-opacity="1"/>
   <stop offset="1" stop-color="#8b8b8b" stop-opacity="1"/>
  </linearGradient>
 </defs>
 <path id="Rectangle-1" d="M-0 3000 L-0 1684 -0 0 -0 -6 654 -6 654 327 768 384 1308 384 1308 654 3000 1500 -0 3000 Z M3000 1500 L4692 654 4692 384 5232 384 5346 327 5346 -6 6000 -6 6000 0 6000 1684 6000 3000 3000 1500 Z" fill-opacity="1" fill="url(#linear-gradient-1)" stroke="none"/>
 <defs>
  <linearGradient id="linear-gradient-2" gradientUnits="userSpaceOnUse" x1="1924.251" y1="2039.482" x2="4083.157" y2="1168.955">
   <stop offset="0" stop-color="#76b852" stop-opacity="1"/>
   <stop offset="1" stop-color="#8dc26f" stop-opacity="1"/>
  </linearGradient>
 </defs>
 <path id="Rectangle-copy-1" d="M1946 2027 L4054 2027 4054 1177 1946 1177 Z" fill-opacity="1" fill="url(#linear-gradient-2)" stroke="none"/>
</svg>
