<?xml version="1.0" encoding="UTF-8"?>
<svg width="500px" height="500px" viewBox="0 0 500 500" xmlns="http://www.w3.org/2000/svg" xmlns:xlink="http://www.w3.org/1999/xlink" version="1.1">
 <!-- Generated by Pixelmator Pro 2.0.7 -->
 <path id="􀄨" d="M250.616 500.461 C257.498 500.461 263.144 498.299 267.556 493.976 271.967 489.653 274.173 484.05 274.173 477.168 L274.173 128.571 271.526 49.693 256.439 54.987 351.463 159.01 411.812 218.301 C413.93 220.419 416.444 222.007 419.356 223.065 422.267 224.124 425.311 224.654 428.488 224.654 435.017 224.654 440.443 222.448 444.766 218.036 449.089 213.625 451.251 208.155 451.251 201.626 451.251 195.273 448.869 189.538 444.104 184.421 L268.35 8.402 C265.879 5.755 263.144 3.77 260.145 2.446 257.145 1.123 253.968 0.461 250.616 0.461 247.439 0.461 244.351 1.123 241.352 2.446 238.352 3.77 235.528 5.755 232.881 8.402 L57.392 184.421 C52.451 189.538 49.98 195.273 49.98 201.626 49.98 208.155 52.142 213.625 56.465 218.036 60.789 222.448 66.215 224.654 72.744 224.654 75.92 224.654 78.964 224.124 81.876 223.065 84.787 222.007 87.302 220.419 89.419 218.301 L149.769 159.01 244.528 54.987 229.705 49.693 227.058 128.571 227.058 477.168 C227.058 484.05 229.264 489.653 233.676 493.976 238.087 498.299 243.734 500.461 250.616 500.461 Z" fill="#000000" fill-opacity="1" stroke="none"/>
</svg>
