<?xml version="1.0" encoding="UTF-8"?>
<svg width="1000px" height="1000px" viewBox="0 0 1000 1000" xmlns="http://www.w3.org/2000/svg" xmlns:xlink="http://www.w3.org/1999/xlink" version="1.1">
 <!-- Generated by Pixelmator Pro 2.0.6 -->
 <path id="􀯶" d="M218.5 500.133 C218.5 507.429 219.844 514.246 222.532 520.582 225.22 526.919 229.253 532.775 234.629 538.151 L691.426 984.58 C701.795 994.949 714.276 1000.133 728.869 1000.133 738.853 1000.133 747.782 997.829 755.654 993.22 763.527 988.612 769.863 982.372 774.664 974.499 779.464 966.627 781.864 957.698 781.864 947.713 781.864 933.505 776.68 921.024 766.311 910.271 L346.956 500.133 766.311 89.995 C776.68 79.242 781.864 66.761 781.864 52.552 781.864 42.568 779.464 33.639 774.664 25.766 769.863 17.894 763.527 11.654 755.654 7.045 747.782 2.437 738.853 0.133 728.869 0.133 714.276 0.133 701.795 5.125 691.426 15.11 L234.629 462.114 C229.253 467.491 225.22 473.347 222.532 479.684 219.844 486.02 218.5 492.836 218.5 500.133 Z" fill="#000000" fill-opacity="1" stroke="none"/>
</svg>
