<?xml version="1.0" encoding="UTF-8"?>
<svg width="1000px" height="1000px" viewBox="0 0 1000 1000" xmlns="http://www.w3.org/2000/svg" xmlns:xlink="http://www.w3.org/1999/xlink" version="1.1">
 <!-- Generated by Pixelmator Pro 2.0.6 -->
 <path id="􀬓" d="M46.987 921.619 L119.149 921.619 C134.422 921.619 146.067 917.546 154.085 909.401 162.104 901.255 166.113 889.674 166.113 874.656 L166.113 229.772 C166.113 214.753 162.104 203.108 154.085 194.836 146.067 186.563 134.422 182.427 119.149 182.427 L46.987 182.427 C31.714 182.427 20.069 186.563 12.051 194.836 4.032 203.108 0.023 214.753 0.023 229.772 L0.023 874.656 C0.023 889.674 4.032 901.255 12.051 909.401 20.069 917.546 31.714 921.619 46.987 921.619 Z M257.748 921.619 L422.31 921.619 C437.583 921.619 449.228 917.546 457.246 909.401 465.264 901.255 469.273 889.674 469.273 874.656 L469.273 359.97 C469.273 345.207 465.264 333.689 457.246 325.416 449.228 317.143 437.583 313.007 422.31 313.007 L257.748 313.007 C242.475 313.007 230.767 317.143 222.621 325.416 214.476 333.689 210.403 345.207 210.403 359.97 L210.403 874.656 C210.403 889.674 214.476 901.255 222.621 909.401 230.767 917.546 242.475 921.619 257.748 921.619 Z M294.02 449.315 C287.148 449.315 281.421 447.024 276.839 442.442 272.257 437.86 269.966 432.26 269.966 425.642 269.966 419.024 272.257 413.488 276.839 409.033 281.421 404.579 287.148 402.352 294.02 402.352 L386.419 402.352 C393.292 402.352 398.956 404.579 403.41 409.033 407.865 413.488 410.092 419.024 410.092 425.642 410.092 432.26 407.865 437.86 403.41 442.442 398.956 447.024 393.292 449.315 386.419 449.315 Z M294.02 832.656 C287.148 832.656 281.421 830.365 276.839 825.784 272.257 821.202 269.966 815.602 269.966 808.984 269.966 802.366 272.257 796.829 276.839 792.375 281.421 787.92 287.148 785.693 294.02 785.693 L386.419 785.693 C393.292 785.693 398.956 787.92 403.41 792.375 407.865 796.829 410.092 802.366 410.092 808.984 410.092 815.602 407.865 821.202 403.41 825.784 398.956 830.365 393.292 832.656 386.419 832.656 Z M560.909 921.619 L669.726 921.619 C684.744 921.619 696.325 917.546 704.471 909.401 712.616 901.255 716.689 889.674 716.689 874.656 L716.689 124.009 C716.689 108.991 712.616 97.346 704.471 89.073 696.325 80.8 684.744 76.664 669.726 76.664 L560.909 76.664 C545.636 76.664 533.927 80.8 525.782 89.073 517.636 97.346 513.564 108.991 513.564 124.009 L513.564 874.656 C513.564 889.674 517.636 901.255 525.782 909.401 533.927 917.546 545.636 921.619 560.909 921.619 Z M833.142 923.528 L958.377 905.583 C973.395 903.546 984.404 898.074 991.404 889.165 998.404 880.256 1001.14 868.42 999.613 853.656 L926.305 220.226 C924.523 205.208 919.241 194.008 910.459 186.627 901.678 179.245 889.651 176.572 874.378 178.608 L749.143 196.554 C734.125 198.59 723.116 204.063 716.116 212.972 709.116 221.881 706.38 233.717 707.907 248.48 L781.215 881.91 C782.997 896.928 788.279 908.128 797.061 915.51 805.842 922.892 817.869 925.564 833.142 923.528 Z" fill="#000000" fill-opacity="1" stroke="none"/>
</svg>
