<?xml version="1.0" encoding="UTF-8"?>
<svg width="665px" height="1001px" viewBox="168 0 665 1001" xmlns="http://www.w3.org/2000/svg" xmlns:xlink="http://www.w3.org/1999/xlink" version="1.1">
 <!-- Generated by Pixelmator Pro 2.0.6 -->
 <path id="􀛮" d="M500.132 1000.266 C530.082 1000.266 554.704 993.93 573.998 981.259 593.293 968.588 604.092 951.885 606.396 931.151 L394.301 931.151 C396.317 951.885 406.971 968.588 426.266 981.259 445.561 993.93 470.182 1000.266 500.132 1000.266 Z M360.175 896.162 L640.521 896.162 C651.464 896.162 660.896 892.202 668.815 884.283 676.734 876.364 680.694 866.788 680.694 855.557 680.694 844.326 676.734 834.751 668.815 826.831 660.896 818.912 651.464 814.952 640.521 814.952 L360.175 814.952 C348.944 814.952 339.441 818.912 331.666 826.831 323.89 834.751 320.003 844.326 320.003 855.557 320.003 866.788 323.89 876.364 331.666 884.283 339.441 892.202 348.944 896.162 360.175 896.162 Z M343.761 779.531 L656.504 779.531 C663.991 779.531 669.895 777.371 674.214 773.052 678.534 768.732 680.694 762.973 680.694 755.773 L680.694 686.659 C680.694 665.924 685.805 646.054 696.029 627.047 706.252 608.041 718.851 588.675 733.826 568.948 748.801 549.221 763.847 527.911 778.966 505.017 794.085 482.123 806.756 456.277 816.979 427.479 827.202 398.682 832.314 365.565 832.314 328.127 832.314 279.171 824.394 234.535 808.556 194.218 792.717 153.901 770.183 119.344 740.953 90.546 711.723 61.749 676.735 39.503 635.985 23.808 595.236 8.113 549.953 0.266 500.132 0.266 450.6 0.266 405.46 8.113 364.711 23.808 323.962 39.503 288.973 61.749 259.743 90.546 230.514 119.344 207.98 153.901 192.141 194.218 176.302 234.535 168.383 279.171 168.383 328.127 168.383 365.565 173.494 398.682 183.718 427.479 193.941 456.277 206.612 482.123 221.731 505.017 236.849 527.911 251.896 549.221 266.871 568.948 281.846 588.675 294.444 608.041 304.668 627.047 314.891 646.054 320.003 665.924 320.003 686.659 L320.003 755.773 C320.003 762.973 322.163 768.732 326.482 773.052 330.802 777.371 336.561 779.531 343.761 779.531 Z" fill="#000000" fill-opacity="1" stroke="none"/>
</svg>
