<?xml version="1.0" encoding="UTF-8"?>
<svg width="500px" height="500px" viewBox="0 0 500 500" xmlns="http://www.w3.org/2000/svg" xmlns:xlink="http://www.w3.org/1999/xlink" version="1.1">
 <!-- Generated by Pixelmator Pro 2.0.7 -->
 <path id="ô€·" d="M250.496 500.977 C284.647 500.977 316.795 494.441 346.942 481.369 377.089 468.297 403.682 450.241 426.722 427.202 449.761 404.163 467.816 377.57 480.888 347.423 493.96 317.275 500.496 285.127 500.496 250.977 500.496 216.826 493.96 184.678 480.888 154.53 467.816 124.383 449.761 97.79 426.722 74.751 403.682 51.712 377.049 33.657 346.82 20.584 316.591 7.512 284.402 0.977 250.251 0.977 216.1 0.977 183.952 7.512 153.805 20.584 123.658 33.657 97.106 51.712 74.148 74.751 51.19 97.79 33.176 124.383 20.104 154.53 7.032 184.678 0.496 216.826 0.496 250.977 0.496 285.127 7.032 317.275 20.104 347.423 33.176 377.57 51.231 404.163 74.271 427.202 97.31 450.241 123.903 468.297 154.05 481.369 184.197 494.441 216.346 500.977 250.496 500.977 Z M250.496 459.31 C221.574 459.31 194.532 453.918 169.369 443.133 144.205 432.349 122.106 417.439 103.07 398.403 84.034 379.367 69.165 357.268 58.462 332.104 47.759 306.94 42.408 279.898 42.408 250.977 42.408 222.055 47.759 195.013 58.462 169.849 69.165 144.686 83.993 122.545 102.947 103.428 121.901 84.31 143.96 69.4 169.124 58.697 194.287 47.994 221.329 42.643 250.251 42.643 279.173 42.643 306.215 47.994 331.378 58.697 356.542 69.4 378.682 84.31 397.8 103.428 416.918 122.545 431.869 144.686 442.653 169.849 453.437 195.013 458.829 222.055 458.829 250.977 458.829 279.898 453.478 306.94 442.776 332.104 432.073 357.268 417.204 379.367 398.168 398.403 379.132 417.439 356.991 432.349 331.746 443.133 306.501 453.918 279.418 459.31 250.496 459.31 Z M250.741 326.222 C264.467 326.222 277.048 322.831 288.486 316.05 299.924 309.269 309.034 300.16 315.815 288.722 322.596 277.284 325.986 264.62 325.986 250.731 325.986 237.006 322.596 224.465 315.815 213.109 309.034 201.753 299.924 192.684 288.486 185.903 277.048 179.122 264.467 175.731 250.741 175.731 237.016 175.731 224.434 179.122 212.996 185.903 201.558 192.684 192.408 201.753 185.545 213.109 178.682 224.465 175.251 237.006 175.251 250.731 175.251 264.62 178.682 277.284 185.545 288.722 192.408 300.16 201.558 309.269 212.996 316.05 224.434 322.831 237.016 326.222 250.741 326.222 Z" fill="#000000" fill-opacity="1" stroke="none"/>
</svg>
