<?xml version="1.0" encoding="UTF-8"?>
<svg width="500px" height="500px" viewBox="0 0 500 500" xmlns="http://www.w3.org/2000/svg" xmlns:xlink="http://www.w3.org/1999/xlink" version="1.1">
 <!-- Generated by Pixelmator Pro 2.0.6 -->
 <path id="􀆊" d="M499.143 250.945 C499.143 254.593 498.471 258.002 497.127 261.17 495.783 264.338 493.766 267.266 491.078 269.955 L262.68 493.169 C257.496 498.353 251.255 500.945 243.959 500.945 238.966 500.945 234.502 499.793 230.566 497.489 226.63 495.185 223.461 492.065 221.061 488.128 218.661 484.192 217.461 479.728 217.461 474.736 217.461 467.631 220.053 461.391 225.237 456.014 L434.915 250.945 225.237 45.876 C220.053 40.5 217.461 34.26 217.461 27.155 217.461 22.163 218.661 17.699 221.061 13.762 223.461 9.826 226.63 6.706 230.566 4.402 234.502 2.097 238.966 0.945 243.959 0.945 251.255 0.945 257.496 3.442 262.68 8.434 L491.078 231.936 C493.766 234.624 495.783 237.552 497.127 240.721 498.471 243.889 499.143 247.297 499.143 250.945 Z" fill="#147efb" fill-opacity="1" stroke="none"/>
</svg>
