<?xml version="1.0" encoding="UTF-8"?>
<svg width="1000px" height="1000px" viewBox="0 0 1000 1000" xmlns="http://www.w3.org/2000/svg" xmlns:xlink="http://www.w3.org/1999/xlink" version="1.1">
 <!-- Generated by Pixelmator Pro 2.0.6 -->
 <path id="􀙚" d="M388.974 884.085 C397.452 886.606 405.472 885.632 413.034 881.164 420.596 876.695 425.751 869.878 428.501 860.713 L633.356 157.47 C635.876 148.075 635.246 139.539 631.465 131.863 627.684 124.186 621.555 119.088 613.076 116.567 604.369 114.047 596.292 115.021 588.844 119.489 581.397 123.957 576.299 130.774 573.549 139.94 L368.351 843.183 C365.83 852.578 366.46 861.113 370.241 868.79 374.022 876.466 380.266 881.565 388.974 884.085 Z M271.423 759.66 C278.526 766.076 286.374 769.284 294.967 769.284 303.56 769.284 310.95 765.847 317.137 758.973 323.095 752.327 325.673 744.708 324.871 736.115 324.069 727.523 320.23 720.133 313.356 713.946 L77.567 500.498 313.356 287.051 C320.23 280.635 324.069 273.187 324.871 264.709 325.673 256.231 323.095 248.554 317.137 241.68 310.95 235.035 303.56 231.712 294.967 231.712 286.374 231.712 278.526 234.92 271.423 241.336 L12.605 474.719 C7.334 479.532 3.84 485.031 2.121 491.218 0.403 497.405 0.46 503.592 2.293 509.779 4.126 515.965 7.563 521.35 12.605 525.933 Z M730.627 759.316 L989.102 525.933 C994.372 521.121 997.866 515.622 999.585 509.435 1001.304 503.248 1001.304 497.118 999.585 491.046 997.866 484.974 994.372 479.532 989.102 474.719 L730.627 241.336 C723.524 234.691 715.618 231.369 706.911 231.369 698.203 231.369 690.871 234.806 684.913 241.68 678.726 248.325 676.034 255.944 676.836 264.537 677.638 273.13 681.476 280.635 688.35 287.051 L924.139 500.154 688.35 713.602 C681.476 720.018 677.638 727.465 676.836 735.944 676.034 744.422 678.726 752.098 684.913 758.973 690.871 765.618 698.203 768.998 706.911 769.112 715.618 769.227 723.524 765.961 730.627 759.316 Z" fill="#000000" fill-opacity="1" stroke="none"/>
</svg>
