<?xml version="1.0" encoding="UTF-8"?>
<svg width="1000px" height="1000px" viewBox="0 0 1000 1000" xmlns="http://www.w3.org/2000/svg" xmlns:xlink="http://www.w3.org/1999/xlink" version="1.1">
 <!-- Generated by Pixelmator Pro 2.0.5 -->
 <path id="􀯵" d="M936.226 65.46 C908.021 37.255 874.505 19.398 835.677 11.889 796.849 4.38 753.992 0.625 707.105 0.625 L292.27 0.625 C246.116 0.625 203.717 4.38 165.072 11.889 126.427 19.398 93.003 37.255 64.797 65.46 36.958 93.299 19.285 126.449 11.775 164.911 4.266 203.372 0.512 245.68 0.512 291.834 L0.512 707.218 C0.512 754.105 4.175 796.87 11.501 835.515 18.827 874.16 36.592 907.401 64.797 935.24 93.003 963.446 126.427 981.303 165.072 988.812 203.717 996.321 246.482 1000.076 293.369 1000.076 L707.105 1000.076 C753.992 1000.076 796.849 996.321 835.677 988.812 874.505 981.303 908.021 963.446 936.226 935.24 964.065 907.401 981.739 874.16 989.248 835.515 996.757 796.87 1000.512 754.105 1000.512 707.218 L1000.512 293.482 C1000.512 246.595 996.757 203.83 989.248 165.185 981.739 126.541 964.065 93.299 936.226 65.46 Z M501.611 211.614 C514.065 211.614 524.23 215.643 532.105 223.702 539.981 231.761 543.918 242.017 543.918 254.471 L543.918 536.339 539.523 657.218 596.666 588.537 663.149 520.955 C670.841 512.53 680.915 508.317 693.369 508.317 705.091 508.317 714.981 512.255 723.039 520.13 731.098 528.006 735.127 537.804 735.127 549.526 735.127 561.614 731.281 571.504 723.589 579.196 L534.578 767.658 C523.955 778.281 512.966 783.592 501.611 783.592 490.255 783.592 479.266 778.281 468.644 767.658 L279.633 579.196 C271.94 571.87 268.094 561.98 268.094 549.526 268.094 537.804 272.032 528.006 279.907 520.13 287.783 512.255 297.581 508.317 309.303 508.317 315.164 508.317 320.75 509.508 326.061 511.889 331.373 514.27 335.86 517.292 339.523 520.955 L406.556 588.537 463.149 656.669 458.753 536.339 458.753 254.471 C458.753 242.017 462.783 231.761 470.841 223.702 478.9 215.643 489.156 211.614 501.611 211.614 Z" fill="#000000" fill-opacity="1" stroke="none"/>
</svg>
