<?xml version="1.0" encoding="UTF-8"?>
<svg width="1000px" height="1000px" viewBox="0 0 1000 1000" xmlns="http://www.w3.org/2000/svg" xmlns:xlink="http://www.w3.org/1999/xlink" version="1.1">
 <!-- Generated by Pixelmator Pro 2.0.5 -->
 <path id="􀄯" d="M1000.512 747.568 L999.835 66.277 C999.835 46.863 993.967 31.061 982.231 18.871 970.496 6.681 954.473 0.586 934.161 0.586 L253.051 0.586 C234.093 0.586 218.747 6.794 207.011 19.21 195.276 31.626 189.408 45.96 189.408 62.214 189.408 78.467 195.614 92.576 208.027 104.54 220.44 116.505 234.545 122.487 250.342 122.487 L485.955 122.487 816.355 111.651 690.424 222.039 19.469 894.527 C6.831 907.168 0.512 921.39 0.512 937.192 0.512 948.028 3.446 958.299 9.313 968.006 15.181 977.713 22.854 985.501 32.333 991.37 41.812 997.24 52.193 1000.174 63.477 1000.174 71.15 1000.174 78.711 998.707 86.158 995.772 93.606 992.838 100.263 988.21 106.131 981.889 L778.44 310.079 890.153 183.437 877.966 499.703 877.966 750.277 C877.966 766.079 883.947 780.301 895.908 792.943 907.869 805.584 922.2 811.905 938.9 811.905 955.149 811.905 969.48 805.81 981.893 793.62 994.306 781.43 1000.512 766.079 1000.512 747.568 Z" fill="#000000" fill-opacity="1" stroke="none"/>
</svg>
