<?xml version="1.0" encoding="UTF-8"?>
<svg width="1000px" height="1000px" viewBox="0 0 1000 1000" xmlns="http://www.w3.org/2000/svg" xmlns:xlink="http://www.w3.org/1999/xlink" version="1.1">
 <!-- Generated by Pixelmator Pro 2.0.5 -->
 <path id="􀅊" d="M394.204 1000.957 L111.905 1000.957 C76.639 1000.957 49.257 991.123 29.759 971.456 10.261 951.788 0.512 924.491 0.512 889.563 L0.512 617.437 C0.512 596.752 7.548 579.713 21.621 566.318 35.693 552.924 53.241 546.227 74.266 546.227 94.951 546.227 112.244 552.839 126.148 566.064 140.051 579.289 147.002 596.413 147.002 617.437 L147.002 642.361 135.812 765.453 223.808 672.371 349.952 544.701 C363.855 530.798 381.319 523.846 402.343 523.846 424.723 523.846 442.95 531.052 457.022 545.464 471.095 559.875 478.131 578.102 478.131 600.143 478.131 609.977 476.181 619.217 472.282 627.865 468.382 636.511 462.872 644.226 455.751 651.008 L329.098 777.661 235.507 865.657 360.125 853.958 394.204 853.958 C414.89 853.958 431.929 860.994 445.324 875.067 458.718 889.14 465.415 906.688 465.415 927.712 465.415 948.736 458.718 966.199 445.324 980.102 431.929 994.006 414.89 1000.957 394.204 1000.957 Z M926.758 455.179 C905.734 455.179 888.27 448.482 874.367 435.087 860.464 421.693 853.513 404.653 853.513 383.968 L853.513 358.536 864.703 235.952 776.707 329.034 650.563 456.196 C636.659 470.438 619.366 477.559 598.681 477.559 575.961 477.559 557.565 470.354 543.492 455.942 529.42 441.53 522.384 423.134 522.384 400.754 522.384 390.92 524.418 381.764 528.487 373.287 532.557 364.809 537.982 357.18 544.764 350.398 L671.926 223.236 765.008 135.748 640.39 146.939 606.819 146.939 C585.795 146.939 568.586 139.987 555.191 126.084 541.797 112.181 535.1 94.887 535.1 74.202 535.1 53.178 541.797 35.715 555.191 21.812 568.586 7.908 585.795 0.957 606.819 0.957 L888.609 0.957 C923.876 0.957 951.258 10.706 970.756 30.204 990.254 49.702 1000.003 76.915 1000.003 111.842 L1000.003 383.968 C1000.003 404.653 992.967 421.693 978.894 435.087 964.822 448.482 947.443 455.179 926.758 455.179 Z" fill="#c8c8c8" fill-opacity="1" stroke="none"/>
</svg>
