<?xml version="1.0" encoding="UTF-8"?>
<svg width="1000px" height="1000px" viewBox="0 0 1000 1000" xmlns="http://www.w3.org/2000/svg" xmlns:xlink="http://www.w3.org/1999/xlink" version="1.1">
 <!-- Generated by Pixelmator Pro 2.0.5 -->
 <path id="􀮵" d="M937.063 66.687 C909.224 38.848 876.145 21.224 837.822 13.812 799.499 6.401 757.2 2.695 710.924 2.695 L288.473 2.695 C242.919 2.695 201.072 6.401 162.93 13.812 124.788 21.224 91.799 38.848 63.961 66.687 36.484 94.163 19.04 126.882 11.629 164.843 4.217 202.804 0.512 244.561 0.512 290.114 L0.512 708.769 C0.512 755.046 4.127 797.254 11.358 835.396 18.588 873.538 36.123 906.347 63.961 933.823 91.799 961.661 124.788 979.286 162.93 986.698 201.072 994.109 243.281 997.815 289.557 997.815 L710.924 997.815 C757.2 997.815 799.499 994.109 837.822 986.698 876.145 979.286 909.224 961.661 937.063 933.823 964.539 906.347 981.983 873.538 989.395 835.396 996.806 797.254 1000.512 755.046 1000.512 708.769 L1000.512 291.741 C1000.512 245.464 996.806 203.256 989.395 165.114 981.983 126.972 964.539 94.163 937.063 66.687 Z M913.202 276.556 L913.202 723.411 C913.202 751.611 910.58 778.997 905.338 805.57 900.096 832.142 889.34 853.744 873.071 870.374 856.802 886.643 835.201 897.399 808.267 902.641 781.332 907.883 753.946 910.504 726.108 910.504 L274.915 910.504 C247.077 910.504 219.691 907.883 192.757 902.641 165.823 897.399 144.04 886.643 127.41 870.374 111.141 853.744 100.476 832.142 95.414 805.57 90.353 778.997 87.822 751.611 87.822 723.411 L87.822 278.183 C87.822 249.622 90.353 221.875 95.414 194.94 100.476 168.006 111.141 146.405 127.41 130.136 143.679 113.505 165.461 102.659 192.757 97.598 220.053 92.536 247.981 90.005 276.542 90.005 L726.108 90.005 C753.946 90.005 781.332 92.627 808.267 97.869 835.201 103.111 856.802 113.867 873.071 130.136 889.702 146.766 900.548 168.368 905.609 194.94 910.671 221.513 913.202 248.718 913.202 276.556 Z M670.794 633.389 C682.724 633.389 692.305 629.322 699.536 621.188 706.766 613.053 710.382 602.659 710.382 590.005 L710.382 334.583 C710.382 318.313 706.314 306.745 698.18 299.875 690.045 293.006 679.109 289.572 665.371 289.572 L407.779 289.572 C395.125 289.572 385.002 293.187 377.41 300.418 369.818 307.648 366.021 317.229 366.021 329.16 366.021 341.452 369.908 351.213 377.681 358.444 385.454 365.674 395.848 369.29 408.863 369.29 L507.562 369.29 587.822 360.613 503.766 439.246 303.657 639.355 C294.98 648.032 290.642 657.612 290.642 668.097 290.642 680.389 294.257 690.24 301.488 697.652 308.719 705.063 318.299 708.769 330.23 708.769 337.099 708.769 343.064 707.594 348.126 705.244 353.187 702.894 357.525 699.911 361.141 696.296 L561.249 496.188 638.798 413.216 630.664 497.272 630.664 591.09 C630.664 604.105 634.369 614.409 641.781 622.001 649.192 629.593 658.863 633.389 670.794 633.389 Z" fill="#000000" fill-opacity="1" stroke="none"/>
</svg>
