<?xml version="1.0" encoding="UTF-8"?>
<svg width="500px" height="500px" viewBox="0 0 500 500" xmlns="http://www.w3.org/2000/svg" xmlns:xlink="http://www.w3.org/1999/xlink" version="1.1">
 <!-- Generated by Pixelmator Pro 2.0.7 -->
 <path id="􀋭" d="M251.076 407.755 C275.713 407.755 298.978 404.797 320.871 398.881 342.764 392.966 362.98 385.16 381.519 375.464 400.058 365.768 416.675 355.065 431.372 343.356 446.069 331.648 458.601 319.908 468.968 308.139 479.335 296.369 487.263 285.453 492.752 275.391 498.24 265.329 500.984 257.187 500.984 250.967 500.984 244.747 498.24 236.606 492.752 226.543 487.263 216.481 479.335 205.565 468.968 193.796 458.601 182.026 446.069 170.287 431.372 158.578 416.675 146.869 400.027 136.167 381.427 126.47 362.827 116.774 342.581 108.968 320.688 103.053 298.795 97.137 275.591 94.18 251.076 94.18 226.805 94.18 203.784 97.137 182.013 103.053 160.241 108.968 140.056 116.774 121.456 126.47 102.856 136.167 86.147 146.869 71.328 158.578 56.509 170.287 43.856 182.026 33.366 193.796 22.877 205.565 14.858 216.481 9.309 226.543 3.759 236.606 0.984 244.747 0.984 250.967 0.984 257.187 3.759 265.329 9.309 275.391 14.858 285.453 22.877 296.369 33.366 308.139 43.856 319.908 56.479 331.648 71.237 343.356 85.995 355.065 102.674 365.768 121.273 375.464 139.873 385.16 160.059 392.966 181.83 398.881 203.601 404.797 226.682 407.755 251.076 407.755 Z M251.076 378.849 C230.951 378.849 211.62 376.348 193.081 371.348 174.542 366.347 157.162 359.73 140.94 351.498 124.719 343.265 110.022 334.27 96.85 324.513 83.677 314.755 72.304 305.09 62.73 295.515 53.155 285.941 45.807 277.19 40.684 269.262 35.562 261.334 33 255.236 33 250.967 33 247.308 35.562 241.698 40.684 234.136 45.807 226.574 53.155 217.945 62.73 208.248 72.304 198.552 83.677 188.764 96.85 178.885 110.022 169.006 124.719 159.828 140.94 151.351 157.162 142.875 174.542 136.044 193.081 130.861 211.62 125.678 230.951 123.086 251.076 123.086 271.078 123.086 290.318 125.678 308.796 130.861 327.274 136.044 344.624 142.875 360.845 151.351 377.067 159.828 391.794 169.006 405.028 178.885 418.261 188.764 429.634 198.552 439.148 208.248 448.661 217.945 456.009 226.574 461.193 234.136 466.376 241.698 468.968 247.308 468.968 250.967 468.968 255.236 466.376 261.334 461.193 269.262 456.009 277.19 448.661 285.941 439.148 295.515 429.634 305.09 418.261 314.755 405.028 324.513 391.794 334.27 377.067 343.265 360.845 351.498 344.624 359.73 327.274 366.347 308.796 371.348 290.318 376.348 271.078 378.849 251.076 378.849 Z M251.076 353.419 C265.224 353.419 278.518 350.735 290.959 345.369 303.399 340.002 314.315 332.593 323.707 323.141 333.098 313.688 340.447 302.772 345.752 290.393 351.058 278.013 353.71 264.871 353.71 250.967 353.71 236.697 351.058 223.342 345.752 210.901 340.447 198.461 333.098 187.575 323.707 178.245 314.315 168.914 303.399 161.627 290.959 156.382 278.518 151.138 265.224 148.516 251.076 148.516 236.684 148.516 223.268 151.138 210.827 156.382 198.386 161.627 187.471 168.914 178.079 178.245 168.688 187.575 161.339 198.461 156.034 210.901 150.728 223.342 148.075 236.697 148.075 250.967 148.197 264.871 150.911 278.013 156.217 290.393 161.522 302.772 168.871 313.688 178.262 323.141 187.654 332.593 198.539 340.002 210.919 345.369 223.298 350.735 236.684 353.419 251.076 353.419 Z M251.076 284.996 C241.563 284.996 233.452 281.642 226.744 274.933 220.035 268.225 216.681 260.237 216.681 250.967 216.681 241.576 220.035 233.556 226.744 226.909 233.452 220.262 241.563 216.939 251.076 216.939 260.467 216.939 268.517 220.262 275.225 226.909 281.933 233.556 285.287 241.576 285.287 250.967 285.287 260.237 281.933 268.225 275.225 274.933 268.517 281.642 260.467 284.996 251.076 284.996 Z" fill="#000000" fill-opacity="1" stroke="none"/>
</svg>
