<?xml version="1.0" encoding="UTF-8"?>
<svg width="1000px" height="1000px" viewBox="0 0 1000 1000" xmlns="http://www.w3.org/2000/svg" xmlns:xlink="http://www.w3.org/1999/xlink" version="1.1">
 <!-- Generated by Pixelmator Pro 2.0.6 -->
 <path id="􀎽" d="M958.887 325.526 C986.466 325.526 1000.256 311.567 1000.256 283.647 L1000.256 158.519 C1000.256 106.084 986.892 66.674 960.164 40.286 933.436 13.899 893.344 0.705 839.888 0.705 L714.76 0.705 C687.181 0.705 673.392 14.324 673.392 41.563 673.392 54.842 676.967 65.056 684.117 72.207 691.267 79.357 701.481 82.932 714.76 82.932 L838.356 82.932 C863.552 82.932 883.129 89.656 897.089 103.105 911.049 116.555 918.029 136.558 918.029 163.116 L918.029 283.647 C918.029 311.567 931.648 325.526 958.887 325.526 Z M160.624 1000.194 L285.241 1000.194 C313.16 1000.194 327.12 986.575 327.12 959.336 327.12 946.057 323.545 935.843 316.395 928.693 309.245 921.543 298.86 917.968 285.241 917.968 L161.645 917.968 C136.109 917.968 116.531 911.243 102.912 897.794 89.292 884.345 82.483 864.342 82.483 837.784 L82.483 717.253 C82.483 689.333 68.693 675.373 41.114 675.373 13.875 675.373 0.256 689.333 0.256 717.253 L0.256 841.87 C0.256 894.645 13.62 934.226 40.348 960.613 67.076 987.001 107.167 1000.194 160.624 1000.194 Z M714.76 1000.194 L839.888 1000.194 C893.344 1000.194 933.436 987.001 960.164 960.613 986.892 934.226 1000.256 894.645 1000.256 841.87 L1000.256 717.253 C1000.256 689.333 986.466 675.373 958.887 675.373 945.608 675.373 935.479 678.948 928.499 686.098 921.519 693.249 918.029 703.633 918.029 717.253 L918.029 837.784 C918.029 864.342 911.049 884.345 897.089 897.794 883.129 911.243 863.552 917.968 838.356 917.968 L714.76 917.968 C687.181 917.968 673.392 931.757 673.392 959.336 673.392 986.575 687.181 1000.194 714.76 1000.194 Z M41.114 325.526 C54.733 325.526 65.033 321.866 72.013 314.546 78.993 307.225 82.483 296.926 82.483 283.647 L82.483 163.116 C82.483 136.558 89.292 116.555 102.912 103.105 116.531 89.656 136.109 82.932 161.645 82.932 L285.241 82.932 C313.16 82.932 327.12 69.142 327.12 41.563 327.12 14.324 313.16 0.705 285.241 0.705 L160.624 0.705 C107.167 0.705 67.076 13.899 40.348 40.286 13.62 66.674 0.256 106.084 0.256 158.519 L0.256 283.647 C0.256 311.567 13.875 325.526 41.114 325.526 Z M497.191 758.111 C527.835 758.111 557.968 751.897 587.59 739.469 617.212 727.041 643.259 709.592 665.731 687.12 668.795 684.055 671.093 680.48 672.626 676.395 674.158 672.309 674.924 667.712 674.924 662.605 674.924 653.071 671.689 645.155 665.22 638.856 658.751 632.557 650.92 629.408 641.727 629.408 632.534 629.408 623.681 634.004 615.169 643.197 601.209 657.838 583.76 669.67 562.82 678.693 541.88 687.716 520.004 692.227 497.191 692.227 475.741 692.227 454.461 687.801 433.351 678.948 412.241 670.096 394.366 658.179 379.725 643.197 375.639 639.452 371.638 636.218 367.723 633.494 363.807 630.77 358.785 629.408 352.656 629.408 343.123 629.408 335.121 632.557 328.652 638.856 322.183 645.155 318.948 653.071 318.948 662.605 318.948 667.031 319.8 671.202 321.502 675.118 323.204 679.033 325.758 682.864 329.163 686.609 349.592 710.103 374.958 727.893 405.261 739.98 435.564 752.067 466.207 758.111 497.191 758.111 Z M305.67 465.976 C317.587 465.976 327.375 462.145 335.036 454.484 342.697 446.824 346.528 436.864 346.528 424.607 L346.528 355.148 C346.528 342.891 342.697 332.932 335.036 325.271 327.375 317.61 317.587 313.78 305.67 313.78 293.753 313.78 283.964 317.61 276.303 325.271 268.642 332.932 264.812 342.891 264.812 355.148 L264.812 424.607 C264.812 436.864 268.642 446.824 276.303 454.484 283.964 462.145 293.753 465.976 305.67 465.976 Z M458.887 586.507 C459.568 586.507 460.334 586.507 461.185 586.507 462.037 586.507 462.803 586.507 463.484 586.507 489.361 586.507 509.108 579.697 522.728 566.078 536.347 552.458 543.157 532.711 543.157 506.834 L543.157 345.955 C543.157 336.081 540.178 328.165 534.219 322.207 528.261 316.248 520.174 313.269 509.96 313.269 500.086 313.269 492.084 316.248 485.956 322.207 479.827 328.165 476.763 336.081 476.763 345.955 L476.763 511.43 C476.763 514.154 476.082 516.112 474.72 517.304 473.358 518.495 471.485 519.091 469.102 519.091 L451.226 519.091 C442.033 519.091 434.287 522.241 427.988 528.54 421.689 534.839 418.54 542.584 418.54 551.778 418.54 562.673 422.115 571.185 429.265 577.314 436.415 583.443 446.289 586.507 458.887 586.507 Z M692.799 465.976 C704.716 465.976 714.505 462.145 722.166 454.484 729.827 446.824 733.657 436.864 733.657 424.607 L733.657 355.148 C733.657 342.891 729.827 332.932 722.166 325.271 714.505 317.61 704.716 313.78 692.799 313.78 680.882 313.78 671.093 317.61 663.433 325.271 655.772 332.932 651.941 342.891 651.941 355.148 L651.941 424.607 C651.941 436.864 655.772 446.824 663.433 454.484 671.093 462.145 680.882 465.976 692.799 465.976 Z" fill="#000000" fill-opacity="1" stroke="none"/>
</svg>
