<?xml version="1.0" encoding="UTF-8"?>
<svg width="1000px" height="1000px" viewBox="0 0 1000 1000" xmlns="http://www.w3.org/2000/svg" xmlns:xlink="http://www.w3.org/1999/xlink" version="1.1">
 <!-- Generated by Pixelmator Pro 2.0.6 -->
 <path id="􀥴" d="M276.504 185.143 C254.052 185.143 235.493 192.929 220.827 208.5 206.161 224.071 198.828 243.807 198.828 267.707 198.828 285.451 202.993 302.471 211.322 318.766 219.65 335.062 230.423 350.542 243.641 365.208 256.859 379.874 270.981 393.363 286.009 405.675 301.037 417.988 315.251 428.851 328.649 438.266 331.184 439.715 333.719 441.073 336.254 442.34 338.789 443.608 340.78 444.242 342.229 444.242 344.039 444.242 346.122 443.608 348.475 442.34 350.829 441.073 353.273 439.715 355.808 438.266 369.569 429.576 383.963 419.165 398.991 407.033 414.02 394.902 428.052 381.413 441.088 366.566 454.125 351.719 464.716 335.967 472.864 319.309 481.012 302.652 485.086 285.451 485.086 267.707 485.086 243.807 477.663 224.071 462.815 208.5 447.968 192.929 428.957 185.143 405.781 185.143 392.02 185.143 379.527 189.036 368.302 196.822 357.076 204.607 348.204 214.656 341.686 226.968 335.167 214.656 326.386 204.607 315.341 196.822 304.296 189.036 291.351 185.143 276.504 185.143 Z M233.049 788.076 L624.684 788.076 C634.461 788.076 642.518 784.908 648.856 778.571 655.193 772.234 658.361 764.357 658.361 754.942 658.361 745.527 655.193 737.56 648.856 731.042 642.518 724.524 634.461 721.265 624.684 721.265 L233.049 721.265 C222.91 721.265 214.671 724.524 208.334 731.042 201.997 737.56 198.828 745.527 198.828 754.942 198.828 764.357 201.997 772.234 208.334 778.571 214.671 784.908 222.91 788.076 233.049 788.076 Z M233.049 602.308 L768.084 602.308 C777.5 602.308 785.376 599.049 791.713 592.53 798.05 586.012 801.218 578.046 801.218 568.63 801.218 559.215 798.05 551.339 791.713 545.002 785.376 538.665 777.5 535.496 768.084 535.496 L233.049 535.496 C222.91 535.496 214.671 538.665 208.334 545.002 201.997 551.339 198.828 559.215 198.828 568.63 198.828 578.046 201.997 586.012 208.334 592.53 214.671 599.049 222.91 602.308 233.049 602.308 Z M170.583 1000.461 L829.464 1000.461 C886.317 1000.461 928.957 986.429 957.384 958.364 985.81 930.3 1000.023 888.203 1000.023 832.074 L1000.023 168.848 C1000.023 112.718 985.81 70.622 957.384 42.558 928.957 14.493 886.317 0.461 829.464 0.461 L170.583 0.461 C113.729 0.461 71.09 14.493 42.663 42.558 14.237 70.622 0.023 112.718 0.023 168.848 L0.023 832.074 C0.023 888.203 14.237 930.3 42.663 958.364 71.09 986.429 113.729 1000.461 170.583 1000.461 Z M171.669 913.008 C144.51 913.008 123.688 905.857 109.203 891.553 94.718 877.249 87.476 855.974 87.476 827.729 L87.476 173.193 C87.476 144.948 94.718 123.673 109.203 109.369 123.688 95.065 144.51 87.913 171.669 87.913 L828.378 87.913 C855.175 87.913 875.906 95.065 890.572 109.369 905.238 123.673 912.571 144.948 912.571 173.193 L912.571 827.729 C912.571 855.974 905.238 877.249 890.572 891.553 875.906 905.857 855.175 913.008 828.378 913.008 Z" fill="#000000" fill-opacity="1" stroke="none"/>
</svg>
