<?xml version="1.0" encoding="UTF-8"?>
<svg width="1000px" height="1000px" viewBox="0 0 1000 1000" xmlns="http://www.w3.org/2000/svg" xmlns:xlink="http://www.w3.org/1999/xlink" version="1.1">
 <!-- Generated by Pixelmator Pro 2.0.6 -->
 <path id="􀟞" d="M324.964 1000.215 L675.46 1000.215 C714.194 1000.215 745.291 988.957 768.753 966.441 792.214 943.924 803.944 914.244 803.944 877.4 L803.944 123.03 C803.944 86.186 792.214 56.505 768.753 33.989 745.291 11.473 714.194 0.215 675.46 0.215 L324.964 0.215 C286.545 0.215 255.526 11.473 231.908 33.989 208.29 56.505 196.48 86.186 196.48 123.03 L196.48 877.4 C196.48 914.244 208.29 943.924 231.908 966.441 255.526 988.957 286.545 1000.215 324.964 1000.215 Z M334.884 924.164 C314.729 924.164 299.299 919.047 288.592 908.812 277.885 898.577 272.531 884.013 272.531 865.118 L272.531 135.312 C272.531 116.417 277.885 101.852 288.592 91.618 299.299 81.384 314.729 76.266 334.884 76.266 L666.013 76.266 C685.852 76.266 701.125 81.384 711.832 91.618 722.54 101.852 727.893 116.417 727.893 135.312 L727.893 865.118 C727.893 884.013 722.54 898.577 711.832 908.812 701.125 919.047 685.852 924.164 666.013 924.164 Z M357.557 859.922 L401.96 859.922 C414.241 859.922 420.382 854.254 420.382 842.917 L420.382 797.097 C420.382 785.76 414.241 780.092 401.96 780.092 L357.557 780.092 C345.906 780.092 340.08 785.76 340.08 797.097 L340.08 842.917 C340.08 854.254 345.906 859.922 357.557 859.922 Z M477.066 859.922 L521.941 859.922 C534.223 859.922 540.363 854.254 540.363 842.917 L540.363 797.097 C540.363 785.76 534.223 780.092 521.941 780.092 L477.066 780.092 C465.729 780.092 460.061 785.76 460.061 797.097 L460.061 842.917 C460.061 854.254 465.729 859.922 477.066 859.922 Z M597.047 859.922 L641.45 859.922 C653.731 859.922 659.872 854.254 659.872 842.917 L659.872 797.097 C659.872 785.76 653.731 780.092 641.45 780.092 L597.047 780.092 C585.711 780.092 580.042 785.76 580.042 797.097 L580.042 842.917 C580.042 854.254 585.711 859.922 597.047 859.922 Z M357.557 480.139 L401.96 480.139 C414.241 480.139 420.382 474.314 420.382 462.662 L420.382 417.315 C420.382 405.663 414.241 399.837 401.96 399.837 L357.557 399.837 C345.906 399.837 340.08 405.663 340.08 417.315 L340.08 462.662 C340.08 474.314 345.906 480.139 357.557 480.139 Z M477.066 480.139 L521.941 480.139 C534.223 480.139 540.363 474.314 540.363 462.662 L540.363 417.315 C540.363 405.663 534.223 399.837 521.941 399.837 L477.066 399.837 C465.729 399.837 460.061 405.663 460.061 417.315 L460.061 462.662 C460.061 474.314 465.729 480.139 477.066 480.139 Z M357.557 351.656 L401.96 351.656 C414.241 351.656 420.382 345.987 420.382 334.65 L420.382 288.831 C420.382 277.179 414.241 271.353 401.96 271.353 L357.557 271.353 C345.906 271.353 340.08 277.179 340.08 288.831 L340.08 334.65 C340.08 345.987 345.906 351.656 357.557 351.656 Z M477.066 351.656 L521.941 351.656 C534.223 351.656 540.363 345.987 540.363 334.65 L540.363 288.831 C540.363 277.179 534.223 271.353 521.941 271.353 L477.066 271.353 C465.729 271.353 460.061 277.179 460.061 288.831 L460.061 334.65 C460.061 345.987 465.729 351.656 477.066 351.656 Z M597.047 351.656 L641.45 351.656 C653.731 351.656 659.872 345.987 659.872 334.65 L659.872 288.831 C659.872 277.179 653.731 271.353 641.45 271.353 L597.047 271.353 C585.711 271.353 580.042 277.179 580.042 288.831 L580.042 334.65 C580.042 345.987 585.711 351.656 597.047 351.656 Z M357.557 223.644 L401.96 223.644 C414.241 223.644 420.382 217.819 420.382 206.167 L420.382 160.819 C420.382 149.168 414.241 143.342 401.96 143.342 L357.557 143.342 C345.906 143.342 340.08 149.168 340.08 160.819 L340.08 206.167 C340.08 217.819 345.906 223.644 357.557 223.644 Z M477.066 223.644 L521.941 223.644 C534.223 223.644 540.363 217.819 540.363 206.167 L540.363 160.819 C540.363 149.168 534.223 143.342 521.941 143.342 L477.066 143.342 C465.729 143.342 460.061 149.168 460.061 160.819 L460.061 206.167 C460.061 217.819 465.729 223.644 477.066 223.644 Z M597.047 223.644 L641.45 223.644 C653.731 223.644 659.872 217.819 659.872 206.167 L659.872 160.819 C659.872 149.168 653.731 143.342 641.45 143.342 L597.047 143.342 C585.711 143.342 580.042 149.168 580.042 160.819 L580.042 206.167 C580.042 217.819 585.711 223.644 597.047 223.644 Z" fill="#000000" fill-opacity="1" stroke="none"/>
</svg>
