<?xml version="1.0" encoding="UTF-8"?>
<svg width="1000px" height="1000px" viewBox="0 0 1000 1000" xmlns="http://www.w3.org/2000/svg" xmlns:xlink="http://www.w3.org/1999/xlink" version="1.1">
 <!-- Generated by Pixelmator Pro 2.0.6 -->
 <path id="􀥳" d="M14.237 103.222 C9.296 126.998 5.822 152.781 3.815 180.572 1.808 208.363 0.805 232.602 0.805 253.291 0.805 340.06 13.079 418.645 37.627 489.048 62.176 559.452 97.377 619.973 143.232 670.614 189.087 721.255 243.972 760.239 307.891 787.566 371.81 814.894 443.139 828.557 521.879 828.557 562.33 828.557 598.689 824.389 630.958 816.052 663.226 807.714 691.556 797.061 715.951 784.092 740.345 771.123 761.11 757.305 778.248 742.638 795.386 727.971 809.126 714.23 819.471 701.415 829.815 688.601 836.994 678.334 841.008 670.614 L783.111 669.224 C803.182 690.222 820.088 712.068 833.829 734.764 847.57 757.46 859.613 782.008 869.957 808.409 880.301 834.81 890.568 863.913 900.758 895.718 904.464 906.834 909.79 914.631 916.738 919.109 923.686 923.586 931.174 925.825 939.202 925.825 956.185 925.825 970.698 919.186 982.741 905.908 994.784 892.63 1000.805 875.802 1000.805 855.422 1000.805 839.365 995.941 821.147 986.215 800.767 976.488 780.387 964.137 759.621 949.16 738.469 934.184 717.318 918.745 697.71 902.843 679.646 886.94 661.582 873.122 646.838 861.388 635.412 827.422 604.225 791.217 580.14 752.773 563.157 714.329 546.174 675.268 533.205 635.589 524.25 595.91 515.295 557.158 507.576 519.332 501.091 481.505 494.607 446.15 486.347 413.264 476.311 380.378 466.276 351.585 451.686 326.882 432.541 302.179 413.396 283.189 386.686 269.911 352.411 266.823 344.383 268.444 338.13 274.774 333.652 281.104 329.175 288.129 330.796 295.849 338.516 322.404 365.071 350.195 384.602 379.221 397.108 408.247 409.614 438.198 418.259 469.077 423.046 499.956 427.832 531.451 431.46 563.565 433.93 595.679 436.401 628.255 440.724 661.296 446.899 694.336 453.075 727.607 463.728 761.11 478.859 794.614 493.989 828.039 516.993 861.388 547.872 869.108 554.665 876.905 556.75 884.779 554.125 892.653 551.5 897.207 546.019 898.443 537.682 899.678 531.198 900.604 522.938 901.222 512.902 901.839 502.866 902.148 492.754 902.148 482.564 902.148 407.22 885.937 344.769 853.514 295.209 821.092 245.648 776.395 208.672 719.424 184.278 662.453 159.884 597.069 147.687 523.269 147.687 498.566 147.687 472.937 149.153 446.381 152.087 419.826 155.02 393.579 158.031 367.641 161.119 341.703 164.207 317.309 165.751 294.459 165.751 269.756 165.751 244.282 164.284 218.035 161.35 191.788 158.417 166.005 151.469 140.684 140.507 115.364 129.546 91.588 112.177 69.355 88.4 59.783 78.519 49.13 74.582 37.396 76.589 25.662 78.596 17.942 87.474 14.237 103.222 Z" fill="#000000" fill-opacity="1" stroke="none"/>
</svg>
