<?xml version="1.0" encoding="UTF-8"?>
<svg width="2000px" height="2000px" viewBox="0 0 2000 2000" xmlns="http://www.w3.org/2000/svg" xmlns:xlink="http://www.w3.org/1999/xlink" version="1.1">
 <!-- Generated by Pixelmator Pro 2.0.5 -->
 <path id="ô€™" d="M343.105 1953.054 L1657.625 1953.054 C1744.706 1953.054 1810.015 1931.561 1853.555 1888.576 1897.095 1845.59 1918.865 1781.113 1918.865 1695.142 L1918.865 867.327 C1918.865 837.376 1917.063 811.03 1913.457 788.289 1909.852 765.549 1904.028 745.304 1895.986 727.555 1887.943 709.806 1877.266 693.306 1863.955 678.053 1850.643 662.8 1834.281 647.408 1814.868 631.878 L1171.752 126.038 C1151.784 109.953 1132.649 95.948 1114.346 84.023 1096.042 72.098 1077.6 62.946 1059.019 56.568 1040.438 50.189 1020.887 47 1000.365 47 979.843 47 960.292 50.189 941.711 56.568 923.13 62.946 904.688 72.098 886.385 84.023 868.081 95.948 848.946 109.953 828.978 126.038 L185.862 631.878 C166.449 647.408 150.087 662.8 136.775 678.053 123.464 693.306 112.787 709.806 104.744 727.555 96.702 745.304 90.878 765.549 87.273 788.289 83.668 811.03 81.865 837.376 81.865 867.327 L81.865 1695.142 C81.865 1781.113 103.635 1845.59 147.175 1888.576 190.715 1931.561 256.025 1953.054 343.105 1953.054 Z M699.19 1305.778 C710.838 1317.425 725.259 1323.249 742.453 1323.249 759.647 1323.249 774.068 1317.425 785.716 1305.778 797.363 1294.13 803.187 1279.709 803.187 1262.515 803.187 1245.321 797.641 1231.177 786.548 1220.084 L266.564 705.924 C255.47 694.831 241.327 689.146 224.133 688.868 206.939 688.591 192.241 694.276 180.038 705.924 168.39 718.126 162.567 732.824 162.567 750.019 162.567 767.213 168.39 781.356 180.038 792.449 Z M175.878 1883.168 C187.526 1894.816 202.085 1900.501 219.557 1900.224 237.029 1899.946 251.588 1893.984 263.236 1882.336 L901.36 1253.363 C919.109 1235.06 936.164 1221.887 952.527 1213.844 968.889 1205.802 985.39 1201.781 1002.029 1201.781 1018.114 1201.781 1034.337 1205.802 1050.7 1213.844 1067.062 1221.887 1084.395 1235.06 1102.698 1253.363 L1740.823 1882.336 C1751.916 1893.984 1766.059 1899.807 1783.253 1899.807 1800.448 1899.807 1814.868 1893.984 1826.516 1882.336 1838.164 1870.134 1844.126 1855.436 1844.403 1838.241 1844.681 1821.047 1838.996 1806.904 1827.348 1795.811 L1175.08 1155.19 C1145.683 1126.348 1116.842 1105.549 1088.554 1092.792 1060.267 1080.035 1031.426 1073.657 1002.029 1073.657 972.633 1073.657 943.652 1080.035 915.088 1092.792 886.523 1105.549 857.82 1126.348 828.978 1155.19 L175.878 1795.811 C164.231 1806.904 158.407 1821.324 158.407 1839.073 158.407 1856.822 164.231 1871.52 175.878 1883.168 Z M338.113 1825.762 C296.514 1825.762 264.622 1814.808 242.436 1792.899 220.25 1770.99 209.157 1738.405 209.157 1695.142 L209.157 844.864 C209.157 824.896 211.099 807.98 214.981 794.113 218.864 780.247 224.826 767.906 232.869 757.09 240.911 746.275 251.588 735.598 264.9 725.059 L900.528 229.202 C921.05 213.672 938.244 201.609 952.111 193.012 965.977 184.414 982.062 180.116 1000.365 180.116 1018.669 180.116 1034.753 184.414 1048.62 193.012 1062.486 201.609 1079.68 213.672 1100.202 229.202 L1735.831 725.059 C1749.142 735.598 1759.819 746.275 1767.862 757.09 1775.904 767.906 1781.867 780.247 1785.749 794.113 1789.632 807.98 1791.573 824.896 1791.573 844.864 L1791.573 1695.142 C1791.573 1738.405 1780.342 1770.99 1757.878 1792.899 1735.415 1814.808 1703.661 1825.762 1662.617 1825.762 Z M1217.51 1306.61 C1229.158 1318.257 1243.579 1323.942 1260.773 1323.665 1277.967 1323.388 1292.388 1317.425 1304.036 1305.778 L1823.188 792.449 C1834.836 781.356 1840.66 767.213 1840.66 750.019 1840.66 732.824 1834.558 718.404 1822.356 706.756 1810.708 695.108 1796.426 689.284 1779.509 689.284 1762.593 689.284 1748.31 694.831 1736.663 705.924 L1217.51 1220.084 C1205.863 1231.177 1200.039 1245.321 1200.039 1262.515 1200.039 1279.709 1205.863 1294.407 1217.51 1306.61 Z" fill="#ffffff" fill-opacity="1" stroke="none"/>
</svg>
