<?xml version="1.0" encoding="UTF-8"?>
<svg width="2000px" height="2000px" viewBox="0 0 2000 2000" xmlns="http://www.w3.org/2000/svg" xmlns:xlink="http://www.w3.org/1999/xlink" version="1.1">
 <!-- Generated by Pixelmator Pro 2.0.5 -->
 <path id="ô€–" d="M1002.579 1105.298 C1021.299 1105.298 1039.566 1100.769 1057.38 1091.711 1075.194 1082.653 1094.065 1068.16 1113.992 1048.231 L1902.036 268.317 C1868.219 236.311 1806.324 220.309 1716.347 220.309 L258.014 220.309 C181.323 220.309 128.183 235.104 98.594 264.694 L891.166 1048.231 C910.49 1068.16 929.21 1082.653 947.326 1091.711 965.442 1100.769 983.859 1105.298 1002.579 1105.298 Z M23.413 1635.205 L663.811 1002.034 21.601 368.864 C7.712 394.831 0.768 438.612 0.768 500.208 L0.768 1500.238 C0.768 1564.249 8.316 1609.238 23.413 1635.205 Z M285.188 1781.043 L1743.521 1781.043 C1819.005 1781.043 1871.842 1766.55 1902.036 1737.563 L1248.956 1090.805 1189.173 1151.495 C1128.183 1209.469 1065.985 1238.454 1002.579 1238.454 938.569 1238.454 876.372 1209.469 815.985 1151.495 L755.297 1090.805 104.028 1736.657 C138.449 1766.248 198.835 1781.043 285.188 1781.043 Z M1979.028 1634.299 C1993.521 1607.729 2000.768 1563.042 2000.768 1500.238 L2000.768 500.208 C2000.768 439.216 1994.125 396.34 1980.84 371.581 L1340.442 1002.034 Z" fill="#ffffff" fill-opacity="1" stroke="none"/>
</svg>
