<?xml version="1.0" encoding="UTF-8"?>
<svg width="2000px" height="2000px" viewBox="0 0 2000 2000" xmlns="http://www.w3.org/2000/svg" xmlns:xlink="http://www.w3.org/1999/xlink" version="1.1">
 <!-- Generated by Pixelmator Pro 2.0.5 -->
 <path id="ô€™" d="M310.433 2000.66 L1689.743 2000.66 C1781.115 2000.66 1849.644 1978.108 1895.33 1933.004 1941.016 1887.9 1963.859 1820.245 1963.859 1730.036 L1963.859 861.42 C1963.859 829.992 1961.968 802.348 1958.185 778.486 1954.402 754.625 1948.291 733.382 1939.852 714.759 1931.413 696.135 1920.21 678.821 1906.242 662.816 1892.275 646.812 1875.106 630.662 1854.736 614.366 L1179.922 83.593 C1158.97 66.716 1138.892 52.021 1119.686 39.508 1100.48 26.995 1081.13 17.392 1061.633 10.699 1042.136 4.006 1021.621 0.66 1000.088 0.66 978.554 0.66 958.039 4.006 938.542 10.699 919.046 17.392 899.695 26.995 880.489 39.508 861.284 52.021 841.205 66.716 820.254 83.593 L145.439 614.366 C125.069 630.662 107.901 646.812 93.933 662.816 79.965 678.821 68.762 696.135 60.323 714.759 51.885 733.382 45.774 754.625 41.991 778.486 38.208 802.348 36.316 829.992 36.316 861.42 L36.316 1730.036 C36.316 1820.245 59.159 1887.9 104.845 1933.004 150.532 1978.108 219.06 2000.66 310.433 2000.66 Z M684.068 1321.481 C696.29 1333.703 711.422 1339.813 729.464 1339.813 747.505 1339.813 762.637 1333.703 774.859 1321.481 787.08 1309.259 793.191 1294.127 793.191 1276.086 793.191 1258.044 787.371 1243.203 775.732 1231.564 L230.118 692.061 C218.478 680.422 203.638 674.456 185.596 674.165 167.554 673.874 152.132 679.84 139.328 692.061 127.106 704.865 120.996 720.288 120.996 738.329 120.996 756.371 127.106 771.212 139.328 782.851 Z M134.963 1927.33 C147.185 1939.552 162.462 1945.517 180.795 1945.226 199.127 1944.935 214.404 1938.679 226.626 1926.457 L896.203 1266.483 C914.827 1247.277 932.723 1233.455 949.891 1225.016 967.06 1216.578 984.374 1212.358 1001.834 1212.358 1018.711 1212.358 1035.734 1216.578 1052.903 1225.016 1070.072 1233.455 1088.259 1247.277 1107.464 1266.483 L1777.041 1926.457 C1788.681 1938.679 1803.521 1944.789 1821.563 1944.789 1839.605 1944.789 1854.736 1938.679 1866.958 1926.457 1879.18 1913.653 1885.436 1898.23 1885.727 1880.189 1886.018 1862.147 1880.053 1847.307 1867.831 1835.667 L1183.414 1163.471 C1152.568 1133.208 1122.305 1111.383 1092.624 1097.998 1062.942 1084.612 1032.679 1077.919 1001.834 1077.919 970.988 1077.919 940.58 1084.612 910.607 1097.998 880.635 1111.383 850.517 1133.208 820.254 1163.471 L134.963 1835.667 C122.741 1847.307 116.631 1862.438 116.631 1881.062 116.631 1899.685 122.741 1915.108 134.963 1927.33 Z M305.195 1867.094 C261.545 1867.094 228.081 1855.6 204.802 1832.611 181.522 1809.623 169.883 1775.431 169.883 1730.036 L169.883 837.849 C169.883 816.897 171.919 799.147 175.993 784.597 180.067 770.047 186.324 757.098 194.762 745.75 203.201 734.401 214.404 723.198 228.372 712.14 L895.33 191.843 C916.864 175.547 934.905 162.889 949.455 153.868 964.005 144.848 980.882 140.337 1000.088 140.337 1019.293 140.337 1036.171 144.848 1050.721 153.868 1065.27 162.889 1083.312 175.547 1104.845 191.843 L1771.803 712.14 C1785.771 723.198 1796.974 734.401 1805.413 745.75 1813.852 757.098 1820.108 770.047 1824.182 784.597 1828.256 799.147 1830.293 816.897 1830.293 837.849 L1830.293 1730.036 C1830.293 1775.431 1818.508 1809.623 1794.937 1832.611 1771.366 1855.6 1738.048 1867.094 1694.981 1867.094 Z M1227.936 1322.354 C1240.157 1334.576 1255.289 1340.541 1273.331 1340.25 1291.373 1339.959 1306.504 1333.703 1318.726 1321.481 L1863.466 782.851 C1875.688 771.212 1881.799 756.371 1881.799 738.329 1881.799 720.288 1875.397 705.156 1862.593 692.934 1850.371 680.713 1835.385 674.602 1817.635 674.602 1799.884 674.602 1784.898 680.422 1772.676 692.061 L1227.936 1231.564 C1215.714 1243.203 1209.603 1258.044 1209.603 1276.086 1209.603 1294.127 1215.714 1309.55 1227.936 1322.354 Z" fill="#ffffff" fill-opacity="1" stroke="none"/>
</svg>
