<?xml version="1.0" encoding="UTF-8"?>
<svg width="1000px" height="1000px" viewBox="0 0 1000 1000" xmlns="http://www.w3.org/2000/svg" xmlns:xlink="http://www.w3.org/1999/xlink" version="1.1">
 <!-- Generated by Pixelmator Pro 2.0.5 -->
 <path id="ô€ " d="M213.861 500.25 C213.861 470.911 203.434 445.902 182.578 425.223 161.723 404.544 136.272 394.205 106.226 394.205 86.785 394.205 69.022 398.977 52.939 408.521 36.855 418.065 24.042 430.879 14.498 446.962 4.954 463.046 0.182 480.808 0.182 500.25 0.182 520.045 4.954 537.895 14.498 553.802 24.042 569.709 36.855 582.434 52.939 591.978 69.022 601.522 86.785 606.294 106.226 606.294 126.375 606.294 144.491 601.522 160.574 591.978 176.658 582.434 189.559 569.709 199.28 553.802 209.001 537.895 213.861 520.045 213.861 500.25 Z M606.226 500.25 C606.226 470.911 595.887 445.902 575.208 425.223 554.529 404.544 529.521 394.205 500.182 394.205 480.74 394.205 462.978 398.977 446.894 408.521 430.811 418.065 418.086 430.879 408.718 446.962 399.351 463.046 394.667 480.808 394.667 500.25 394.667 520.045 399.351 537.895 408.718 553.802 418.086 569.709 430.811 582.434 446.894 591.978 462.978 601.522 480.74 606.294 500.182 606.294 519.977 606.294 537.827 601.522 553.734 591.978 569.641 582.434 582.366 569.709 591.91 553.802 601.454 537.895 606.226 520.045 606.226 500.25 Z M1000.182 500.25 C1000.182 470.911 989.842 445.902 969.164 425.223 948.485 404.544 923.476 394.205 894.137 394.205 874.342 394.205 856.315 398.977 840.054 408.521 823.794 418.065 810.892 430.879 801.348 446.962 791.804 463.046 787.032 480.808 787.032 500.25 787.032 520.045 791.804 537.895 801.348 553.802 810.892 569.709 823.794 582.434 840.054 591.978 856.315 601.522 874.342 606.294 894.137 606.294 913.579 606.294 931.341 601.522 947.424 591.978 963.508 582.434 976.322 569.709 985.866 553.802 995.41 537.895 1000.182 520.045 1000.182 500.25 Z" fill="#ffffff" fill-opacity="1" stroke="none"/>
</svg>
