<?xml version="1.0" encoding="UTF-8"?>
<svg width="1000px" height="1000px" viewBox="0 0 1000 1000" xmlns="http://www.w3.org/2000/svg" xmlns:xlink="http://www.w3.org/1999/xlink" version="1.1">
 <!-- Generated by Pixelmator Pro 2.0.6 -->
 <path id="􀉺" d="M501.252 591.389 C466.488 591.027 435.075 581.974 407.01 564.23 378.945 546.486 356.675 522.315 340.198 491.715 323.722 461.115 315.483 426.443 315.483 387.696 315.121 351.483 323.269 318.259 339.927 288.021 356.585 257.784 378.945 233.612 407.01 215.507 435.075 197.401 466.488 188.347 501.252 188.347 535.654 188.347 566.886 197.401 594.951 215.507 623.016 233.612 645.286 257.784 661.763 288.021 678.239 318.259 686.477 351.483 686.477 387.696 686.477 426.443 678.239 461.297 661.763 492.258 645.286 523.22 623.016 547.572 594.951 565.316 566.886 583.061 535.654 591.752 501.252 591.389 Z M135.147 919.472 C145.286 885.07 161.672 853.385 184.305 824.415 206.938 795.444 234.458 770.368 266.869 749.184 299.279 728 335.31 711.523 374.962 699.754 414.614 687.985 456.711 682.101 501.252 682.101 545.793 682.101 587.89 687.985 627.542 699.754 667.194 711.523 703.135 728 735.364 749.184 767.593 770.368 795.023 795.444 817.656 824.415 840.289 853.385 856.856 885.07 867.357 919.472 Z M171.54 1000.949 L830.421 1000.949 C887.275 1000.949 929.913 986.917 958.341 958.853 986.768 930.788 1000.98 888.692 1000.98 832.563 L1000.98 169.336 C1000.98 113.206 986.768 71.11 958.341 43.046 929.913 14.982 887.275 0.949 830.421 0.949 L171.54 0.949 C114.687 0.949 72.047 14.982 43.62 43.046 15.193 71.11 0.98 113.206 0.98 169.336 L0.98 832.563 C0.98 888.692 15.193 930.788 43.62 958.853 72.047 986.917 114.687 1000.949 171.54 1000.949 Z" fill="#000000" fill-opacity="1" stroke="none"/>
</svg>
