<?xml version="1.0" encoding="UTF-8"?>
<svg width="500px" height="500px" viewBox="0 0 500 500" xmlns="http://www.w3.org/2000/svg" xmlns:xlink="http://www.w3.org/1999/xlink" version="1.1">
 <!-- Generated by Pixelmator Pro 2.0.7 -->
 <g id="New-Group-copy">
  <path id="path1948" d="M247.916 0.401 C227.524 0.496 208.05 2.235 190.915 5.267 140.438 14.185 131.273 32.85 131.273 67.273 L131.273 112.734 250.557 112.734 250.557 127.888 131.273 127.888 86.507 127.888 C51.839 127.888 21.484 148.725 11.989 188.364 1.036 233.8 0.551 262.153 11.989 309.595 20.468 344.909 40.717 370.071 75.385 370.071 L116.397 370.071 116.397 315.573 C116.397 276.201 150.463 241.472 190.915 241.472 L310.061 241.472 C343.226 241.472 369.703 214.165 369.703 180.857 L369.703 67.273 C369.703 34.946 342.432 10.662 310.061 5.267 289.569 1.856 268.308 0.306 247.916 0.401 Z M183.408 36.965 C195.729 36.965 205.791 47.191 205.791 59.765 205.791 72.295 195.729 82.427 183.408 82.427 171.042 82.427 161.025 72.295 161.025 59.765 161.025 47.191 171.042 36.965 183.408 36.965 Z" fill="#000000" fill-opacity="1" stroke="none"/>
  <path id="path1950" d="M384.579 127.888 L384.579 180.857 C384.579 221.923 349.762 256.487 310.061 256.487 L190.915 256.487 C158.279 256.487 131.273 284.419 131.273 317.103 L131.273 430.687 C131.273 463.014 159.383 482.028 190.915 491.302 228.674 502.405 264.883 504.411 310.061 491.302 340.091 482.607 369.703 465.109 369.703 430.687 L369.703 385.225 250.557 385.225 250.557 370.071 369.703 370.071 429.345 370.071 C464.012 370.071 476.931 345.89 488.987 309.595 501.441 272.23 500.911 236.297 488.987 188.364 480.42 153.853 464.056 127.888 429.345 127.888 Z M317.568 415.533 C329.933 415.533 339.951 425.665 339.951 438.194 339.951 450.768 329.933 460.995 317.568 460.995 305.247 460.995 295.185 450.768 295.185 438.194 295.185 425.665 305.247 415.533 317.568 415.533 Z" fill="#000000" fill-opacity="1" stroke="none"/>
 </g>
</svg>
