<?xml version="1.0" encoding="UTF-8"?>
<svg width="500px" height="500px" viewBox="0 0 500 500" xmlns="http://www.w3.org/2000/svg" xmlns:xlink="http://www.w3.org/1999/xlink" version="1.1">
 <!-- Generated by Pixelmator Pro 2.0.7 -->
 <path id="􀊫" d="M204.754 361.206 C226.497 361.206 246.925 357.042 266.038 348.713 285.151 340.384 301.984 328.943 316.537 314.389 331.091 299.835 342.532 283.002 350.861 263.889 359.191 244.776 363.355 224.349 363.355 202.606 363.355 180.863 359.191 160.435 350.861 141.322 342.532 122.209 331.091 105.332 316.537 90.691 301.984 76.049 285.151 64.608 266.038 56.367 246.925 48.126 226.497 44.005 204.754 44.005 183.011 44.005 162.584 48.126 143.471 56.367 124.358 64.608 107.481 76.049 92.839 90.691 78.198 105.332 66.757 122.209 58.515 141.322 50.274 160.435 46.153 180.863 46.153 202.606 46.153 224.349 50.274 244.776 58.515 263.889 66.757 283.002 78.198 299.835 92.839 314.389 107.481 328.943 124.358 340.384 143.471 348.713 162.584 357.042 183.011 361.206 204.754 361.206 Z M204.754 404.868 C176.874 404.868 150.748 399.607 126.374 389.087 102.001 378.566 80.521 364.012 61.935 345.425 43.348 326.838 28.794 305.359 18.273 280.986 7.753 256.612 2.492 230.486 2.492 202.606 2.492 174.725 7.753 148.555 18.273 124.094 28.794 99.634 43.348 78.154 61.935 59.655 80.521 41.155 102.045 26.646 126.506 16.125 150.967 5.604 177.049 0.344 204.754 0.344 232.634 0.344 258.761 5.604 283.134 16.125 307.507 26.646 328.987 41.199 347.574 59.786 366.161 78.373 380.714 99.853 391.235 124.226 401.756 148.599 407.016 174.725 407.016 202.606 407.016 230.486 401.756 256.612 391.235 280.986 380.714 305.359 366.161 326.838 347.574 345.425 328.987 364.012 307.507 378.566 283.134 389.087 258.761 399.607 232.634 404.868 204.754 404.868 Z M468.563 500.344 C464.53 500.344 460.672 499.642 456.99 498.24 453.308 496.837 449.976 494.645 446.995 491.664 L307.332 351.738 350.467 310.181 489.341 449.318 C492.322 452.123 494.47 455.367 495.785 459.05 497.1 462.732 497.758 466.502 497.758 470.36 497.758 475.971 496.487 481.012 493.944 485.483 491.401 489.954 487.939 493.549 483.555 496.267 479.171 498.985 474.174 500.344 468.563 500.344 Z" fill="#000000" fill-opacity="1" stroke="none"/>
</svg>
