<?xml version="1.0" encoding="UTF-8"?>
<svg width="1000px" height="1000px" viewBox="0 0 1000 1000" xmlns="http://www.w3.org/2000/svg" xmlns:xlink="http://www.w3.org/1999/xlink" version="1.1">
 <!-- Generated by Pixelmator Pro 2.0.6 -->
 <path id="􀧘" d="M133.187 862.809 L866.86 862.809 C911.248 862.809 944.539 851.854 966.732 829.942 988.927 808.031 1000.023 775.165 1000.023 731.342 L1000.023 475.617 C1000.023 446.496 996.277 421.899 988.785 401.825 981.293 381.752 968.782 362.809 951.253 344.997 L810.456 199.535 C800.278 188.792 790.241 179.603 780.346 171.969 770.45 164.336 760.343 158.045 750.023 153.098 739.704 148.15 728.678 144.545 716.945 142.283 705.211 140.021 692.277 138.891 678.141 138.891 L321.906 138.891 C307.77 138.891 294.835 140.021 283.102 142.283 271.369 144.545 260.343 148.15 250.023 153.098 239.704 158.045 229.667 164.336 219.913 171.969 210.159 179.603 200.193 188.792 190.015 199.535 L48.794 344.997 C31.265 362.809 18.754 381.752 11.262 401.825 3.77 421.899 0.023 446.496 0.023 475.617 L0.023 731.342 C0.023 775.165 11.12 808.031 33.314 829.942 55.508 851.854 88.799 862.809 133.187 862.809 Z M134.035 794.531 C90.213 794.531 68.302 772.337 68.302 727.949 L68.302 525.235 C68.302 499.224 80.883 486.219 106.045 486.219 L894.001 486.219 C919.164 486.219 931.745 499.224 931.745 525.235 L931.745 727.949 C931.745 772.337 909.834 794.531 866.012 794.531 Z M100.108 424.726 C92.475 424.726 87.739 422.04 85.901 416.668 84.064 411.297 85.406 406.349 89.93 401.825 L245.571 237.279 C258.576 223.425 270.804 213.813 282.254 208.441 293.705 203.069 308.053 200.383 325.299 200.383 L674.748 200.383 C692.277 200.383 706.696 202.999 718.005 208.229 729.314 213.459 741.471 223.143 754.476 237.279 L910.541 401.825 C914.782 406.349 915.983 411.297 914.146 416.668 912.308 422.04 907.572 424.726 899.939 424.726 Z M172.203 753.819 C178.706 753.819 184.36 751.627 189.167 747.245 193.973 742.863 196.376 737.42 196.376 730.918 L196.376 550.256 C196.376 543.753 193.973 538.24 189.167 533.717 184.36 529.193 178.706 526.931 172.203 526.931 165.701 526.931 160.187 529.193 155.664 533.717 151.14 538.24 148.878 543.753 148.878 550.256 L148.878 730.918 C148.878 737.42 151.14 742.863 155.664 747.245 160.187 751.627 165.701 753.819 172.203 753.819 Z M271.864 753.819 C278.367 753.819 284.021 751.627 288.828 747.245 293.634 742.863 296.037 737.42 296.037 730.918 L296.037 550.256 C296.037 543.753 293.634 538.24 288.828 533.717 284.021 529.193 278.367 526.931 271.864 526.931 265.361 526.931 259.919 529.193 255.537 533.717 251.154 538.24 248.963 543.753 248.963 550.256 L248.963 730.918 C248.963 737.42 251.154 742.863 255.537 747.245 259.919 751.627 265.361 753.819 271.864 753.819 Z M371.525 753.819 C378.027 753.819 383.682 751.627 388.488 747.245 393.295 742.863 395.698 737.42 395.698 730.918 L395.698 550.256 C395.698 543.753 393.295 538.24 388.488 533.717 383.682 529.193 378.027 526.931 371.525 526.931 365.022 526.931 359.58 529.193 355.197 533.717 350.815 538.24 348.624 543.753 348.624 550.256 L348.624 730.918 C348.624 737.42 350.815 742.863 355.197 747.245 359.58 751.627 365.022 753.819 371.525 753.819 Z M500.872 756.363 C509.353 756.08 516.775 752.9 523.136 746.821 529.498 740.742 532.678 733.18 532.678 724.132 532.678 715.368 529.498 707.876 523.136 701.656 516.775 695.436 509.353 692.326 500.872 692.326 491.824 692.326 484.12 695.436 477.759 701.656 471.397 707.876 468.217 715.368 468.217 724.132 468.217 733.18 471.397 740.813 477.759 747.033 484.12 753.253 491.824 756.363 500.872 756.363 Z M500.872 672.394 C509.353 672.111 516.775 668.93 523.136 662.852 529.498 656.773 532.678 649.21 532.678 640.163 532.678 631.398 529.498 623.836 523.136 617.474 516.775 611.113 509.353 607.932 500.872 607.932 491.824 607.932 484.12 611.113 477.759 617.474 471.397 623.836 468.217 631.398 468.217 640.163 468.217 649.21 471.397 656.773 477.759 662.852 484.12 668.93 491.824 672.111 500.872 672.394 Z M500.872 588 C509.353 587.717 516.775 584.537 523.136 578.458 529.498 572.379 532.678 564.675 532.678 555.345 532.678 546.863 529.498 539.442 523.136 533.081 516.775 526.719 509.353 523.539 500.872 523.539 491.824 523.539 484.12 526.719 477.759 533.081 471.397 539.442 468.217 546.863 468.217 555.345 468.217 564.675 471.397 572.379 477.759 578.458 484.12 584.537 491.824 587.717 500.872 588 Z M624.281 753.819 C630.784 753.819 636.438 751.627 641.245 747.245 646.051 742.863 648.454 737.42 648.454 730.918 L648.454 550.256 C648.454 543.753 646.051 538.24 641.245 533.717 636.438 529.193 630.784 526.931 624.281 526.931 617.779 526.931 612.336 529.193 607.954 533.717 603.572 538.24 601.38 543.753 601.38 550.256 L601.38 730.918 C601.38 737.42 603.572 742.863 607.954 747.245 612.336 751.627 617.779 753.819 624.281 753.819 Z M723.942 753.819 C730.445 753.819 736.17 751.627 741.118 747.245 746.065 742.863 748.539 737.42 748.539 730.918 L748.539 550.256 C748.539 543.753 746.065 538.24 741.118 533.717 736.17 529.193 730.445 526.931 723.942 526.931 717.439 526.931 711.997 529.193 707.615 533.717 703.232 538.24 701.041 543.753 701.041 550.256 L701.041 730.918 C701.041 737.42 703.232 742.863 707.615 747.245 711.997 751.627 717.439 753.819 723.942 753.819 Z M824.027 753.819 C830.53 753.819 836.184 751.627 840.99 747.245 845.797 742.863 848.2 737.42 848.2 730.918 L848.2 550.256 C848.2 543.753 845.797 538.24 840.99 533.717 836.184 529.193 830.53 526.931 824.027 526.931 817.524 526.931 812.011 529.193 807.487 533.717 802.964 538.24 800.702 543.753 800.702 550.256 L800.702 730.918 C800.702 737.42 802.964 742.863 807.487 747.245 812.011 751.627 817.524 753.819 824.027 753.819 Z" fill="#000000" fill-opacity="1" stroke="none"/>
</svg>
