<?xml version="1.0" encoding="UTF-8"?>
<svg width="500px" height="500px" viewBox="0 0 500 500" xmlns="http://www.w3.org/2000/svg" xmlns:xlink="http://www.w3.org/1999/xlink" version="1.1">
 <!-- Generated by Pixelmator Pro 2.0.7 -->
 <path id="􀈂" d="M123.542 500.422 L377.64 500.422 C400.827 500.422 418.217 494.662 429.811 483.142 441.405 471.623 447.202 454.491 447.202 431.747 L447.202 210.657 C447.202 187.913 441.405 170.781 429.811 159.261 418.217 147.741 400.827 141.981 377.64 141.981 L315.832 141.981 315.832 177.648 376.976 177.648 C387.904 177.648 396.397 180.602 402.452 186.51 408.507 192.417 411.535 201.131 411.535 212.65 L411.535 429.753 C411.535 441.273 408.507 449.986 402.452 455.894 396.397 461.801 387.904 464.755 376.976 464.755 L123.985 464.755 C112.908 464.755 104.416 461.801 98.509 455.894 92.601 449.986 89.647 441.273 89.647 429.753 L89.647 212.65 C89.647 201.131 92.601 192.417 98.509 186.51 104.416 180.602 112.908 177.648 123.985 177.648 L185.35 177.648 185.35 141.981 123.542 141.981 C100.355 141.981 82.964 147.704 71.371 159.15 59.777 170.596 53.98 187.765 53.98 210.657 L53.98 431.747 C53.98 454.638 59.777 471.807 71.371 483.253 82.964 494.699 100.355 500.422 123.542 500.422 Z M250.702 326.962 C255.428 326.962 259.526 325.263 262.997 321.866 266.467 318.469 268.203 314.408 268.203 309.682 L268.203 82.168 266.874 48.938 281.716 64.666 315.389 100.555 C318.491 104.099 322.478 105.872 327.352 105.872 331.931 105.872 335.77 104.395 338.872 101.441 341.973 98.487 343.524 94.721 343.524 90.143 343.524 87.78 343.081 85.675 342.195 83.829 341.309 81.983 339.98 80.247 338.207 78.623 L263.329 6.403 C261.114 4.188 259.009 2.637 257.015 1.751 255.022 0.865 252.917 0.422 250.702 0.422 248.339 0.422 246.16 0.865 244.167 1.751 242.173 2.637 240.068 4.188 237.853 6.403 L162.975 78.623 C161.202 80.247 159.873 81.983 158.987 83.829 158.101 85.675 157.658 87.78 157.658 90.143 157.658 94.721 159.172 98.487 162.199 101.441 165.227 104.395 169.03 105.872 173.608 105.872 178.63 105.872 182.691 104.099 185.793 100.555 L219.466 64.666 234.308 48.938 232.979 82.168 232.979 309.682 C232.979 314.408 234.715 318.469 238.185 321.866 241.656 325.263 245.828 326.962 250.702 326.962 Z" fill="#000000" fill-opacity="1" stroke="none"/>
</svg>
