<?xml version="1.0" encoding="UTF-8"?>
<svg width="1000px" height="1000px" viewBox="0 0 1000 1000" xmlns="http://www.w3.org/2000/svg" xmlns:xlink="http://www.w3.org/1999/xlink" version="1.1">
 <!-- Generated by Pixelmator Pro 2.0.6 -->
 <path id="ЇАле" d="M271.661 878.045 L739.492 878.045 C787.592 878.045 823.667 866.173 847.718 842.429 871.768 818.685 883.793 783.223 883.793 736.041 L883.793 264.074 C883.793 216.893 871.768 181.353 847.718 157.456 823.667 133.559 787.592 121.611 739.492 121.611 L271.661 121.611 C223.56 121.611 187.485 133.483 163.435 157.227 139.384 180.97 127.359 216.586 127.359 264.074 L127.359 736.041 C127.359 783.223 139.384 818.685 163.435 842.429 187.485 866.173 223.56 878.045 271.661 878.045 Z M272.58 804.056 C249.602 804.056 231.986 798.005 219.73 785.903 207.475 773.802 201.348 755.802 201.348 731.905 L201.348 268.21 C201.348 244.313 207.475 226.237 219.73 213.982 231.986 201.728 249.602 195.6 272.58 195.6 L738.113 195.6 C760.784 195.6 778.401 201.728 790.962 213.982 803.524 226.237 809.804 244.313 809.804 268.21 L809.804 731.905 C809.804 755.802 803.524 773.802 790.962 785.903 778.401 798.005 760.784 804.056 738.113 804.056 Z M355.3 705.71 L655.852 705.71 C673.315 705.71 686.949 700.732 696.753 690.774 706.556 680.817 711.458 667.26 711.458 650.103 L711.458 350.011 C711.458 332.548 706.556 318.914 696.753 309.111 686.949 299.307 673.315 294.405 655.852 294.405 L355.3 294.405 C337.837 294.405 324.203 299.307 314.4 309.111 304.596 318.914 299.694 332.548 299.694 350.011 L299.694 650.103 C299.694 667.26 304.596 680.817 314.4 690.774 324.203 700.732 337.837 705.71 355.3 705.71 Z M380.116 645.508 C366.636 645.508 359.896 638.921 359.896 625.747 L359.896 374.368 C359.896 361.194 366.636 354.607 380.116 354.607 L631.036 354.607 C644.516 354.607 651.256 361.194 651.256 374.368 L651.256 625.747 C651.256 638.921 644.516 645.508 631.036 645.508 Z M316.238 195.6 L390.227 195.6 390.227 41.648 C390.227 30.618 386.78 21.733 379.887 14.993 372.993 8.253 364.032 4.883 353.003 4.883 341.973 4.883 333.089 8.253 326.348 14.993 319.608 21.733 316.238 30.618 316.238 41.648 Z M468.352 195.6 L542.341 195.6 542.341 41.648 C542.341 30.618 538.971 21.733 532.23 14.993 525.49 8.253 516.605 4.883 505.576 4.883 494.547 4.883 485.585 8.253 478.692 14.993 471.798 21.733 468.352 30.618 468.352 41.648 Z M620.925 195.6 L694.914 195.6 694.914 41.648 C694.914 30.618 691.468 21.733 684.574 14.993 677.681 8.253 668.719 4.883 657.69 4.883 646.661 4.883 637.776 8.253 631.036 14.993 624.295 21.733 620.925 30.618 620.925 41.648 Z M809.804 310.03 L809.804 384.019 963.756 384.019 C974.786 384.019 983.747 380.572 990.64 373.679 997.534 366.785 1000.98 357.824 1000.98 346.795 1000.98 335.765 997.534 326.881 990.64 320.14 983.747 313.4 974.786 310.03 963.756 310.03 Z M809.804 462.144 L809.804 536.133 963.756 536.133 C974.786 536.133 983.747 532.763 990.64 526.023 997.534 519.282 1000.98 510.398 1000.98 499.368 1000.98 488.339 997.534 479.377 990.64 472.484 983.747 465.591 974.786 462.144 963.756 462.144 Z M809.804 614.717 L809.804 688.706 963.756 688.706 C974.786 688.706 983.747 685.26 990.64 678.366 997.534 671.473 1000.98 662.511 1000.98 651.482 1000.98 640.453 997.534 631.568 990.64 624.828 983.747 618.087 974.786 614.717 963.756 614.717 Z M695.833 804.056 L621.844 804.056 621.844 958.467 C621.844 969.497 625.291 978.381 632.185 985.122 639.078 991.862 648.039 995.232 659.069 995.232 670.098 995.232 678.983 991.862 685.723 985.122 692.464 978.381 695.833 969.497 695.833 958.467 Z M542.341 804.056 L468.352 804.056 468.352 958.467 C468.352 969.497 471.798 978.381 478.692 985.122 485.585 991.862 494.547 995.232 505.576 995.232 516.605 995.232 525.49 991.862 532.23 985.122 538.971 978.381 542.341 969.497 542.341 958.467 Z M390.227 804.056 L316.238 804.056 316.238 958.467 C316.238 969.497 319.608 978.381 326.348 985.122 333.089 991.862 341.973 995.232 353.003 995.232 364.032 995.232 372.993 991.862 379.887 985.122 386.78 978.381 390.227 969.497 390.227 958.467 Z M201.348 689.166 L201.348 615.177 37.745 615.177 C26.716 615.177 17.831 618.547 11.091 625.287 4.35 632.028 0.98 640.912 0.98 651.942 0.98 662.971 4.35 671.932 11.091 678.826 17.831 685.719 26.716 689.166 37.745 689.166 Z M201.348 536.592 L201.348 462.603 37.745 462.603 C26.716 462.603 17.831 466.05 11.091 472.943 4.35 479.837 0.98 488.798 0.98 499.828 0.98 510.857 4.35 519.742 11.091 526.482 17.831 533.223 26.716 536.592 37.745 536.592 Z M201.348 384.478 L201.348 310.489 37.745 310.489 C26.716 310.489 17.831 313.859 11.091 320.6 4.35 327.34 0.98 336.225 0.98 347.254 0.98 358.284 4.35 367.245 11.091 374.138 17.831 381.032 26.716 384.478 37.745 384.478 Z" fill="#000000" fill-opacity="1" stroke="none"/>
</svg>
