<?xml version="1.0" encoding="UTF-8"?>
<svg width="1000px" height="1000px" viewBox="0 0 1000 1000" xmlns="http://www.w3.org/2000/svg" xmlns:xlink="http://www.w3.org/1999/xlink" version="1.1">
 <!-- Generated by Pixelmator Pro 2.0.6 -->
 <path id="􀉬" d="M461.041 830.152 L922.325 830.152 C951.194 830.152 971.438 826.055 983.059 817.859 994.68 809.663 1000.49 797.492 1000.49 781.345 1000.49 757.859 993.334 733.027 979.022 706.85 964.71 680.672 944.16 656.147 917.371 633.272 890.582 610.397 858.166 591.804 820.123 577.492 782.08 563.18 739.206 556.024 691.499 556.024 644.037 556.024 601.286 563.18 563.243 577.492 525.2 591.804 492.784 610.397 465.995 633.272 439.206 656.147 418.655 680.672 404.343 706.85 390.032 733.027 382.876 757.859 382.876 781.345 382.876 797.492 388.686 809.663 400.307 817.859 411.928 826.055 432.172 830.152 461.041 830.152 Z M691.866 490.336 C718.044 490.336 742.264 483.18 764.527 468.868 786.79 454.556 804.71 435.167 818.288 410.703 831.866 386.238 838.655 358.716 838.655 328.134 838.655 298.042 831.866 271.07 818.288 247.217 804.71 223.363 786.79 204.587 764.527 190.886 742.264 177.186 718.044 170.336 691.866 170.336 665.689 170.336 641.469 177.308 619.206 191.253 596.943 205.198 579.022 224.158 565.444 248.134 551.866 272.11 545.077 299.021 545.077 328.868 545.077 359.204 551.866 386.544 565.444 410.886 579.022 435.229 596.943 454.556 619.206 468.868 641.469 483.18 665.689 490.336 691.866 490.336 Z M65.077 830.152 L343.609 830.152 C334.068 816.208 329.542 799.449 330.032 779.877 330.521 760.305 335.047 739.755 343.609 718.226 352.172 696.697 363.976 675.841 379.022 655.657 394.068 635.474 411.499 617.675 431.316 602.263 410.765 588.562 387.218 577.248 360.674 568.318 334.129 559.388 303.732 554.923 269.481 554.923 228.135 554.923 190.888 561.712 157.738 575.29 124.588 588.868 96.331 606.727 72.967 628.868 49.603 651.009 31.683 675.167 19.206 701.345 6.729 727.523 0.49 753.333 0.49 778.776 0.49 795.167 5.444 807.828 15.353 816.758 25.261 825.688 41.836 830.152 65.077 830.152 Z M269.481 498.776 C292.478 498.776 313.64 492.538 332.967 480.061 352.295 467.584 367.83 450.642 379.573 429.235 391.316 407.828 397.187 383.914 397.187 357.492 397.187 331.07 391.316 307.523 379.573 286.85 367.83 266.177 352.233 249.908 332.784 238.042 313.334 226.177 292.233 220.244 269.481 220.244 246.973 220.244 225.995 226.299 206.545 238.409 187.096 250.519 171.377 266.972 159.389 287.767 147.401 308.562 141.53 332.048 141.775 358.226 141.775 384.404 147.646 408.134 159.389 429.419 171.132 450.703 186.729 467.584 206.178 480.061 225.628 492.538 246.729 498.776 269.481 498.776 Z" fill="#000000" fill-opacity="1" stroke="none"/>
</svg>
