<?xml version="1.0" encoding="UTF-8"?>
<svg width="1000px" height="1000px" viewBox="0 0 1000 1000" xmlns="http://www.w3.org/2000/svg" xmlns:xlink="http://www.w3.org/1999/xlink" version="1.1">
 <!-- Generated by Pixelmator Pro 2.0.6 -->
 <path id="􀫊" d="M0.023 628.041 C19.006 658.805 45.27 692.269 78.816 728.433 112.362 764.598 152.29 798.88 198.6 831.281 244.91 863.682 296.701 890.273 353.975 911.055 411.249 931.837 473.268 942.228 540.033 942.228 582.58 942.228 618.416 938.219 647.544 930.201 676.672 922.182 702.2 912.855 724.128 902.218 746.055 891.582 767.165 882.254 787.456 874.236 807.747 866.218 830.166 862.209 854.712 862.209 882.203 862.209 904.54 867.118 921.722 876.936 938.904 886.755 952.159 897.8 961.486 910.073 970.814 922.346 977.605 932.083 981.859 939.283 983.823 942.883 986.114 945.174 988.732 946.156 991.351 947.137 993.641 944.356 995.605 937.81 996.914 932.901 997.978 927.337 998.796 921.119 999.614 914.9 1000.023 907.864 1000.023 900.009 1000.023 885.609 997.978 867.281 993.887 845.026 989.796 822.771 981.614 797.898 969.341 770.407 957.068 742.915 938.986 714.115 915.095 684.005 922.622 661.75 927.368 639.414 929.331 616.995 931.295 594.576 932.277 576.003 932.277 561.276 932.277 528.221 927.122 490.338 916.813 447.628 906.504 404.918 889.24 360.327 865.021 313.853 840.802 267.379 808.238 221.806 767.328 177.133 726.418 132.459 675.363 91.631 614.162 54.648 631.18 78.867 648.853 107.176 667.181 139.577 685.509 171.978 701.054 208.797 713.818 250.034 726.582 291.271 732.964 337.09 732.964 387.491 732.964 414.982 729.937 442.392 723.882 469.72 717.827 497.048 711.691 518.239 705.473 533.294 678.963 517.911 648.444 497.866 613.916 473.156 579.388 448.446 543.306 421.283 505.669 391.664 468.032 362.045 430.968 331.69 394.476 300.598 357.984 269.507 324.357 239.725 293.592 211.251 262.828 182.778 237.301 157.741 217.009 136.141 257.592 198.979 301.938 259.443 350.048 317.535 398.158 375.627 449.05 434.455 502.723 494.02 430.395 448.528 360.603 400.337 293.347 349.445 226.091 298.553 161.045 244.961 98.207 188.669 158.427 275.726 227.154 361.881 304.393 447.137 381.631 532.394 470.486 615.44 570.961 696.278 542.16 712.315 511.315 725.815 478.423 736.779 445.531 747.743 403.886 753.225 353.484 753.225 312.574 753.225 270.029 747.416 225.846 735.797 181.663 724.179 139.772 708.797 100.171 689.651 60.57 670.505 27.188 649.969 0.023 628.041 Z" fill="#000000" fill-opacity="1" stroke="none"/>
</svg>
