<?xml version="1.0" encoding="UTF-8"?>
<svg width="1000px" height="1000px" viewBox="0 0 1000 1000" xmlns="http://www.w3.org/2000/svg" xmlns:xlink="http://www.w3.org/1999/xlink" version="1.1">
 <!-- Generated by Pixelmator Pro 2.0.6 -->
 <path id="􀟒" d="M52.516 654.267 C59.174 652.148 63.941 647.987 66.816 641.783 69.691 635.578 70.221 628.693 68.405 621.127 62.654 598.126 58.266 573.99 55.24 548.719 52.213 523.448 51.305 494.924 52.516 463.147 52.819 454.673 50.851 448.166 46.614 443.626 42.378 439.087 36.93 436.666 30.272 436.363 21.495 435.758 14.761 437.725 10.07 442.264 5.379 446.804 2.58 452.706 1.672 459.969 -0.144 485.391 0.159 513.158 2.58 543.272 5.001 573.385 10.6 604.178 19.376 635.654 21.797 643.522 26.186 649.122 32.541 652.451 38.897 655.78 45.555 656.385 52.516 654.267 Z M32.541 383.703 C39.2 386.124 46.16 385.897 53.424 383.022 60.687 380.147 65.832 374.32 68.859 365.544 93.373 297.449 127.723 240.779 171.909 195.534 216.096 150.289 266.107 116.317 321.945 93.618 377.783 70.92 435.21 59.571 494.225 59.571 534.477 59.571 570.87 63.581 603.404 71.601 635.939 79.62 665.673 91.348 692.608 106.783 700.477 111.323 708.194 113.366 715.761 112.912 723.327 112.458 728.775 108.447 732.103 100.882 735.735 93.013 736.038 86.43 733.011 81.134 729.985 75.838 725.597 71.374 719.846 67.742 685.345 45.952 649.936 30.669 613.618 21.892 577.301 13.114 537.504 8.727 494.225 8.727 443.078 8.727 393.521 15.536 345.551 29.155 297.582 42.774 252.791 63.43 211.177 91.121 169.563 118.813 132.414 153.39 99.728 194.853 67.043 236.315 40.259 284.889 19.376 340.576 15.14 352.076 14.686 361.534 18.015 368.949 21.343 376.363 26.186 381.282 32.541 383.703 Z M976.791 548.492 C984.055 548.492 989.956 545.845 994.496 540.548 999.036 535.252 1001.003 528.669 1000.398 520.801 993.436 459.061 982.012 404.358 966.123 356.692 950.234 309.025 929.654 266.579 904.384 229.354 879.113 192.129 849.075 158.233 814.271 127.666 807.614 121.916 800.803 119.494 793.843 120.402 786.882 121.31 781.435 124.034 777.5 128.574 773.263 133.415 771.22 139.242 771.372 146.051 771.523 152.861 774.927 159.292 781.586 165.345 826.377 207.11 863.981 256.365 894.396 313.111 924.812 369.857 943.804 439.389 951.369 521.708 952.277 529.275 954.926 535.63 959.314 540.775 963.701 545.92 969.528 548.492 976.791 548.492 Z M105.176 785.917 C109.413 791.969 115.314 795.526 122.881 796.585 130.447 797.644 137.408 795.45 143.763 790.003 160.106 776.384 172.363 758.982 180.534 737.796 188.706 716.611 192.792 694.518 192.792 671.517 192.792 650.635 190.522 632.098 185.982 615.906 181.442 599.715 176.903 582.691 172.363 564.835 167.823 546.979 165.554 525.038 165.554 499.01 165.554 454.521 174.103 412.681 191.203 373.488 208.302 334.296 231.833 299.644 261.794 269.53 291.756 239.417 326.409 215.81 365.753 198.711 405.097 181.613 447.013 173.062 491.501 173.062 563.229 173.062 625.497 191.296 678.308 227.765 731.12 264.234 772.052 315.078 801.106 380.298 830.16 445.518 844.839 521.406 845.141 607.962 845.141 658.504 841.661 701.706 834.7 737.569 827.739 773.433 820.021 801.655 811.548 822.234 808.522 829.498 808.218 836.458 810.64 843.117 813.061 849.775 817.147 854.617 822.897 857.643 829.252 860.367 836.137 860.518 843.552 858.097 850.967 855.677 856.036 850.834 858.76 843.571 867.537 819.359 875.936 787.582 883.955 748.238 891.975 708.894 895.985 661.984 895.985 607.508 895.985 535.176 886.452 469.351 867.385 410.033 848.319 350.714 821.081 299.568 785.671 256.592 750.262 213.617 707.741 180.478 658.107 157.174 608.473 133.869 552.939 122.218 491.501 122.218 440.051 122.218 391.554 132.13 346.005 151.953 300.457 171.776 260.357 199.014 225.704 233.667 191.051 268.32 163.889 308.344 144.217 353.741 124.546 399.138 114.709 447.56 114.709 499.01 114.709 523.827 117.055 546.223 121.746 566.197 126.437 586.172 131.128 604.708 135.819 621.808 140.51 638.908 143.006 655.326 143.309 671.063 143.309 686.498 140.51 701.176 134.911 715.098 129.312 729.02 121.216 740.671 110.624 750.053 105.176 754.593 101.998 760.344 101.09 767.304 100.182 774.265 101.544 780.469 105.176 785.917 Z M212.312 870.355 C223.51 864.604 235.464 854.996 248.175 841.528 260.886 828.06 272.387 812.928 282.677 796.131 292.967 779.334 300.23 763.067 304.467 747.33 306.283 740.974 305.829 734.543 303.105 728.036 300.382 721.53 295.388 717.065 288.124 714.644 281.769 712.525 275.564 713.131 269.512 716.46 263.459 719.789 259.222 725.085 256.801 732.349 250.748 752.323 242.198 769.877 231.152 785.009 220.105 800.141 206.259 813.458 189.614 824.958 181.442 830.708 176.525 836.837 174.86 843.344 173.195 849.85 173.574 855.677 175.995 860.821 178.719 866.572 183.409 870.657 190.068 873.078 196.726 875.499 204.141 874.591 212.312 870.355 Z M309.461 624.305 C303.71 608.87 297.28 591.165 290.167 571.191 283.055 551.216 279.499 528.064 279.499 501.734 279.499 461.482 289.032 425.165 308.099 392.782 327.166 360.399 352.89 334.674 385.273 315.608 417.657 296.541 453.973 287.008 494.225 287.008 509.66 287.008 522.371 287.689 532.358 289.051 542.346 290.413 551.955 292.909 561.185 296.541 570.416 300.173 581.841 305.167 595.46 311.522 602.42 314.851 608.852 315.684 614.753 314.019 620.655 312.354 624.816 308.949 627.237 303.805 630.869 297.449 631.626 290.791 629.507 283.83 627.388 276.87 622.547 271.119 614.98 266.579 599.848 257.803 581.538 250.464 560.05 244.562 538.563 238.66 516.621 235.71 494.225 235.71 457 235.71 422.271 242.519 390.04 256.138 357.808 269.757 329.587 288.672 305.375 312.884 281.163 337.096 262.248 365.317 248.629 397.549 235.01 429.78 228.201 464.509 228.201 501.734 228.201 530.486 231.455 556.513 237.961 579.816 244.468 603.12 251.656 624.456 259.525 643.825 262.853 651.392 267.696 656.688 274.051 659.714 280.407 662.741 287.67 662.589 295.842 659.26 302.5 656.536 307.04 651.846 309.461 645.187 311.882 638.529 311.882 631.568 309.461 624.305 Z M666.732 372.354 C688.523 404.434 704.941 442.34 715.988 486.072 727.034 529.805 732.557 578.454 732.557 632.022 732.557 689.222 725.218 743.168 710.54 793.861 695.862 844.554 676.115 885.335 651.297 916.205 647.363 921.653 645.245 927.857 644.942 934.818 644.639 941.778 647.061 947.68 652.205 952.522 657.653 957.667 664.311 960.013 672.18 959.559 680.048 959.105 686.253 955.851 690.793 949.799 718.333 912.271 740.502 865.361 757.299 809.069 774.095 752.777 782.494 693.157 782.494 630.206 782.494 584.507 779.467 544.332 773.414 509.678 767.362 475.025 758.963 444.459 748.219 417.977 737.475 391.495 725.294 367.209 711.675 345.116 706.832 337.852 700.856 333.161 693.743 331.043 686.631 328.924 679.897 329.53 673.542 332.858 666.883 336.49 662.798 342.014 661.285 349.428 659.772 356.843 661.588 364.485 666.732 372.354 Z M307.645 930.278 C344.87 900.316 373.394 862.486 393.218 816.786 413.041 771.087 422.801 721.908 422.498 669.247 422.196 642.615 419.624 619.008 414.781 598.429 409.939 577.849 405.172 559.312 400.481 542.818 395.79 526.324 393.445 510.813 393.445 496.286 393.445 467.535 402.6 444.458 420.91 427.056 439.219 409.655 463.204 400.953 492.863 400.953 523.128 400.953 547.036 411.244 564.59 431.823 582.143 452.403 594.855 479.868 602.723 514.218 610.592 548.568 614.98 586.172 615.888 627.029 617.401 674.241 613.24 718.503 603.404 759.814 593.568 801.125 579.722 837.82 561.866 869.901 544.01 901.981 523.884 927.857 501.489 947.529 496.041 952.068 492.787 957.516 491.728 963.872 490.669 970.227 491.955 976.28 495.587 982.03 499.824 988.083 505.725 991.564 513.292 992.471 520.858 993.379 527.668 991.11 533.72 985.662 557.326 964.174 579.041 934.97 598.864 898.047 618.688 861.123 634.501 819.132 646.304 772.071 658.107 725.009 663.857 675.452 663.555 623.397 663.555 572.553 658.107 526.475 647.212 485.164 636.317 443.853 618.461 411.017 593.644 386.654 568.827 362.29 535.234 350.109 492.863 350.109 464.717 350.109 439.371 356.011 416.824 367.814 394.277 379.617 376.421 396.111 363.256 417.296 350.091 438.482 343.508 463.298 343.508 491.747 343.508 508.997 345.778 527.307 350.318 546.677 354.857 566.046 359.397 586.096 363.937 606.827 368.476 627.558 370.897 648.365 371.2 669.247 371.503 714.342 363.483 756.106 347.14 794.542 330.797 832.978 307.04 864.907 275.867 890.329 269.815 895.474 266.258 901.3 265.199 907.807 264.14 914.313 265.577 920.442 269.512 926.192 274.051 932.851 280.029 936.483 287.444 937.088 294.858 937.693 301.592 935.423 307.645 930.278 Z M413.873 966.595 C431.729 953.581 450.341 933.683 469.711 906.899 489.08 880.115 503.002 852.196 511.476 823.142 512.989 817.997 512.914 812.02 511.249 805.21 509.584 798.401 505.12 793.785 497.857 791.364 490.291 788.641 483.481 788.792 477.428 791.818 471.376 794.845 467.29 799.385 465.171 805.437 453.671 835.702 440.884 860.367 426.811 879.434 412.738 898.5 398.135 913.935 383.003 925.738 377.253 930.278 373.697 935.953 372.335 942.762 370.973 949.572 372.259 955.851 376.194 961.602 379.826 967.957 385.424 971.589 392.991 972.497 400.557 973.405 407.518 971.438 413.873 966.595 Z M537.352 717.368 C541.589 696.788 543.859 674.771 544.161 651.316 544.464 627.861 542.799 604.028 539.168 579.816 535.536 555.604 530.088 532.15 522.825 509.451 519.798 500.977 515.259 495.076 509.206 491.747 503.153 488.418 496.646 487.812 489.685 489.931 483.027 492.05 478.033 496.059 474.705 501.961 471.376 507.862 470.922 514.748 473.343 522.616 480.303 544.407 485.373 566.121 488.551 587.76 491.728 609.4 493.241 630.509 493.09 651.089 492.939 671.668 491.047 691.492 487.416 710.558 485.903 717.217 486.659 723.421 489.685 729.171 492.712 734.922 498.16 738.401 506.028 739.612 513.292 741.125 519.95 739.839 526.003 735.754 532.055 731.668 535.839 725.539 537.352 717.368 Z" fill="#000000" fill-opacity="1" stroke="none"/>
</svg>
