<?xml version="1.0" encoding="UTF-8"?>
<svg width="1000px" height="1000px" viewBox="0 0 1000 1000" xmlns="http://www.w3.org/2000/svg" xmlns:xlink="http://www.w3.org/1999/xlink" version="1.1">
 <!-- Generated by Pixelmator Pro 2.0.6 -->
 <path id="􀰗" d="M97.155 589.123 L361.499 589.123 C392.373 589.123 416.417 580.722 433.63 563.918 450.843 547.115 459.45 523.413 459.45 492.812 L459.45 228.467 C459.45 197.866 450.843 174.164 433.63 157.361 416.417 140.558 392.373 132.156 361.499 132.156 L97.155 132.156 C66.553 132.156 42.715 140.558 25.638 157.361 8.562 174.164 0.023 197.866 0.023 228.467 L0.023 492.812 C0.023 523.686 8.562 547.456 25.638 564.123 42.715 580.79 66.553 589.123 97.155 589.123 Z M629.941 594.451 L899.614 594.451 C931.581 594.451 956.307 585.845 973.794 568.631 991.28 551.418 1000.023 527.238 1000.023 496.09 L1000.023 225.599 C1000.023 194.178 991.28 169.861 973.794 152.648 956.307 135.435 931.581 126.828 899.614 126.828 L629.941 126.828 C598.247 126.828 573.657 135.435 556.171 152.648 538.685 169.861 529.941 194.178 529.941 225.599 L529.941 496.09 C529.941 527.238 538.685 551.418 556.171 568.631 573.657 585.845 598.247 594.451 629.941 594.451 Z M630.761 529.697 C618.739 529.697 609.723 526.692 603.712 520.681 597.701 514.67 594.696 505.517 594.696 493.222 L594.696 228.058 C594.696 215.763 597.701 206.61 603.712 200.599 609.723 194.588 618.739 191.582 630.761 191.582 L898.794 191.582 C911.362 191.582 920.583 194.588 926.458 200.599 932.332 206.61 935.269 215.763 935.269 228.058 L935.269 493.222 C935.269 505.517 932.332 514.67 926.458 520.681 920.583 526.692 911.362 529.697 898.794 529.697 Z M31.171 742.402 L163.548 742.402 163.548 808.385 31.171 808.385 C22.974 808.385 15.734 805.175 9.45 798.754 3.165 792.334 0.023 784.478 0.023 775.189 0.023 766.172 3.165 758.454 9.45 752.033 15.734 745.612 22.974 742.402 31.171 742.402 Z M234.859 873.959 C216.827 873.959 200.365 869.519 185.474 860.64 170.583 851.76 158.698 839.875 149.819 824.984 140.939 810.093 136.499 793.631 136.499 775.599 136.499 757.566 140.939 741.036 149.819 726.008 158.698 710.981 170.583 699.028 185.474 690.148 200.365 681.268 216.827 676.828 234.859 676.828 252.892 676.828 269.354 681.268 284.245 690.148 299.136 699.028 311.021 710.981 319.9 726.008 328.78 741.036 333.22 757.566 333.22 775.599 333.22 793.631 328.78 810.093 319.9 824.984 311.021 839.875 299.136 851.76 284.245 860.64 269.354 869.519 252.892 873.959 234.859 873.959 Z M234.859 823.549 C248.248 823.549 259.586 818.836 268.876 809.41 278.166 799.984 282.81 788.577 282.81 775.189 282.81 761.801 278.166 750.462 268.876 741.172 259.586 731.883 248.248 727.238 234.859 727.238 221.198 727.238 209.791 731.883 200.638 741.172 191.485 750.462 186.909 761.801 186.909 775.189 186.909 788.577 191.485 799.984 200.638 809.41 209.791 818.836 221.198 823.549 234.859 823.549 Z M300.023 742.402 L966.827 742.402 C976.116 742.402 983.971 745.612 990.392 752.033 996.813 758.454 1000.023 766.172 1000.023 775.189 1000.023 784.478 996.813 792.334 990.392 798.754 983.971 805.175 976.116 808.385 966.827 808.385 L300.023 808.385 Z" fill="#000000" fill-opacity="1" stroke="none"/>
</svg>
