<?xml version="1.0" encoding="UTF-8"?>
<svg width="2000px" height="2000px" viewBox="0 0 2000 2000" xmlns="http://www.w3.org/2000/svg" xmlns:xlink="http://www.w3.org/1999/xlink" version="1.1">
 <!-- Generated by Pixelmator Pro 2.0.5 -->
 <path id="􀙧" d="M1001 2001 C1009.049 2001 1018.942 1999.491 1030.68 1996.473 1042.418 1993.454 1054.659 1988.591 1067.403 1981.884 1210.94 1906.762 1331.168 1839.018 1428.089 1778.652 1525.01 1718.286 1602.479 1658.591 1660.498 1599.566 1718.517 1540.542 1760.269 1476.99 1785.757 1408.911 1811.245 1340.831 1823.989 1261.518 1823.989 1170.968 L1823.989 412.37 C1823.989 377.491 1819.126 349.656 1809.401 328.863 1799.675 308.071 1785.254 290.967 1766.138 277.552 1747.022 264.137 1723.379 251.729 1695.208 240.327 1666.367 228.253 1624.111 211.653 1568.44 190.525 1512.769 169.396 1453.074 147.263 1389.354 124.122 1325.634 100.982 1266.107 79.518 1210.772 59.732 1155.436 39.945 1113.348 25.021 1084.506 14.96 1071.091 10.936 1057.342 7.582 1043.256 4.899 1029.171 2.216 1015.085 0.875 1001 0.875 986.915 0.875 972.997 2.216 959.247 4.899 945.497 7.582 931.915 10.936 918.5 14.96 888.987 24.351 846.564 38.939 791.228 58.726 735.893 78.512 676.366 100.143 612.646 123.619 548.926 147.095 489.399 169.396 434.063 190.525 378.727 211.653 336.304 228.253 306.792 240.327 278.621 251.729 254.978 264.137 235.862 277.552 216.746 290.967 202.325 308.071 192.599 328.863 182.874 349.656 178.011 377.491 178.011 412.37 L178.011 1170.968 C178.011 1261.518 191.258 1340.16 217.752 1406.898 244.246 1473.637 286.837 1535.679 345.526 1593.027 404.216 1650.375 482.02 1709.566 578.941 1770.603 675.863 1831.64 794.414 1902.067 934.597 1981.884 947.341 1988.591 959.582 1993.454 971.32 1996.473 983.058 1999.491 992.951 2001 1001 2001 Z" fill="#ffffff" fill-opacity="1" stroke="none"/>
</svg>
