<?xml version="1.0" standalone="no"?>
<!DOCTYPE svg PUBLIC "-//W3C//DTD SVG 20010904//EN"
 "http://www.w3.org/TR/2001/REC-SVG-20010904/DTD/svg10.dtd">
<svg version="1.0" xmlns="http://www.w3.org/2000/svg"
 width="1554.000000pt" height="1554.000000pt" viewBox="0 0 1554.000000 1554.000000"
 preserveAspectRatio="xMidYMid meet">
<metadata>
Created by potrace 1.11, written by Peter Selinger 2001-2013
</metadata>
<g transform="translate(0.000000,1554.000000) scale(0.100000,-0.100000)"
fill="#000000" stroke="none">
<path d="M7619 15526 c-2 -2 -31 -6 -64 -10 -33 -3 -71 -8 -85 -11 -14 -3 -47
-10 -75 -15 -164 -33 -494 -138 -1015 -323 -69 -25 -141 -50 -160 -57 -109
-39 -650 -233 -675 -243 -16 -6 -32 -12 -35 -12 -3 0 -9 -3 -15 -6 -5 -4 -35
-14 -65 -24 -30 -10 -75 -26 -100 -35 -25 -10 -178 -66 -340 -125 -162 -59
-304 -111 -315 -116 -11 -4 -38 -15 -60 -22 -55 -19 -1063 -396 -1100 -412
-16 -7 -66 -26 -110 -43 -127 -48 -557 -213 -590 -227 -16 -7 -79 -31 -140
-55 -60 -24 -123 -49 -140 -55 -248 -102 -329 -138 -435 -192 -241 -125 -394
-241 -500 -382 -86 -113 -150 -257 -179 -401 -6 -30 -14 -66 -17 -80 -2 -14
-8 -54 -12 -90 -10 -95 -9 -6421 2 -6580 5 -74 10 -148 11 -165 4 -40 24 -202
30 -245 10 -65 35 -218 40 -240 3 -14 10 -50 15 -80 6 -30 24 -107 41 -170 16
-63 31 -123 34 -132 16 -71 103 -319 158 -452 62 -153 250 -491 363 -655 227
-331 529 -662 884 -971 35 -30 68 -60 74 -65 21 -21 322 -262 406 -326 47 -35
87 -67 90 -70 3 -3 28 -20 55 -39 28 -19 52 -37 55 -40 20 -25 643 -450 660
-450 5 0 10 -3 10 -8 0 -4 9 -12 20 -17 11 -6 90 -55 176 -110 87 -55 162
-102 168 -105 11 -5 66 -39 136 -85 33 -21 323 -199 382 -234 15 -9 55 -33 90
-55 97 -59 797 -476 848 -504 25 -14 88 -51 140 -82 52 -31 140 -82 195 -114
55 -32 107 -61 115 -66 8 -6 83 -48 165 -95 83 -47 157 -90 165 -96 8 -5 22
-12 30 -16 8 -4 71 -40 140 -81 196 -116 367 -192 490 -218 110 -22 257 -27
325 -11 11 3 43 10 70 16 153 34 269 91 1070 524 359 194 365 197 437 238 36
22 68 39 71 39 2 0 42 22 88 48 92 53 157 90 234 132 28 15 79 45 115 65 36
21 94 55 130 75 72 41 286 166 310 180 8 5 148 89 310 186 339 203 555 340
790 499 138 93 358 248 395 277 6 5 53 41 105 80 106 80 317 246 340 269 8 8
42 36 75 64 33 27 74 62 90 76 17 15 57 51 90 81 90 80 371 363 446 448 291
330 535 698 686 1035 17 39 43 96 57 127 14 31 26 63 26 70 0 8 4 18 9 24 26
29 165 496 195 658 3 15 10 52 16 84 5 31 12 68 15 82 12 65 14 78 20 125 3
28 8 57 10 65 2 8 6 42 10 75 3 33 8 78 10 100 13 114 25 285 30 410 6 141 6
6267 0 6340 -9 112 -15 156 -41 290 -3 17 -20 68 -38 115 -127 340 -394 553
-996 795 -91 36 -174 70 -185 75 -60 28 -1141 440 -1452 554 -21 7 -81 29
-133 48 -52 20 -309 113 -570 208 -261 95 -518 188 -570 207 -52 20 -138 50
-190 69 -52 18 -140 49 -195 69 -152 56 -472 171 -645 232 -85 30 -218 77
-295 104 -412 147 -593 203 -715 223 -19 3 -72 12 -118 19 -74 12 -383 22
-393 13z"/>
</g>
</svg>
