<?xml version="1.0" encoding="UTF-8"?>
<svg width="2000px" height="2000px" viewBox="0 0 2000 2000" xmlns="http://www.w3.org/2000/svg" xmlns:xlink="http://www.w3.org/1999/xlink" version="1.1">
 <!-- Generated by Pixelmator Pro 2.0.5 -->
 <path id="ô€£" d="M438.881 2000.375 L1590.545 2000.375 C1677.955 2000.375 1746.122 1975.098 1795.046 1924.543 1843.97 1873.989 1868.431 1798.158 1868.431 1697.048 L1868.431 684.328 C1868.431 583.219 1842.665 507.388 1791.132 456.833 1739.599 406.278 1662.952 381.001 1561.191 381.001 L438.881 381.001 C336.467 381.001 259.658 406.278 208.451 456.833 157.244 507.388 131.641 583.219 131.641 684.328 L131.641 1697.048 C131.641 1798.158 157.244 1873.989 208.451 1924.543 259.658 1975.098 336.467 2000.375 438.881 2000.375 Z M440.838 1842.841 C391.914 1842.841 354.407 1829.958 328.314 1804.191 302.221 1778.424 289.175 1740.101 289.175 1689.22 L289.175 692.156 C289.175 641.275 302.221 602.952 328.314 577.185 354.407 551.419 391.914 538.536 440.838 538.536 L1558.255 538.536 C1606.527 538.536 1644.035 551.419 1670.78 577.185 1697.525 602.952 1710.897 641.275 1710.897 692.156 L1710.897 1689.22 C1710.897 1740.101 1698.829 1778.424 1674.693 1804.191 1650.558 1829.958 1621.53 1842.841 1587.609 1842.841 Z M594.459 389.807 L751.993 389.807 C751.993 345.45 762.919 305.17 784.772 268.966 806.624 232.762 836.141 203.734 873.324 181.882 910.506 160.029 952.58 149.103 999.547 149.103 1047.166 149.103 1089.566 160.029 1126.748 181.882 1163.93 203.734 1193.284 232.762 1214.811 268.966 1236.337 305.17 1247.1 345.45 1247.1 389.807 L1404.635 389.807 C1404.635 320.009 1386.533 255.594 1350.329 196.559 1314.126 137.524 1265.366 90.069 1204.048 54.191 1142.73 18.313 1074.563 0.375 999.547 0.375 925.182 0.375 857.342 18.313 796.024 54.191 734.706 90.069 685.783 137.524 649.253 196.559 612.723 255.594 594.459 320.009 594.459 389.807 Z" fill="#ffffff" fill-opacity="1" stroke="none"/>
</svg>
