<?xml version="1.0" encoding="UTF-8"?>
<svg width="1000px" height="1000px" viewBox="0 0 1000 1000" xmlns="http://www.w3.org/2000/svg" xmlns:xlink="http://www.w3.org/1999/xlink" version="1.1">
 <!-- Generated by Pixelmator Pro 2.0.6 -->
 <path id="ô€¬" d="M244.124 553.918 C234.32 553.918 226.149 550.65 219.614 544.114 213.078 537.578 209.81 529.408 209.81 519.604 209.81 510.127 213.078 502.12 219.614 495.584 226.149 489.049 234.32 485.78 244.124 485.78 L466.182 485.78 466.182 189.212 C466.182 179.734 469.451 171.729 475.986 165.192 482.522 158.656 490.529 155.388 500.006 155.388 509.81 155.388 517.98 158.656 524.516 165.192 531.051 171.729 534.32 179.734 534.32 189.212 L534.32 519.604 C534.32 529.408 531.051 537.578 524.516 544.114 517.98 550.65 509.81 553.918 500.006 553.918 Z M500.496 1000.977 C568.797 1000.977 633.094 987.905 693.388 961.761 753.682 935.617 806.869 899.506 852.947 853.428 899.026 807.349 935.136 754.163 961.28 693.869 987.425 633.575 1000.496 569.278 1000.496 500.977 1000.496 432.675 987.425 368.379 961.28 308.084 935.136 247.79 899.026 194.604 852.947 148.526 806.869 102.447 753.601 66.337 693.143 40.192 632.685 14.048 568.307 0.977 500.006 0.977 431.705 0.977 367.408 14.048 307.114 40.192 246.82 66.337 193.715 102.447 147.8 148.526 101.885 194.604 65.856 247.79 39.712 308.084 13.567 368.379 0.496 432.675 0.496 500.977 0.496 569.278 13.567 633.575 39.712 693.869 65.856 754.163 101.967 807.349 148.045 853.428 194.124 899.506 247.31 935.617 307.604 961.761 367.898 987.905 432.195 1000.977 500.496 1000.977 Z" fill="#000000" fill-opacity="1" stroke="none"/>
</svg>
