<?xml version="1.0" encoding="UTF-8"?>
<svg width="1000px" height="1000px" viewBox="0 0 1000 1000" xmlns="http://www.w3.org/2000/svg" xmlns:xlink="http://www.w3.org/1999/xlink" version="1.1">
 <!-- Generated by Pixelmator Pro 2.0.6 -->
 <path id="􀠒" d="M500.718 1000.113 C548.455 1000.113 592.981 991.471 634.299 974.187 675.616 956.903 711.911 933.035 743.187 902.582 774.464 872.13 798.907 836.656 816.521 796.163 834.133 755.669 842.941 712.212 842.941 665.792 842.941 631.553 838.084 597.562 828.373 563.817 818.66 530.072 806.397 497.48 791.583 466.039 776.768 434.599 761.789 404.887 746.644 376.903 L567.385 42.089 C551.912 14.106 529.69 0.113 500.718 0.113 471.417 0.113 449.196 13.94 434.052 41.595 L254.792 376.903 C239.978 404.887 225.163 434.599 210.348 466.039 195.533 497.48 183.187 530.072 173.311 563.817 163.434 597.562 158.496 631.553 158.496 665.792 158.496 712.212 167.302 755.669 184.916 796.163 202.529 836.656 226.973 872.13 258.249 902.582 289.525 933.035 325.821 956.903 367.138 974.187 408.455 991.471 452.981 1000.113 500.718 1000.113 Z" fill="#000000" fill-opacity="1" stroke="none"/>
</svg>
