<?xml version="1.0" encoding="UTF-8"?>
<svg width="1000px" height="1000px" viewBox="0 0 1000 1000" xmlns="http://www.w3.org/2000/svg" xmlns:xlink="http://www.w3.org/1999/xlink" version="1.1">
 <!-- Generated by Pixelmator Pro 2.0.6 -->
 <path id="ô€“" d="M524.528 834.029 C536.321 834.029 548.449 832.193 560.91 828.522 573.371 824.85 590.505 823.014 612.312 823.014 626.998 823.014 638.903 823.905 648.026 825.685 657.149 827.464 665.549 829.3 673.226 831.192 680.903 833.083 690.193 834.029 701.097 834.029 725.797 834.029 744.543 829.133 757.339 819.343 770.134 809.552 776.531 796.089 776.531 778.956 776.531 759.374 769.8 742.24 756.337 727.554 742.874 712.867 723.849 701.408 699.261 693.174 674.673 684.941 645.579 680.825 611.978 680.825 595.512 680.825 581.604 681.325 570.256 682.327 558.907 683.328 548.783 684.719 539.882 686.499 530.981 688.279 521.858 690.282 512.512 692.507 L476.464 610.397 C464.671 584.14 450.429 561.277 433.74 541.806 417.052 522.335 397.859 507.204 376.164 496.412 354.468 485.62 330.158 480.224 303.233 480.224 L263.847 480.224 C257.394 480.224 252.165 478.778 248.16 475.885 244.154 472.992 242.152 468.319 242.152 461.866 242.152 451.63 248.049 444.788 259.842 441.339 271.635 437.89 285.098 436.165 300.229 436.165 349.183 436.165 391.573 449.627 427.399 476.552 463.225 503.477 492.152 543.975 514.181 598.048 L537.212 653.789 C548.337 651.341 559.964 649.561 572.092 648.448 584.219 647.336 596.402 646.779 608.64 646.779 618.654 646.779 628.277 647.113 637.512 647.781 646.747 648.448 656.037 649.45 665.383 650.785 675.619 643.219 686.8 635.598 698.927 627.921 711.055 620.244 725.574 612.734 742.485 605.391 754.947 613.846 767.964 621.189 781.537 627.42 795.111 633.651 809.019 638.491 823.26 641.94 837.501 645.388 852.076 647.113 866.985 647.113 897.692 647.113 922.893 644.22 942.586 638.435 962.278 632.65 976.853 622.024 986.31 606.559 995.768 591.094 1000.496 568.898 1000.496 539.97 1000.496 513.713 996.045 489.403 987.145 467.04 978.245 444.677 965.783 425.206 949.762 408.628 933.74 392.051 914.994 379.145 893.52 369.91 872.047 360.675 848.627 356.169 823.26 356.392 L733.807 237.233 C708.44 204.523 681.237 180.212 652.198 164.303 623.16 148.393 593.843 140.438 564.248 140.438 552.009 140.438 538.936 142.051 525.029 145.277 511.121 148.503 497.937 153.176 485.476 159.296 473.015 165.416 462.835 172.592 454.935 180.825 447.036 189.058 443.086 198.07 443.086 207.861 443.086 216.761 448.149 226.552 458.273 237.233 468.398 247.914 480.914 258.54 495.823 269.109 510.732 279.678 525.085 289.191 538.881 297.647 L731.137 415.137 C723.794 422.258 716.506 427.71 709.274 431.492 702.042 435.275 694.31 437.166 686.077 437.166 677.399 437.166 668.498 435.553 659.375 432.327 650.252 429.1 640.293 424.539 629.501 418.642 618.709 412.745 606.527 405.902 592.953 398.114 567.363 383.205 542.831 368.909 519.355 355.224 495.878 341.539 472.737 329.245 449.929 318.341 427.12 307.438 403.756 298.815 379.835 292.474 355.914 286.132 330.603 282.961 303.901 282.961 266.962 282.961 233.084 289.97 202.265 303.989 171.446 318.008 144.355 338.98 120.99 366.906 97.626 394.832 78.378 429.49 63.246 470.878 45.445 470.878 30.536 476.219 18.52 486.899 6.504 497.58 0.496 511.488 0.496 528.622 0.496 547.981 7.394 563.335 21.19 574.683 34.986 586.032 52.343 591.706 73.26 591.706 89.504 614.403 108.974 632.761 131.671 646.779 154.368 660.798 179.623 671.034 207.439 677.487 235.254 683.94 264.849 687.167 296.224 687.167 298.671 687.167 301.175 687.111 303.734 687 306.293 686.888 308.796 686.833 311.244 686.833 L446.424 798.982 C463.113 814.113 477.132 823.738 488.48 827.854 499.829 831.97 511.845 834.029 524.528 834.029 Z M283.206 860.397 C315.472 860.397 342.174 857.393 363.313 851.385 384.453 845.377 403.033 836.922 419.054 826.018 L315.583 739.903 C313.135 740.126 310.52 740.348 307.739 740.571 304.958 740.794 301.787 740.905 298.226 740.905 292.663 740.905 286.266 740.46 279.034 739.57 271.802 738.679 263.847 737.845 255.169 737.066 246.491 736.288 237.256 735.898 227.465 735.898 208.774 735.898 194.032 740.46 183.24 749.583 172.448 758.706 167.051 770.834 167.051 785.965 167.051 808.44 177.566 826.463 198.594 840.037 219.622 853.611 247.826 860.397 283.206 860.397 Z M859.308 523.949 C851.743 523.949 845.344 521.223 840.116 515.771 834.887 510.32 832.272 503.922 832.272 496.579 832.272 489.013 834.942 482.393 840.282 476.719 845.623 471.045 852.076 468.208 859.642 468.208 867.43 468.208 873.939 470.822 879.168 476.052 884.396 481.281 887.011 487.678 887.011 495.244 887.011 502.587 884.286 509.207 878.834 515.104 873.382 521.001 866.873 523.949 859.308 523.949 Z" fill="#000000" fill-opacity="1" stroke="none"/>
</svg>
