<?xml version="1.0" encoding="UTF-8"?>
<svg width="1000px" height="1000px" viewBox="0 0 1000 1000" xmlns="http://www.w3.org/2000/svg" xmlns:xlink="http://www.w3.org/1999/xlink" version="1.1">
 <!-- Generated by Pixelmator Pro 2.0.6 -->
 <path id="􀟗" d="M319.77 975.621 C363.913 975.621 405.258 967.307 443.807 950.678 482.355 934.049 516.293 911.147 545.621 881.97 574.948 852.794 597.851 818.857 614.328 780.156 630.806 741.456 639.045 700.036 639.045 655.893 639.045 612.053 630.731 570.859 614.102 532.311 597.472 493.762 574.571 459.9 545.394 430.723 516.217 401.547 482.355 378.645 443.807 362.016 405.258 345.387 363.913 337.072 319.77 337.072 275.93 337.072 234.661 345.387 195.961 362.016 157.261 378.645 123.323 401.547 94.147 430.723 64.97 459.9 42.069 493.762 25.439 532.311 8.81 570.859 0.496 612.053 0.496 655.893 0.496 700.036 8.81 741.456 25.439 780.156 42.069 818.857 64.97 852.794 94.147 881.97 123.323 911.147 157.261 934.049 195.961 950.678 234.661 967.307 275.93 975.621 319.77 975.621 Z M319.77 903.059 C285.908 903.059 254.011 896.634 224.079 883.784 194.147 870.935 167.843 853.248 145.167 830.723 122.492 808.198 104.804 781.97 92.106 752.038 79.408 722.106 73.058 690.059 73.058 655.893 73.058 622.031 79.408 590.209 92.106 560.428 104.804 530.647 122.492 504.495 145.167 481.97 167.843 459.446 194.147 441.759 224.079 428.909 254.011 416.06 285.908 409.635 319.77 409.635 353.936 409.635 385.908 416.06 415.689 428.909 445.47 441.759 471.622 459.446 494.147 481.97 516.672 504.495 534.359 530.647 547.208 560.428 560.057 590.209 566.482 622.031 566.482 655.893 566.482 690.059 560.057 722.106 547.208 752.038 534.359 781.97 516.672 808.198 494.147 830.723 471.622 853.248 445.47 870.935 415.689 883.784 385.908 896.634 353.936 903.059 319.77 903.059 Z M500.723 664.057 C544.563 664.057 585.757 655.818 624.306 639.34 662.854 622.863 696.792 599.96 726.12 570.633 755.447 541.305 778.35 507.367 794.827 468.818 811.305 430.27 819.544 388.925 819.544 344.782 819.544 300.64 811.305 259.37 794.827 220.973 778.35 182.576 755.447 148.712 726.12 119.385 696.792 90.059 662.854 67.08 624.306 50.451 585.757 33.823 544.563 25.508 500.723 25.508 456.58 25.508 415.235 33.823 376.687 50.451 338.138 67.08 304.2 90.059 274.872 119.385 245.545 148.712 222.567 182.576 205.938 220.973 189.309 259.37 180.995 300.64 180.995 344.782 180.995 388.925 189.309 430.27 205.938 468.818 222.567 507.367 245.545 541.305 274.872 570.633 304.2 599.96 338.138 622.863 376.687 639.34 415.235 655.818 456.58 664.057 500.723 664.057 Z M500.723 591.494 C466.558 591.494 434.51 585.145 404.578 572.447 374.646 559.748 348.418 542.061 325.893 519.385 303.368 496.71 285.681 470.482 272.832 440.701 259.982 410.919 253.557 378.947 253.557 344.782 253.557 310.617 259.982 278.721 272.832 249.091 285.681 219.46 303.368 193.308 325.893 170.633 348.418 147.957 374.646 130.195 404.578 117.345 434.51 104.495 466.558 98.07 500.723 98.07 534.586 98.07 566.407 104.495 596.188 117.345 625.969 130.195 652.197 147.882 674.872 170.406 697.548 192.93 715.235 219.083 727.934 248.864 740.632 278.645 746.981 310.617 746.981 344.782 746.981 378.947 740.632 410.919 727.934 440.701 715.235 470.482 697.548 496.71 674.872 519.385 652.197 542.061 625.969 559.748 596.188 572.447 566.407 585.145 534.586 591.494 500.723 591.494 Z M681.675 975.621 C725.515 975.621 766.709 967.307 805.258 950.678 843.807 934.049 877.745 911.147 907.072 881.97 936.399 852.794 959.301 818.857 975.78 780.156 992.258 741.456 1000.496 700.036 1000.496 655.893 1000.496 612.053 992.258 570.859 975.78 532.311 959.301 493.762 936.399 459.9 907.072 430.723 877.745 401.547 843.807 378.645 805.258 362.016 766.709 345.387 725.515 337.072 681.675 337.072 637.533 337.072 596.113 345.387 557.412 362.016 518.712 378.645 484.775 401.547 455.598 430.723 426.422 459.9 403.52 493.762 386.891 532.311 370.262 570.859 361.947 612.053 361.947 655.893 361.947 700.036 370.262 741.456 386.891 780.156 403.52 818.857 426.422 852.794 455.598 881.97 484.775 911.147 518.712 934.049 557.412 950.678 596.113 967.307 637.533 975.621 681.675 975.621 Z M681.675 903.059 C647.51 903.059 615.462 896.634 585.53 883.784 555.598 870.935 529.37 853.248 506.845 830.723 484.32 808.198 466.633 781.97 453.784 752.038 440.935 722.106 434.51 690.059 434.51 655.893 434.51 622.031 440.935 590.209 453.784 560.428 466.633 530.647 484.32 504.495 506.845 481.97 529.37 459.446 555.598 441.759 585.53 428.909 615.462 416.06 647.51 409.635 681.675 409.635 715.538 409.635 747.359 416.06 777.14 428.909 806.92 441.759 833.074 459.446 855.598 481.97 878.122 504.495 895.809 530.647 908.659 560.428 921.509 590.209 927.934 622.031 927.934 655.893 927.934 690.059 921.585 722.106 908.886 752.038 896.188 781.97 878.576 808.198 856.052 830.723 833.528 853.248 807.299 870.935 777.367 883.784 747.435 896.634 715.538 903.059 681.675 903.059 Z" fill="#000000" fill-opacity="1" stroke="none"/>
</svg>
