<?xml version="1.0" encoding="UTF-8"?>
<svg width="1000px" height="1000px" viewBox="0 0 1000 1000" xmlns="http://www.w3.org/2000/svg" xmlns:xlink="http://www.w3.org/1999/xlink" version="1.1">
 <!-- Generated by Pixelmator Pro 2.0.6 -->
 <path id="􀆬" d="M500.496 755.543 C535.06 755.543 567.711 748.896 598.452 735.603 629.194 722.309 656.279 703.948 679.708 680.518 703.138 657.088 721.5 630.086 734.793 599.511 748.087 568.936 754.733 536.201 754.733 501.306 754.733 466.742 748.087 434.174 734.793 403.599 721.5 373.023 703.138 346.021 679.708 322.592 656.279 299.162 629.194 280.801 598.452 267.507 567.711 254.213 535.06 247.567 500.496 247.567 465.933 247.567 433.281 254.213 402.54 267.507 371.799 280.801 344.797 299.162 321.533 322.592 298.269 346.021 279.991 373.023 266.697 403.599 253.404 434.174 246.757 466.742 246.757 501.306 246.757 536.201 253.404 568.936 266.697 599.511 279.991 630.086 298.269 657.088 321.533 680.518 344.797 703.948 371.799 722.309 402.54 735.603 433.281 748.896 465.933 755.543 500.496 755.543 Z M500.496 117.457 C516.448 117.457 530.157 111.724 541.623 100.259 553.088 88.793 558.821 74.918 558.821 58.634 558.821 42.681 553.088 28.973 541.623 17.507 530.157 6.041 516.448 0.309 500.496 0.309 484.544 0.309 470.835 6.041 459.369 17.507 447.904 28.973 442.171 42.681 442.171 58.634 442.171 74.918 447.904 88.793 459.369 100.259 470.835 111.724 484.544 117.457 500.496 117.457 Z M771.683 229.621 C782.982 240.92 796.691 246.57 812.809 246.57 828.927 246.57 842.637 240.92 853.936 229.621 865.568 217.989 871.383 204.197 871.383 188.245 871.383 172.293 865.568 158.501 853.936 146.869 842.637 135.237 828.927 129.421 812.809 129.421 796.691 129.421 782.982 135.237 771.683 146.869 760.383 158.501 754.733 172.293 754.733 188.245 754.733 204.197 760.383 217.989 771.683 229.621 Z M942.171 563.12 C958.123 563.12 971.832 557.387 983.298 545.922 994.763 534.456 1000.496 520.581 1000.496 504.297 1000.496 488.344 994.763 474.636 983.298 463.17 971.832 451.704 958.123 445.972 942.171 445.972 926.219 445.972 912.51 451.704 901.044 463.17 889.579 474.636 883.846 488.344 883.846 504.297 883.846 520.581 889.579 534.456 901.044 545.922 912.51 557.387 926.219 563.12 942.171 563.12 Z M768.692 856.739 C780.323 868.371 794.115 874.187 810.067 874.187 826.02 874.187 839.811 868.371 851.443 856.739 862.742 845.44 868.392 831.731 868.392 815.613 868.392 799.495 862.742 785.786 851.443 774.486 839.811 762.855 826.02 757.038 810.067 757.038 794.115 757.038 780.323 762.855 768.692 774.486 757.392 785.786 751.742 799.495 751.742 815.613 751.742 831.731 757.392 845.44 768.692 856.739 Z M500.496 1000.309 C516.448 1000.309 530.157 994.659 541.623 983.359 553.088 972.06 558.821 958.268 558.821 941.984 558.821 926.031 553.088 912.323 541.623 900.857 530.157 889.391 516.448 883.659 500.496 883.659 484.544 883.659 470.835 889.391 459.369 900.857 447.904 912.323 442.171 926.031 442.171 941.984 442.171 958.268 447.904 972.06 459.369 983.359 470.835 994.659 484.544 1000.309 500.496 1000.309 Z M147.056 854.247 C158.356 865.547 172.065 871.196 188.183 871.196 204.301 871.196 218.01 865.547 229.31 854.247 240.609 842.615 246.259 828.74 246.259 812.622 246.259 796.504 240.609 782.795 229.31 771.495 218.01 760.195 204.301 754.546 188.183 754.546 172.065 754.546 158.356 760.195 147.056 771.495 135.425 782.795 129.609 796.504 129.609 812.622 129.609 828.74 135.425 842.615 147.056 854.247 Z M58.821 559.631 C74.773 559.631 88.482 553.898 99.948 542.432 111.413 530.967 117.146 517.092 117.146 500.807 117.146 484.855 111.413 471.146 99.948 459.68 88.482 448.215 74.773 442.482 58.821 442.482 42.869 442.482 29.16 448.215 17.694 459.68 6.229 471.146 0.496 484.855 0.496 500.807 0.496 517.092 6.229 530.967 17.694 542.432 29.16 553.898 42.869 559.631 58.821 559.631 Z M146.558 230.119 C157.858 241.419 171.566 247.068 187.685 247.068 203.803 247.068 217.511 241.419 228.811 230.119 240.443 218.488 246.259 204.695 246.259 188.743 246.259 172.791 240.443 159 228.811 147.367 217.511 135.735 203.803 129.92 187.685 129.92 171.566 129.92 157.858 135.735 146.558 147.367 135.258 159 129.609 172.791 129.609 188.743 129.609 204.695 135.258 218.488 146.558 230.119 Z" fill="#000000" fill-opacity="1" stroke="none"/>
</svg>
