<?xml version="1.0" encoding="UTF-8"?>
<svg width="1000px" height="1000px" viewBox="0 0 1000 1000" xmlns="http://www.w3.org/2000/svg" xmlns:xlink="http://www.w3.org/1999/xlink" version="1.1">
 <!-- Generated by Pixelmator Pro 2.0.6 -->
 <path id="􀥦" d="M280.281 274.489 C280.281 229.669 285.711 186.314 296.571 144.425 307.431 102.536 323.204 62.974 343.89 25.739 346.993 20.223 347.769 15.137 346.217 10.483 344.666 5.828 341.563 2.64 336.909 0.915 332.254 -0.809 326.652 0.054 320.101 3.501 263.215 32.462 212.965 70.731 169.351 118.309 125.738 165.887 91.692 219.843 67.214 280.178 42.736 340.512 30.496 404.638 30.496 472.558 30.496 544.615 44.286 612.448 71.868 676.058 99.45 739.667 137.547 795.778 186.159 844.391 234.771 893.003 290.882 931.099 354.492 958.681 418.102 986.263 485.934 1000.053 557.991 1000.053 612.465 1000.053 664.697 991.865 714.688 975.489 764.68 959.112 810.964 936.185 853.544 906.707 896.123 877.23 933.444 842.495 965.507 802.501 968.954 798.364 970.764 794.227 970.937 790.09 971.11 785.952 969.471 782.677 966.024 780.264 962.577 777.85 957.406 777.506 950.51 779.229 927.755 786.815 904.483 792.503 880.694 796.295 856.905 800.088 832.599 801.984 807.776 801.984 735.719 801.984 667.886 788.194 604.276 760.612 540.667 733.03 484.556 694.934 435.943 646.321 387.331 597.709 349.235 541.598 321.653 477.988 294.071 414.379 280.281 346.546 280.281 274.489 Z" fill="#000000" fill-opacity="1" stroke="none"/>
</svg>
