<?xml version="1.0" encoding="UTF-8"?>
<svg width="1000px" height="1000px" viewBox="0 0 1000 1000" xmlns="http://www.w3.org/2000/svg" xmlns:xlink="http://www.w3.org/1999/xlink" version="1.1">
 <!-- Generated by Pixelmator Pro 2.0.6 -->
 <path id="􀀃" d="M500.496 1000.977 C432.195 1000.977 367.898 987.905 307.604 961.761 247.31 935.617 194.124 899.506 148.045 853.428 101.967 807.349 65.856 754.163 39.712 693.869 13.567 633.575 0.496 569.278 0.496 500.977 0.496 432.675 13.567 368.379 39.712 308.084 65.856 247.79 101.967 194.604 148.045 148.526 194.124 102.447 247.31 66.337 307.604 40.192 367.898 14.048 432.195 0.977 500.496 0.977 568.797 0.977 633.175 14.048 693.633 40.192 754.091 66.337 807.277 102.447 853.192 148.526 899.107 194.604 935.136 247.79 961.28 308.084 987.425 368.379 1000.496 432.675 1000.496 500.977 1000.496 569.278 987.425 633.575 961.28 693.869 935.136 754.163 899.026 807.349 852.947 853.428 806.869 899.506 753.682 935.617 693.388 961.761 633.094 987.905 568.797 1000.977 500.496 1000.977 Z M500.496 917.643 L500.496 84.31 C442.653 84.31 388.568 95.013 338.241 116.418 287.914 137.822 243.715 167.643 205.643 205.879 167.571 244.114 137.751 288.395 116.182 338.722 94.614 389.049 83.829 443.133 83.829 500.977 83.829 558.82 94.532 612.904 115.937 663.231 137.343 713.558 167.081 757.757 205.153 795.829 243.225 833.902 287.506 863.722 337.996 885.29 388.486 906.859 442.653 917.643 500.496 917.643 Z" fill="#000000" fill-opacity="1" stroke="none"/>
</svg>
