<?xml version="1.0" encoding="UTF-8"?>
<svg width="1000px" height="1000px" viewBox="0 0 1000 1000" xmlns="http://www.w3.org/2000/svg" xmlns:xlink="http://www.w3.org/1999/xlink" version="1.1">
 <!-- Generated by Pixelmator Pro 2.0.6 -->
 <path id="􀊫" d="M408.883 723.968 C452.785 723.968 494.031 715.56 532.622 698.743 571.213 681.925 605.2 658.825 634.587 629.438 663.973 600.052 687.074 566.065 703.891 527.473 720.708 488.882 729.117 447.636 729.117 403.735 729.117 359.833 720.708 318.587 703.891 279.996 687.074 241.405 663.973 207.328 634.587 177.765 605.2 148.203 571.213 125.102 532.622 108.461 494.031 91.82 452.785 83.501 408.883 83.501 364.981 83.501 323.736 91.82 285.144 108.461 246.553 125.102 212.477 148.203 182.914 177.765 153.351 207.328 130.249 241.405 113.61 279.996 96.97 318.587 88.649 359.833 88.649 403.735 88.649 447.636 96.97 488.882 113.61 527.473 130.249 566.065 153.351 600.052 182.914 629.438 212.477 658.825 246.553 681.925 285.144 698.743 323.736 715.56 364.981 723.968 408.883 723.968 Z M408.883 812.125 C352.59 812.125 299.837 801.504 250.625 780.261 201.412 759.019 158.042 729.633 120.513 692.104 82.984 654.575 53.599 611.205 32.356 561.993 11.114 512.78 0.492 460.028 0.492 403.735 0.492 347.441 11.114 294.6 32.356 245.211 53.599 195.822 82.984 152.452 120.513 115.099 158.042 77.747 201.501 48.451 250.89 27.208 300.28 5.965 352.943 -4.656 408.883 -4.656 465.176 -4.656 517.929 5.965 567.141 27.208 616.354 48.451 659.724 77.837 697.253 115.365 734.782 152.893 764.167 196.264 785.41 245.477 806.653 294.689 817.274 347.441 817.274 403.735 817.274 460.028 806.653 512.78 785.41 561.993 764.167 611.205 734.782 654.575 697.253 692.104 659.724 729.633 616.354 759.019 567.141 780.261 517.929 801.504 465.176 812.125 408.883 812.125 Z M941.544 1004.903 C933.4 1004.903 925.612 1003.487 918.177 1000.654 910.742 997.822 904.016 993.396 897.996 987.378 L615.999 704.85 703.094 620.941 983.498 901.876 C989.517 907.541 993.854 914.09 996.509 921.525 999.164 928.96 1000.492 936.572 1000.492 944.361 1000.492 955.69 997.925 965.87 992.792 974.898 987.659 983.926 980.665 991.184 971.815 996.671 962.964 1002.159 952.874 1004.903 941.544 1004.903 Z" fill="#000000" fill-opacity="1" stroke="none"/>
</svg>
