<svg id="Layer_1" data-name="Layer 1" xmlns="http://www.w3.org/2000/svg" viewBox="0 0 200 200"><defs><style>.cls-1{fill:#b0e148;}.cls-2{opacity:0.1;}.cls-3{fill:#fff;}</style></defs><path class="cls-1" d="M200,100a101,101,0,0,1-1.42,16.89,99.36,99.36,0,0,1-7.93,25.38,100.36,100.36,0,0,1-43.76,46.07,96.86,96.86,0,0,1-9,4.22A100,100,0,0,1,20.85,38.88,100.76,100.76,0,0,1,31.17,27.45h0A99.66,99.66,0,0,1,93.52.21Q96.73,0,100,0A99.93,99.93,0,0,1,200,100Z"/><path class="cls-2" d="M200,100a101,101,0,0,1-1.42,16.89,99.36,99.36,0,0,1-7.93,25.38,100.36,100.36,0,0,1-43.76,46.07,96.86,96.86,0,0,1-9,4.22A100.06,100.06,0,0,1,.69,88.21a100,100,0,0,0,198.62,0A99.81,99.81,0,0,1,200,100Z"/><path class="cls-3" d="M146.89,188.34a96.86,96.86,0,0,1-9,4.22c2.84-10.45,3.18-20.82-.84-30-10.15-23.28-26.08-28-46.25-33.87-13.63-4-29.08-8.53-45.14-19.6C28.51,97.23,19.54,78,19.73,53.51a109.81,109.81,0,0,1,1.12-14.63A100.76,100.76,0,0,1,31.17,27.45a108.36,108.36,0,0,0-3.59,26.33c-.11,22,7.48,38.41,22.56,48.8S80,117.28,93,121.11c10.43,3.06,20.28,6,29,11.37,9.86,6.15,16.93,14.69,22.25,26.9C148,167.86,148.85,177.58,146.89,188.34Z"/><path class="cls-3" d="M190.65,142.27c2.56-48.54-8.32-85.6-32.43-110.31C138.76,12,114,4,96.7.76,95.62.56,94.57.38,93.52.21Q96.73,0,100,0a99.66,99.66,0,0,1,41.67,9.07,107.89,107.89,0,0,1,22.12,17.34c21.2,21.71,32.84,52,34.79,90.48A99.36,99.36,0,0,1,190.65,142.27Z"/></svg>