<svg id="Layer_1" data-name="Layer 1" xmlns="http://www.w3.org/2000/svg" viewBox="0 0 200 200"><defs><style>.cls-1{fill:#333;}.cls-2{fill:#0071bc;}.cls-3{fill:#fff;}.cls-4{fill:#fbb03b;}.cls-5{fill:#5a89a8;}.cls-6{opacity:0.1;}</style></defs><path class="cls-1" d="M200,100v.1a99.65,99.65,0,0,1-9.35,42.17c-1.35,2.91-2.85,5.74-4.47,8.49a100.38,100.38,0,0,1-25.09,28.41h0q-3.87,3-8,5.61-3,1.89-6.16,3.56a97.83,97.83,0,0,1-8.91,4.19l-.07,0A99.66,99.66,0,0,1,100,200H98.94a102.07,102.07,0,0,1-14.08-1.14l-1.7-.27a98.68,98.68,0,0,1-26.32-8.37,95.84,95.84,0,0,1-9.08-4.94A99.95,99.95,0,0,1,0,100q0-4.52.39-8.92c.09-1,.19-1.92.3-2.87A98.91,98.91,0,0,1,5.82,66.32c.79-2.21,1.66-4.38,2.59-6.52A99.65,99.65,0,0,1,20.85,38.88c1-1.34,2.09-2.64,3.2-3.92a98.94,98.94,0,0,1,7.12-7.51h0c1-.91,1.94-1.81,2.94-2.67a95.82,95.82,0,0,1,8-6.33A100,100,0,0,1,56.81,9.78,97.82,97.82,0,0,1,66,5.93,99.26,99.26,0,0,1,93.52.21Q96.73,0,100,0a100.1,100.1,0,0,1,24.28,3A98.26,98.26,0,0,1,137.57,7.3h0c1.38.56,2.74,1.15,4.1,1.77a100.51,100.51,0,0,1,44.63,40.4,97.7,97.7,0,0,1,5.19,10.14c.56,1.24,1.08,2.5,1.58,3.77h0a98.91,98.91,0,0,1,6.23,24.84c.05.39.09.78.13,1.18A100.29,100.29,0,0,1,200,100Z"/><path class="cls-2" d="M97.86,106.78a130.44,130.44,0,0,1-4.93,22.86c-.79,2.42-1.68,2.63-3.86,1.47Q45.14,107.8,34.92,59.17a96,96,0,0,1-1-33.3c.06-.37.1-.73.16-1.09a95.82,95.82,0,0,1,8-6.33A100,100,0,0,1,56.81,9.78c-1.51,27.66,5.73,52,21.74,73.79a99.79,99.79,0,0,0,17.1,18.16C97.39,103.16,98.17,104.52,97.86,106.78Z"/><path class="cls-3" d="M83.16,198.59a98.68,98.68,0,0,1-26.32-8.37A113.6,113.6,0,0,0,79.1,170.78C96,151.57,105,129.12,106.84,103.72c.22-3.06,1.06-4.65,3.94-5.89a138.09,138.09,0,0,1,18.83-6.57c3.17-.85,4.79-.35,5.37,3.36C141.36,135.6,119.74,179.08,83.16,198.59Z"/><path class="cls-3" d="M199.44,89.4a111.37,111.37,0,0,0-48.34-9.64,106.56,106.56,0,0,0-47.5,11.82c-3.22,1.65-4.94,1.06-7.2-1.25A163.12,163.12,0,0,1,83.46,75.12c-2.24-2.92-1.6-4.38,1.13-6.26a102.31,102.31,0,0,1,45.09-17.69,99.94,99.94,0,0,1,62.66,11.77c.26.14.5.29.74.44h0a98.91,98.91,0,0,1,6.23,24.84C199.36,88.61,199.4,89,199.44,89.4Z"/><path class="cls-3" d="M86.62,144.62c-2.75,4.17-5.44,8.39-7.92,12.72-1.52,2.64-3.26,2.59-5.75,1.58q-59-24-67-87.12a25.21,25.21,0,0,1-.11-5.48c.79-2.21,1.66-4.38,2.59-6.52A99.65,99.65,0,0,1,20.85,38.88c1-1.34,2.09-2.64,3.2-3.92C24,52.85,26.59,68.89,33.32,84.12c10.7,24.23,27.81,42.51,51.37,54.6C87.86,140.35,88.54,141.7,86.62,144.62Z"/><path class="cls-4" d="M140.07,190.51c-.68.71-1.37,1.38-2.08,2l-.07,0A99.66,99.66,0,0,1,100,200H98.94c12.46-9.68,23-20.93,30.76-34.67,12.71-22.49,17.63-46.56,13.66-72.21-.53-3.43.37-4.22,3.7-4.32,4.5-.14,9,.26,13.47,0,5.3-.36,6.85,2.14,7.65,6.64C174.75,131.84,166,163.65,140.07,190.51Z"/><path class="cls-4" d="M186.31,49.47c-8.45-2.63-16.83-5.46-25.67-6.72C131.7,38.62,105,44.37,80.81,60.86c-3.78,2.58-5.1,2-6.58-1.92-1.87-5-3.62-10-5.37-15-1.26-3.64-.42-5.73,2.64-7.88,19-13.38,40-20.09,63.3-19.38,5.15.15,10.29.8,15.42,1.39a39.33,39.33,0,0,1,10.9,2.8,100.6,100.6,0,0,1,25.19,28.62Z"/><path class="cls-2" d="M69.85,167.4a54.52,54.52,0,0,1-11,10c-3.13,3.44-7.24,5.49-11.08,7.91A99.95,99.95,0,0,1,0,100q0-4.52.39-8.92C10.88,127.53,33.93,152.9,69.85,167.4Z"/><path class="cls-3" d="M200,100.1a99.65,99.65,0,0,1-9.35,42.17c-1.35,2.91-2.85,5.74-4.47,8.49a100.38,100.38,0,0,1-25.09,28.41c17.38-27.38,22.19-56.27,15.49-87.8a115.25,115.25,0,0,1,21.31,7.49A10.13,10.13,0,0,1,200,100.1Z"/><path class="cls-3" d="M137.57,7.3c-25.77-.39-49.49,6.2-71.06,21.55C64.41,21,65.35,13.44,66,5.93A99.26,99.26,0,0,1,93.52.21Q96.73,0,100,0a100.1,100.1,0,0,1,24.28,3A98.26,98.26,0,0,1,137.57,7.3Z"/><path class="cls-5" d="M188.19,49.88l.64.44-.32.27-.45-.58Z"/><path class="cls-6" d="M200,100a101,101,0,0,1-1.42,16.89,99.36,99.36,0,0,1-7.93,25.38,100.36,100.36,0,0,1-43.76,46.07,96.86,96.86,0,0,1-9,4.22A100.06,100.06,0,0,1,.69,88.21a100,100,0,0,0,198.62,0A99.81,99.81,0,0,1,200,100Z"/></svg>