<?xml version="1.0" encoding="UTF-8"?>
<svg width="1000px" height="1000px" viewBox="0 0 1000 1000" xmlns="http://www.w3.org/2000/svg" xmlns:xlink="http://www.w3.org/1999/xlink" version="1.1">
 <!-- Generated by Pixelmator Pro 2.0.6 -->
 <path id="􀊵" d="M500.824 963.046 C506.195 963.046 512.321 961.619 519.203 958.766 526.085 955.912 532.21 952.807 537.582 949.45 632.245 889.027 714.234 825.667 783.553 759.37 852.873 693.072 906.413 624.929 944.178 554.939 981.942 484.949 1000.824 414.204 1000.824 342.703 1000.824 298.057 993.691 257.188 979.424 220.095 965.157 183.002 945.353 150.86 920.008 123.67 894.664 96.48 864.956 75.5 830.885 60.729 796.813 45.959 759.972 38.574 720.361 38.574 671.351 38.574 628.216 51.079 590.955 76.087 553.694 101.095 523.65 134.412 500.824 176.036 478.333 134.747 448.458 101.515 411.197 76.339 373.936 51.162 330.633 38.574 281.287 38.574 241.677 38.574 204.92 45.959 171.016 60.729 137.111 75.5 107.404 96.48 81.892 123.67 56.38 150.86 36.49 183.002 22.224 220.095 7.958 257.188 0.824 298.057 0.824 342.703 0.824 414.204 19.706 484.949 57.471 554.939 95.235 624.929 148.86 693.072 218.347 759.37 287.833 825.667 369.907 889.027 464.57 949.45 469.942 952.807 476.067 955.912 482.949 958.766 489.831 961.619 495.789 963.046 500.824 963.046 Z" fill="#000000" fill-opacity="1" stroke="none"/>
</svg>
