<?xml version="1.0" encoding="UTF-8"?>
<svg width="1000px" height="1000px" viewBox="0 0 1000 1000" xmlns="http://www.w3.org/2000/svg" xmlns:xlink="http://www.w3.org/1999/xlink" version="1.1">
 <!-- Generated by Pixelmator Pro 2.0.6 -->
 <path id="􀇇" d="M207.282 653.452 L748.967 653.452 C783.595 653.452 815.822 647.341 845.649 635.119 875.477 622.898 901.52 605.947 923.781 584.268 946.042 562.589 963.356 537.273 975.724 508.319 988.091 479.364 994.274 448.156 994.274 414.692 994.274 380.645 987.799 349.218 974.851 320.41 961.902 291.601 943.641 266.503 920.071 245.115 896.5 223.727 868.929 207.213 837.356 195.573 805.783 183.933 771.519 178.26 734.562 178.55 706.627 122.097 668.216 78.376 619.329 47.385 570.442 16.394 515.735 0.898 455.208 0.898 415.051 0.898 377.004 8.319 341.066 23.159 305.128 38 273.047 58.587 244.82 84.923 216.593 111.258 193.824 141.957 176.509 177.022 159.195 212.088 149.083 249.989 146.173 290.728 103.688 302.368 69.787 324.629 44.471 357.511 19.154 390.394 6.496 428.223 6.496 470.999 6.496 507.082 14.935 538.8 31.813 566.154 48.69 593.507 72.188 614.896 102.306 630.318 132.424 645.74 167.415 653.452 207.282 653.452 Z M218.631 862.967 L275.374 764.757 C279.448 758.064 280.539 751.299 278.648 744.46 276.757 737.622 272.61 732.311 266.208 728.528 259.515 724.745 252.822 723.8 246.129 725.691 239.437 727.582 234.053 731.875 229.979 738.568 L172.799 837.651 C169.016 844.053 167.998 850.6 169.744 857.293 171.49 863.986 175.709 869.224 182.402 873.007 189.094 876.79 195.86 877.735 202.699 875.844 209.537 873.953 214.847 869.66 218.631 862.967 Z M319.896 987.804 L449.098 764.321 C452.881 757.628 453.899 751.008 452.153 744.46 450.407 737.913 446.479 732.602 440.368 728.528 433.966 724.745 427.273 723.727 420.289 725.473 413.305 727.219 407.922 731.438 404.139 738.131 L275.811 960.741 C272.319 967.434 271.373 974.2 272.974 981.038 274.574 987.877 278.721 993.333 285.414 997.406 291.524 1000.898 297.927 1001.771 304.619 1000.025 311.312 998.279 316.404 994.206 319.896 987.804 Z M566.077 862.531 L622.821 764.321 C626.604 757.628 627.622 750.862 625.876 744.024 624.13 737.185 619.911 731.875 613.218 728.092 606.525 724.309 599.832 723.363 593.139 725.255 586.447 727.146 581.209 731.438 577.426 738.131 L519.809 837.214 C516.317 843.617 515.444 850.164 517.19 856.857 518.936 863.549 523.156 868.933 529.848 873.007 536.25 876.499 542.943 877.299 549.927 875.407 556.911 873.516 562.294 869.224 566.077 862.531 Z M667.343 987.367 L796.108 763.884 C799.89 757.191 800.981 750.571 799.381 744.024 797.781 737.476 793.779 732.166 787.378 728.092 781.267 724.309 774.72 723.29 767.736 725.036 760.752 726.782 755.223 731.002 751.149 737.695 L623.257 960.305 C619.474 966.997 618.456 973.763 620.202 980.602 621.948 987.44 626.022 992.896 632.424 996.97 638.826 1000.462 645.3 1001.335 651.847 999.589 658.395 997.843 663.56 993.769 667.343 987.367 Z" fill="#000000" fill-opacity="1" stroke="none"/>
</svg>
