<?xml version="1.0" encoding="UTF-8"?>
<svg width="1000px" height="1000px" viewBox="0 0 1000 1000" xmlns="http://www.w3.org/2000/svg" xmlns:xlink="http://www.w3.org/1999/xlink" version="1.1">
 <!-- Generated by Pixelmator Pro 2.0.6 -->
 <path id="􀇟" d="M219.672 625.471 L738.13 625.471 C771.274 625.471 802.119 619.622 830.667 607.925 859.216 596.227 884.142 580.004 905.449 559.254 926.755 538.504 943.327 514.274 955.164 486.561 967.002 458.848 972.92 428.978 972.92 396.949 972.92 364.362 966.722 334.282 954.329 306.709 941.935 279.136 924.458 255.114 901.898 234.643 879.338 214.172 852.949 198.367 822.73 187.226 792.51 176.085 759.716 170.655 724.344 170.933 697.606 116.9 660.842 75.053 614.051 45.391 567.261 15.729 514.9 0.898 456.968 0.898 418.533 0.898 382.117 8.001 347.72 22.205 313.323 36.409 282.617 56.114 255.601 81.32 228.585 106.526 206.791 135.909 190.219 169.47 173.647 203.032 163.969 239.308 161.184 278.301 120.52 289.442 88.073 310.747 63.842 342.22 39.612 373.693 27.496 409.9 27.496 450.841 27.496 485.378 35.573 515.736 51.727 541.916 67.881 568.097 90.371 588.568 119.198 603.329 148.024 618.09 181.515 625.471 219.672 625.471 Z M600.683 785.896 L505.848 785.896 505.012 804.279 555.981 706.519 C558.487 702.063 558.905 698.303 557.234 695.24 555.563 692.176 552.499 690.644 548.043 690.644 L457.386 690.644 C451.258 690.644 446.872 691.688 444.226 693.777 441.58 695.866 439.283 699.138 437.333 703.595 L380.515 833.105 C378.288 838.397 378.148 842.505 380.098 845.429 382.048 848.354 385.807 849.816 391.378 849.816 L468.666 849.816 474.097 825.167 406.835 988.099 C404.329 994.227 405.303 998.265 409.76 1000.215 413.659 1001.886 417.976 1000.494 422.711 996.037 L607.367 806.785 C611.823 802.051 613.286 797.385 611.754 792.79 610.221 788.194 606.531 785.896 600.683 785.896 Z M213.406 952.589 C219.533 956.209 225.939 957.114 232.623 955.304 239.308 953.494 244.321 949.385 247.663 942.98 L301.974 848.98 C305.873 842.575 306.917 836.099 305.107 829.554 303.297 823.009 299.328 817.926 293.201 814.305 286.795 810.406 280.389 809.431 273.983 811.381 267.577 813.331 262.424 817.508 258.525 823.914 L203.797 918.749 C200.455 924.876 199.619 931.143 201.29 937.549 202.961 943.954 207 948.968 213.406 952.589 Z M132.357 836.029 C138.485 839.372 144.891 840.137 151.575 838.327 158.259 836.517 163.273 832.548 166.615 826.421 L221.343 732.004 C224.964 725.598 225.869 719.122 224.059 712.577 222.249 706.032 218.28 700.949 212.152 697.328 205.747 693.707 199.34 692.803 192.935 694.613 186.529 696.423 181.376 700.531 177.477 706.937 L122.749 802.19 C119.406 808.039 118.571 814.235 120.242 820.781 121.913 827.326 125.952 832.409 132.357 836.029 Z M794.112 952.589 C800.239 956.209 806.645 957.114 813.33 955.304 820.014 953.494 825.167 949.385 828.787 942.98 L883.098 848.98 C886.718 842.575 887.694 836.099 886.022 829.554 884.351 823.009 880.313 817.926 873.907 814.305 867.501 810.406 861.096 809.431 854.689 811.381 848.283 813.331 843.27 817.508 839.649 823.914 L784.503 918.749 C781.161 924.876 780.326 931.143 781.997 937.549 783.668 943.954 787.706 948.968 794.112 952.589 Z M713.064 836.029 C719.191 839.372 725.597 840.137 732.281 838.327 738.966 836.517 744.118 832.548 747.739 826.421 L802.05 732.004 C805.67 725.598 806.645 719.122 804.974 712.577 803.303 706.032 799.265 700.949 792.859 697.328 786.452 693.707 780.047 692.803 773.641 694.613 767.235 696.423 762.222 700.531 758.601 706.937 L703.873 802.19 C700.252 808.039 699.277 814.235 700.948 820.781 702.62 827.326 706.658 832.409 713.064 836.029 Z" fill="#000000" fill-opacity="1" stroke="none"/>
</svg>
