<svg id="Layer_1" data-name="Layer 1" xmlns="http://www.w3.org/2000/svg" viewBox="0 0 200 200"><defs><style>.cls-1{fill:#f15a24;}.cls-2{opacity:0.1;}.cls-3{fill:#333;}</style></defs><path class="cls-1" d="M200,100a101,101,0,0,1-1.42,16.89q-.77,4.48-1.92,8.81c-.55,2.09-1.17,4.16-1.86,6.19a98.47,98.47,0,0,1-4.15,10.38c-1.35,2.91-2.85,5.74-4.47,8.49a100.55,100.55,0,0,1-33.12,34c-1.27.79-2.55,1.56-3.86,2.29-.76.44-1.53.86-2.3,1.27q-2.1,1.13-4.26,2.14-2.34,1.11-4.72,2.08A99.66,99.66,0,0,1,100,200a100.76,100.76,0,0,1-15.14-1.14,99.49,99.49,0,0,1-46.07-19.78c-.37-.29-.75-.58-1.11-.88a97.85,97.85,0,0,1-8.52-7.63A99.79,99.79,0,0,1,0,102.77c0-.92,0-1.84,0-2.77q0-3.77.27-7.46c.11-1.46.25-2.9.42-4.33a99.41,99.41,0,0,1,17.73-46c.78-1.11,1.6-2.2,2.43-3.28.45-.59.92-1.18,1.39-1.76a100.87,100.87,0,0,1,8.93-9.67h0A100.17,100.17,0,0,1,62,7.48c2.35-1,4.73-1.85,7.17-2.64h0A99.89,99.89,0,0,1,93.52.21c.63,0,1.27-.08,1.9-.1C96.94,0,98.47,0,100,0c1.25,0,2.5,0,3.74.07a100.11,100.11,0,0,1,87.38,58.69c.13.28.26.56.38.85,1.08,2.42,2.05,4.89,2.93,7.41A100.17,100.17,0,0,1,200,100Z"/><path class="cls-2" d="M200,100a101,101,0,0,1-1.42,16.89,99.36,99.36,0,0,1-7.93,25.38,100.36,100.36,0,0,1-43.76,46.07,96.86,96.86,0,0,1-9,4.22A100.06,100.06,0,0,1,.69,88.21a100,100,0,0,0,198.62,0A99.81,99.81,0,0,1,200,100Z"/><path class="cls-3" d="M196.66,125.7c-.55,2.09-1.17,4.16-1.86,6.19a79.75,79.75,0,0,0-16.5-10.51c-10.92-5.25-21.42-7.56-29.85-9.42-4-.88-7.39-1.63-10.08-2.54-34-11.51-51.45-30.68-54.87-61.18q-.33-2.94-.48-6c-.18-3.22-.2-6.55-.09-10A50.88,50.88,0,0,1,95.42.11C96.94,0,98.47,0,100,0c1.25,0,2.5,0,3.74.07A45,45,0,0,0,88.93,32.4q-.15,4.5,0,8.7c.1,2.06.24,4.06.46,6,1.24,11.63,4.64,21.32,10.24,29.4,8.22,11.85,21.51,20.76,40.63,27.23,2.38.8,5.66,1.52,9.45,2.36C161.91,108.78,180,112.78,196.66,125.7Z"/><path class="cls-3" d="M38.91,118.66c-4.5,14.68-8.75,28.55-5.85,42.31a156,156,0,0,0,4.62,17.23,97.85,97.85,0,0,1-8.52-7.63q-1.05-4-2-8.37c-3.21-15.27,1.26-29.86,6-45.3,4.91-16,10-32.57,6.2-50.6,0-.21-.09-.42-.13-.63a39.79,39.79,0,0,0-1.57-5.35A28.53,28.53,0,0,0,26.12,45.67a32.47,32.47,0,0,0-7.7-3.51c.78-1.11,1.6-2.2,2.43-3.28.45-.59.92-1.18,1.39-1.76a37.79,37.79,0,0,1,7.06,3.46A34.17,34.17,0,0,1,43,57.32a46.05,46.05,0,0,1,1.86,5.82c.1.41.19.82.29,1.23C49.48,84.2,44.1,101.72,38.91,118.66Z"/><path class="cls-3" d="M149.2,187.07c-.76.44-1.53.86-2.3,1.27q-2.1,1.13-4.26,2.14a146.5,146.5,0,0,1-16.18-9.83c-23.3-16.35-42.18-40.56-57.71-74A138,138,0,0,1,56,57.55q-.12-1.71-.18-3.42c0-1-.07-2-.09-3a139.57,139.57,0,0,1,5.23-40c.34-1.22.69-2.41,1-3.58,2.35-1,4.73-1.85,7.17-2.64-.88,2.56-1.73,5.25-2.51,8.07a133.86,133.86,0,0,0-5,35.75c0,1.8,0,3.59.11,5.38,0,.34,0,.67,0,1A131.39,131.39,0,0,0,74.2,104.11c15.07,32.47,33.29,55.91,55.71,71.63A143,143,0,0,0,149.2,187.07Z"/><path class="cls-3" d="M194.43,67c-5-2.48-10.38-5-16.13-7.31a191.23,191.23,0,0,0-50.9-13.45,137.56,137.56,0,0,0-38,.85q-3,.49-5.92,1.13A120.15,120.15,0,0,0,70,52q-4.17,1.43-8.17,3c-2,.8-3.94,1.63-5.87,2.5q-5.78,2.6-11.19,5.59Q42,64.67,39.37,66.3a137.36,137.36,0,0,0-16,11.4A131.12,131.12,0,0,0,0,102.77c0-.92,0-1.84,0-2.77q0-3.77.27-7.46A137.41,137.41,0,0,1,19.37,73.2a143.54,143.54,0,0,1,18.3-12.88q2.59-1.56,5.28-3Q49.12,54,55.73,51.1c2-.84,4-1.66,6-2.44s4.23-1.6,6.38-2.34A125.63,125.63,0,0,1,83,42.21C85,41.8,87,41.42,89,41.1a143.76,143.76,0,0,1,39.2-.79,196.91,196.91,0,0,1,52.56,13.91q5.43,2.22,10.4,4.54c.13.28.26.56.38.85C192.58,62,193.55,64.5,194.43,67Z"/></svg>