<svg id="Layer_1" data-name="Layer 1" xmlns="http://www.w3.org/2000/svg" viewBox="0 0 1000 700"><defs><style>.cls-1{fill:#fbb03b;}.cls-2{fill:none;stroke:#fff;stroke-miterlimit:10;stroke-width:14px;}</style></defs><rect class="cls-1" width="1000" height="700"/><path class="cls-2" d="M303.41,350.35c0,73.78-70,133.58-124.93,133.58H101.93"/><path class="cls-2" d="M233.45,350a44.36,44.36,0,0,1-44.36,44.36H101.93"/><path class="cls-2" d="M101.93,216.07h76.55c55,0,124.93,59.8,124.93,133.58"/><path class="cls-2" d="M101.93,305.64h87.16A44.36,44.36,0,0,1,233.45,350"/><path class="cls-2" d="M696.59,349.65c0-73.78,70-133.58,124.93-133.58h76.55"/><path class="cls-2" d="M766.55,350a44.36,44.36,0,0,1,44.36-44.36h87.16"/><path class="cls-2" d="M898.07,483.93H821.52c-55,0-124.93-59.8-124.93-133.58"/><path class="cls-2" d="M898.07,394.36H810.91A44.36,44.36,0,0,1,766.55,350"/><polyline class="cls-2" points="898.08 350 898.08 177 375.95 177"/><line class="cls-2" x1="501.09" y1="177" x2="501.09" y2="350"/><polyline class="cls-2" points="898.08 350 898.08 523 375.95 523"/><line class="cls-2" x1="501.09" y1="523" x2="501.09" y2="350"/><polyline class="cls-2" points="101.92 350 101.92 523 624.05 523"/><polyline class="cls-2" points="101.92 350 101.92 177 624.05 177"/><circle class="cls-2" cx="501.09" cy="350" r="41.98"/></svg>