<?xml version="1.0" encoding="UTF-8"?>
<svg viewBox="0 0 500 500" xmlns="http://www.w3.org/2000/svg" xmlns:xlink="http://www.w3.org/1999/xlink" version="1.1">
 <!-- Generated by Pixelmator Pro 2.0.7 -->
 <path id="Ellipse" d="M500 250 C500 111.929 388.071 0 250 0 111.929 0 0 111.929 0 250 0 388.071 111.929 500 250 500 388.071 500 500 388.071 500 250 Z" fill="#000000" fill-opacity="1" stroke="none"/>
 <path id="􀉼" d="M157.551 293.25 C157.551 306.19 159.539 317.728 163.514 327.862 167.49 337.996 173.064 346.59 180.236 353.645 187.407 360.7 195.885 366.079 205.668 369.782 215.452 373.485 226.151 375.336 237.766 375.336 256.319 375.336 271.637 371.438 283.72 363.643 295.803 355.847 305.664 344.154 313.304 328.563 315.564 324.198 317.708 319.638 319.735 314.882 321.762 310.127 323.711 305.157 325.582 299.973 327.453 294.789 329.285 289.391 331.077 283.778 332.87 278.166 334.702 272.358 336.573 266.356 337.587 263.081 338.658 259.632 339.789 256.007 340.919 252.382 341.894 249.011 342.712 245.893 343.531 242.774 343.94 240.28 343.94 238.409 343.94 235.291 342.907 232.757 340.841 230.808 338.775 228.859 336.067 227.885 332.714 227.885 329.051 227.885 325.952 229.132 323.418 231.627 320.885 234.121 318.254 238.136 315.526 243.671 L299.272 277.815 C298.492 279.686 297.635 281.011 296.7 281.791 295.764 282.57 294.829 282.96 293.893 282.96 292.646 282.96 291.652 282.551 290.911 281.732 290.171 280.914 289.801 279.491 289.801 277.464 L289.801 154.803 C289.801 151.373 288.573 148.43 286.117 145.974 283.662 143.519 280.719 142.291 277.289 142.291 273.859 142.291 270.916 143.519 268.461 145.974 266.005 148.43 264.777 151.373 264.777 154.803 L264.777 242.502 C263.14 241.878 261.464 241.332 259.749 240.864 258.034 240.397 256.241 240.007 254.37 239.695 L254.37 137.965 C254.37 134.457 253.142 131.475 250.687 129.019 248.231 126.564 245.289 125.336 241.859 125.336 238.351 125.336 235.369 126.564 232.913 129.019 230.458 131.475 229.23 134.457 229.23 137.965 L229.23 238.409 C227.437 238.565 225.605 238.76 223.734 238.994 221.863 239.227 220.031 239.5 218.238 239.812 L218.238 147.904 C218.238 144.474 217.011 141.531 214.555 139.075 212.099 136.62 209.157 135.392 205.727 135.392 202.297 135.392 199.354 136.62 196.898 139.075 194.443 141.531 193.215 144.474 193.215 147.904 L193.215 247.763 C191.266 248.699 189.415 249.673 187.661 250.687 185.907 251.7 184.25 252.714 182.691 253.727 L182.691 184.27 C182.691 180.84 181.463 177.897 179.008 175.441 176.552 172.986 173.609 171.758 170.179 171.758 166.671 171.758 163.69 172.986 161.234 175.441 158.779 177.897 157.551 180.84 157.551 184.27 Z" fill="#ffffff" fill-opacity="1" stroke="none"/>
</svg>
