<?xml version="1.0" encoding="UTF-8"?>
<svg width="1000px" height="1000px" viewBox="0 0 1000 1000" xmlns="http://www.w3.org/2000/svg" xmlns:xlink="http://www.w3.org/1999/xlink" version="1.1">
 <!-- Generated by Pixelmator Pro 2.0.8 -->
 <path id="Ellipse" d="M1000 500 C1000 223.858 776.142 0 500 0 223.858 0 0 223.858 0 500 0 776.142 223.858 1000 500 1000 776.142 1000 1000 776.142 1000 500 Z" fill="#f2faff" fill-opacity="1" stroke="none"/>
 <path id="Ellipse-copy" d="M925 500 C925 265.279 734.721 75 500 75 265.279 75 75 265.279 75 500 75 734.721 265.279 925 500 925 734.721 925 925 734.721 925 500 Z" fill="#e6f4ff" fill-opacity="1" stroke="none"/>
 <path id="Ellipse-copy-1" d="M850 500 C850 306.7 693.3 150 500 150 306.7 150 150 306.7 150 500 150 693.3 306.7 850 500 850 693.3 850 850 693.3 850 500 Z" fill="#d9efff" fill-opacity="1" stroke="none"/>
 <path id="Ellipse-copy-2" d="M775 500 C775 348.122 651.878 225 500 225 348.122 225 225 348.122 225 500 225 651.878 348.122 775 500 775 651.878 775 775 651.878 775 500 Z" fill="#ffffff" fill-opacity="1" stroke="none"/>
</svg>
