<?xml version="1.0" encoding="UTF-8"?>
<svg width="1000px" height="1000px" viewBox="0 0 1000 1000" xmlns="http://www.w3.org/2000/svg" xmlns:xlink="http://www.w3.org/1999/xlink" version="1.1">
 <!-- Generated by Pixelmator Pro 2.0.8 -->
 <g id="New-Group">
  <path id="Ellipse-copy-3" d="M155 975 C155 961.193 143.807 950 130 950 116.193 950 105 961.193 105 975 105 988.807 116.193 1000 130 1000 143.807 1000 155 988.807 155 975 Z" fill="#e6f4ff" fill-opacity="1" stroke="none"/>
  <path id="Ellipse-copy-4" d="M261 975 C261 961.193 249.807 950 236 950 222.193 950 211 961.193 211 975 211 988.807 222.193 1000 236 1000 249.807 1000 261 988.807 261 975 Z" fill="#e6f4ff" fill-opacity="1" stroke="none"/>
  <path id="Ellipse-copy-5" d="M366 975 C366 961.193 354.807 950 341 950 327.193 950 316 961.193 316 975 316 988.807 327.193 1000 341 1000 354.807 1000 366 988.807 366 975 Z" fill="#e6f4ff" fill-opacity="1" stroke="none"/>
  <path id="Ellipse-copy-6" d="M472 975 C472 961.193 460.807 950 447 950 433.193 950 422 961.193 422 975 422 988.807 433.193 1000 447 1000 460.807 1000 472 988.807 472 975 Z" fill="#e6f4ff" fill-opacity="1" stroke="none"/>
  <path id="Ellipse-copy-10" d="M577 975 C577 961.193 565.807 950 552 950 538.193 950 527 961.193 527 975 527 988.807 538.193 1000 552 1000 565.807 1000 577 988.807 577 975 Z" fill="#e6f4ff" fill-opacity="1" stroke="none"/>
  <path id="Ellipse-copy-9" d="M683 975 C683 961.193 671.807 950 658 950 644.193 950 633 961.193 633 975 633 988.807 644.193 1000 658 1000 671.807 1000 683 988.807 683 975 Z" fill="#e6f4ff" fill-opacity="1" stroke="none"/>
  <path id="Ellipse-copy-8" d="M788 975 C788 961.193 776.807 950 763 950 749.193 950 738 961.193 738 975 738 988.807 749.193 1000 763 1000 776.807 1000 788 988.807 788 975 Z" fill="#e6f4ff" fill-opacity="1" stroke="none"/>
  <path id="Ellipse-copy-7" d="M894 975 C894 961.193 882.807 950 869 950 855.193 950 844 961.193 844 975 844 988.807 855.193 1000 869 1000 882.807 1000 894 988.807 894 975 Z" fill="#e6f4ff" fill-opacity="1" stroke="none"/>
  <path id="Ellipse-copy-3-1" d="M155 25 C155 11.193 143.807 0 130 0 116.193 0 105 11.193 105 25 105 38.807 116.193 50 130 50 143.807 50 155 38.807 155 25 Z" fill="#e6f4ff" fill-opacity="1" stroke="none"/>
  <path id="Ellipse-copy-2" d="M167 131.5 C167 110.789 150.211 94 129.5 94 108.789 94 92 110.789 92 131.5 92 152.211 108.789 169 129.5 169 150.211 169 167 152.211 167 131.5 Z" fill="#cce9ff" fill-opacity="1" stroke="none"/>
  <path id="Ellipse-copy-72" d="M378 342.5 C378 321.789 361.211 305 340.5 305 319.789 305 303 321.789 303 342.5 303 363.211 319.789 380 340.5 380 361.211 380 378 363.211 378 342.5 Z" fill="#cceaff" fill-opacity="1" stroke="none"/>
  <path id="Ellipse-copy-73" d="M378 448.5 C378 427.789 361.211 411 340.5 411 319.789 411 303 427.789 303 448.5 303 469.211 319.789 486 340.5 486 361.211 486 378 469.211 378 448.5 Z" fill="#cceaff" fill-opacity="1" stroke="none"/>
  <path id="Ellipse-copy-80" d="M484 342.5 C484 321.789 467.211 305 446.5 305 425.789 305 409 321.789 409 342.5 409 363.211 425.789 380 446.5 380 467.211 380 484 363.211 484 342.5 Z" fill="#cceaff" fill-opacity="1" stroke="none"/>
  <path id="Ellipse-copy-81" d="M590 342.5 C590 321.789 573.211 305 552.5 305 531.789 305 515 321.789 515 342.5 515 363.211 531.789 380 552.5 380 573.211 380 590 363.211 590 342.5 Z" fill="#cceaff" fill-opacity="1" stroke="none"/>
  <path id="Ellipse-copy-83" d="M485 659.5 C485 638.789 468.211 622 447.5 622 426.789 622 410 638.789 410 659.5 410 680.211 426.789 697 447.5 697 468.211 697 485 680.211 485 659.5 Z" fill="#cceaff" fill-opacity="1" stroke="none"/>
  <path id="Ellipse-copy-82" d="M591 659.5 C591 638.789 574.211 622 553.5 622 532.789 622 516 638.789 516 659.5 516 680.211 532.789 697 553.5 697 574.211 697 591 680.211 591 659.5 Z" fill="#cceaff" fill-opacity="1" stroke="none"/>
  <path id="Ellipse-copy-74" d="M378 553.5 C378 532.789 361.211 516 340.5 516 319.789 516 303 532.789 303 553.5 303 574.211 319.789 591 340.5 591 361.211 591 378 574.211 378 553.5 Z" fill="#cceaff" fill-opacity="1" stroke="none"/>
  <path id="Ellipse-copy-75" d="M378 659.5 C378 638.789 361.211 622 340.5 622 319.789 622 303 638.789 303 659.5 303 680.211 319.789 697 340.5 697 361.211 697 378 680.211 378 659.5 Z" fill="#cceaff" fill-opacity="1" stroke="none"/>
  <path id="Ellipse-copy-79" d="M695 342.5 C695 321.789 678.211 305 657.5 305 636.789 305 620 321.789 620 342.5 620 363.211 636.789 380 657.5 380 678.211 380 695 363.211 695 342.5 Z" fill="#cceaff" fill-opacity="1" stroke="none"/>
  <path id="Ellipse-copy-78" d="M695 448.5 C695 427.789 678.211 411 657.5 411 636.789 411 620 427.789 620 448.5 620 469.211 636.789 486 657.5 486 678.211 486 695 469.211 695 448.5 Z" fill="#cceaff" fill-opacity="1" stroke="none"/>
  <path id="Ellipse-copy-77" d="M695 553.5 C695 532.789 678.211 516 657.5 516 636.789 516 620 532.789 620 553.5 620 574.211 636.789 591 657.5 591 678.211 591 695 574.211 695 553.5 Z" fill="#cceaff" fill-opacity="1" stroke="none"/>
  <path id="Ellipse-copy-76" d="M695 659.5 C695 638.789 678.211 622 657.5 622 636.789 622 620 638.789 620 659.5 620 680.211 636.789 697 657.5 697 678.211 697 695 680.211 695 659.5 Z" fill="#cceaff" fill-opacity="1" stroke="none"/>
  <path id="Ellipse-copy-19" d="M167 237.5 C167 216.789 150.211 200 129.5 200 108.789 200 92 216.789 92 237.5 92 258.211 108.789 275 129.5 275 150.211 275 167 258.211 167 237.5 Z" fill="#cce9ff" fill-opacity="1" stroke="none"/>
  <path id="Ellipse-copy-34" d="M273 131.5 C273 110.789 256.211 94 235.5 94 214.789 94 198 110.789 198 131.5 198 152.211 214.789 169 235.5 169 256.211 169 273 152.211 273 131.5 Z" fill="#cce9ff" fill-opacity="1" stroke="none"/>
  <path id="Ellipse-copy-35" d="M378 131.5 C378 110.789 361.211 94 340.5 94 319.789 94 303 110.789 303 131.5 303 152.211 319.789 169 340.5 169 361.211 169 378 152.211 378 131.5 Z" fill="#cce9ff" fill-opacity="1" stroke="none"/>
  <path id="Ellipse-copy-36" d="M484 131.5 C484 110.789 467.211 94 446.5 94 425.789 94 409 110.789 409 131.5 409 152.211 425.789 169 446.5 169 467.211 169 484 152.211 484 131.5 Z" fill="#cce9ff" fill-opacity="1" stroke="none"/>
  <path id="Ellipse-copy-37" d="M590 131.5 C590 110.789 573.211 94 552.5 94 531.789 94 515 110.789 515 131.5 515 152.211 531.789 169 552.5 169 573.211 169 590 152.211 590 131.5 Z" fill="#cce9ff" fill-opacity="1" stroke="none"/>
  <path id="Ellipse-copy-38" d="M695 131.5 C695 110.789 678.211 94 657.5 94 636.789 94 620 110.789 620 131.5 620 152.211 636.789 169 657.5 169 678.211 169 695 152.211 695 131.5 Z" fill="#cce9ff" fill-opacity="1" stroke="none"/>
  <path id="Ellipse-copy-39" d="M800 131.5 C800 110.789 783.211 94 762.5 94 741.789 94 725 110.789 725 131.5 725 152.211 741.789 169 762.5 169 783.211 169 800 152.211 800 131.5 Z" fill="#cce9ff" fill-opacity="1" stroke="none"/>
  <path id="Ellipse-copy-45" d="M273 870.5 C273 849.789 256.211 833 235.5 833 214.789 833 198 849.789 198 870.5 198 891.211 214.789 908 235.5 908 256.211 908 273 891.211 273 870.5 Z" fill="#cce9ff" fill-opacity="1" stroke="none"/>
  <path id="Ellipse-copy-44" d="M378 870.5 C378 849.789 361.211 833 340.5 833 319.789 833 303 849.789 303 870.5 303 891.211 319.789 908 340.5 908 361.211 908 378 891.211 378 870.5 Z" fill="#cce9ff" fill-opacity="1" stroke="none"/>
  <path id="Ellipse-copy-43" d="M484 870.5 C484 849.789 467.211 833 446.5 833 425.789 833 409 849.789 409 870.5 409 891.211 425.789 908 446.5 908 467.211 908 484 891.211 484 870.5 Z" fill="#cce9ff" fill-opacity="1" stroke="none"/>
  <path id="Ellipse-copy-42" d="M590 870.5 C590 849.789 573.211 833 552.5 833 531.789 833 515 849.789 515 870.5 515 891.211 531.789 908 552.5 908 573.211 908 590 891.211 590 870.5 Z" fill="#cce9ff" fill-opacity="1" stroke="none"/>
  <path id="Ellipse-copy-41" d="M695 870.5 C695 849.789 678.211 833 657.5 833 636.789 833 620 849.789 620 870.5 620 891.211 636.789 908 657.5 908 678.211 908 695 891.211 695 870.5 Z" fill="#cce9ff" fill-opacity="1" stroke="none"/>
  <path id="Ellipse-copy-40" d="M800 870.5 C800 849.789 783.211 833 762.5 833 741.789 833 725 849.789 725 870.5 725 891.211 741.789 908 762.5 908 783.211 908 800 891.211 800 870.5 Z" fill="#cce9ff" fill-opacity="1" stroke="none"/>
  <path id="Ellipse-copy-20" d="M167 870.5 C167 849.789 150.211 833 129.5 833 108.789 833 92 849.789 92 870.5 92 891.211 108.789 908 129.5 908 150.211 908 167 891.211 167 870.5 Z" fill="#cce9ff" fill-opacity="1" stroke="none"/>
  <path id="Ellipse-copy-21" d="M167 764.5 C167 743.789 150.211 727 129.5 727 108.789 727 92 743.789 92 764.5 92 785.211 108.789 802 129.5 802 150.211 802 167 785.211 167 764.5 Z" fill="#cce9ff" fill-opacity="1" stroke="none"/>
  <path id="Ellipse-copy-22" d="M167 659.5 C167 638.789 150.211 622 129.5 622 108.789 622 92 638.789 92 659.5 92 680.211 108.789 697 129.5 697 150.211 697 167 680.211 167 659.5 Z" fill="#cce9ff" fill-opacity="1" stroke="none"/>
  <path id="Ellipse-copy-23" d="M167 553.5 C167 532.789 150.211 516 129.5 516 108.789 516 92 532.789 92 553.5 92 574.211 108.789 591 129.5 591 150.211 591 167 574.211 167 553.5 Z" fill="#cce9ff" fill-opacity="1" stroke="none"/>
  <path id="Ellipse-copy-24" d="M167 448.5 C167 427.789 150.211 411 129.5 411 108.789 411 92 427.789 92 448.5 92 469.211 108.789 486 129.5 486 150.211 486 167 469.211 167 448.5 Z" fill="#cce9ff" fill-opacity="1" stroke="none"/>
  <path id="Ellipse-copy-25" d="M167 342.5 C167 321.789 150.211 305 129.5 305 108.789 305 92 321.789 92 342.5 92 363.211 108.789 380 129.5 380 150.211 380 167 363.211 167 342.5 Z" fill="#cce9ff" fill-opacity="1" stroke="none"/>
  <path id="Ellipse-copy-33" d="M906 131.5 C906 110.789 889.211 94 868.5 94 847.789 94 831 110.789 831 131.5 831 152.211 847.789 169 868.5 169 889.211 169 906 152.211 906 131.5 Z" fill="#cce9ff" fill-opacity="1" stroke="none"/>
  <path id="Ellipse-copy-32" d="M906 237.5 C906 216.789 889.211 200 868.5 200 847.789 200 831 216.789 831 237.5 831 258.211 847.789 275 868.5 275 889.211 275 906 258.211 906 237.5 Z" fill="#cce9ff" fill-opacity="1" stroke="none"/>
  <path id="Ellipse-copy-31" d="M906 870.5 C906 849.789 889.211 833 868.5 833 847.789 833 831 849.789 831 870.5 831 891.211 847.789 908 868.5 908 889.211 908 906 891.211 906 870.5 Z" fill="#cce9ff" fill-opacity="1" stroke="none"/>
  <path id="Ellipse-copy-30" d="M906 764.5 C906 743.789 889.211 727 868.5 727 847.789 727 831 743.789 831 764.5 831 785.211 847.789 802 868.5 802 889.211 802 906 785.211 906 764.5 Z" fill="#cce9ff" fill-opacity="1" stroke="none"/>
  <path id="Ellipse-copy-29" d="M906 659.5 C906 638.789 889.211 622 868.5 622 847.789 622 831 638.789 831 659.5 831 680.211 847.789 697 868.5 697 889.211 697 906 680.211 906 659.5 Z" fill="#cce9ff" fill-opacity="1" stroke="none"/>
  <path id="Ellipse-copy-28" d="M906 553.5 C906 532.789 889.211 516 868.5 516 847.789 516 831 532.789 831 553.5 831 574.211 847.789 591 868.5 591 889.211 591 906 574.211 906 553.5 Z" fill="#cce9ff" fill-opacity="1" stroke="none"/>
  <path id="Ellipse-copy-27" d="M906 448.5 C906 427.789 889.211 411 868.5 411 847.789 411 831 427.789 831 448.5 831 469.211 847.789 486 868.5 486 889.211 486 906 469.211 906 448.5 Z" fill="#cce9ff" fill-opacity="1" stroke="none"/>
  <path id="Ellipse-copy-26" d="M906 342.5 C906 321.789 889.211 305 868.5 305 847.789 305 831 321.789 831 342.5 831 363.211 847.789 380 868.5 380 889.211 380 906 363.211 906 342.5 Z" fill="#cce9ff" fill-opacity="1" stroke="none"/>
  <path id="Ellipse-copy-11" d="M50 131 C50 117.193 38.807 106 25 106 11.193 106 0 117.193 0 131 0 144.807 11.193 156 25 156 38.807 156 50 144.807 50 131 Z" fill="#e6f4ff" fill-opacity="1" stroke="none"/>
  <path id="Ellipse-copy-12" d="M50 237 C50 223.193 38.807 212 25 212 11.193 212 0 223.193 0 237 0 250.807 11.193 262 25 262 38.807 262 50 250.807 50 237 Z" fill="#e6f4ff" fill-opacity="1" stroke="none"/>
  <path id="Ellipse-copy-13" d="M50 342 C50 328.193 38.807 317 25 317 11.193 317 0 328.193 0 342 0 355.807 11.193 367 25 367 38.807 367 50 355.807 50 342 Z" fill="#e6f4ff" fill-opacity="1" stroke="none"/>
  <path id="Ellipse-copy-14" d="M50 448 C50 434.193 38.807 423 25 423 11.193 423 0 434.193 0 448 0 461.807 11.193 473 25 473 38.807 473 50 461.807 50 448 Z" fill="#e6f4ff" fill-opacity="1" stroke="none"/>
  <path id="Ellipse-copy-18" d="M50 553 C50 539.193 38.807 528 25 528 11.193 528 0 539.193 0 553 0 566.807 11.193 578 25 578 38.807 578 50 566.807 50 553 Z" fill="#e6f4ff" fill-opacity="1" stroke="none"/>
  <path id="Ellipse-copy-17" d="M50 659 C50 645.193 38.807 634 25 634 11.193 634 0 645.193 0 659 0 672.807 11.193 684 25 684 38.807 684 50 672.807 50 659 Z" fill="#e6f4ff" fill-opacity="1" stroke="none"/>
  <path id="Ellipse-copy-16" d="M50 764 C50 750.193 38.807 739 25 739 11.193 739 0 750.193 0 764 0 777.807 11.193 789 25 789 38.807 789 50 777.807 50 764 Z" fill="#e6f4ff" fill-opacity="1" stroke="none"/>
  <path id="Ellipse-copy-51" d="M50 237 C50 223.193 38.807 212 25 212 11.193 212 0 223.193 0 237 0 250.807 11.193 262 25 262 38.807 262 50 250.807 50 237 Z" fill="#e6f4ff" fill-opacity="1" stroke="none"/>
  <path id="Ellipse-copy-50" d="M50 342 C50 328.193 38.807 317 25 317 11.193 317 0 328.193 0 342 0 355.807 11.193 367 25 367 38.807 367 50 355.807 50 342 Z" fill="#e6f4ff" fill-opacity="1" stroke="none"/>
  <path id="Ellipse-copy-49" d="M50 448 C50 434.193 38.807 423 25 423 11.193 423 0 434.193 0 448 0 461.807 11.193 473 25 473 38.807 473 50 461.807 50 448 Z" fill="#e6f4ff" fill-opacity="1" stroke="none"/>
  <path id="Ellipse-copy-48" d="M50 553 C50 539.193 38.807 528 25 528 11.193 528 0 539.193 0 553 0 566.807 11.193 578 25 578 38.807 578 50 566.807 50 553 Z" fill="#e6f4ff" fill-opacity="1" stroke="none"/>
  <path id="Ellipse-copy-47" d="M50 659 C50 645.193 38.807 634 25 634 11.193 634 0 645.193 0 659 0 672.807 11.193 684 25 684 38.807 684 50 672.807 50 659 Z" fill="#e6f4ff" fill-opacity="1" stroke="none"/>
  <path id="Ellipse-copy-46" d="M50 764 C50 750.193 38.807 739 25 739 11.193 739 0 750.193 0 764 0 777.807 11.193 789 25 789 38.807 789 50 777.807 50 764 Z" fill="#e6f4ff" fill-opacity="1" stroke="none"/>
  <path id="Ellipse-copy-57" d="M261 237 C261 223.193 249.807 212 236 212 222.193 212 211 223.193 211 237 211 250.807 222.193 262 236 262 249.807 262 261 250.807 261 237 Z" fill="#e6f5ff" fill-opacity="1" stroke="none"/>
  <path id="Ellipse-copy-56" d="M261 342 C261 328.193 249.807 317 236 317 222.193 317 211 328.193 211 342 211 355.807 222.193 367 236 367 249.807 367 261 355.807 261 342 Z" fill="#e6f5ff" fill-opacity="1" stroke="none"/>
  <path id="Ellipse-copy-55" d="M261 448 C261 434.193 249.807 423 236 423 222.193 423 211 434.193 211 448 211 461.807 222.193 473 236 473 249.807 473 261 461.807 261 448 Z" fill="#e6f5ff" fill-opacity="1" stroke="none"/>
  <path id="Ellipse-copy-54" d="M261 553 C261 539.193 249.807 528 236 528 222.193 528 211 539.193 211 553 211 566.807 222.193 578 236 578 249.807 578 261 566.807 261 553 Z" fill="#e6f5ff" fill-opacity="1" stroke="none"/>
  <path id="Ellipse-copy-53" d="M261 659 C261 645.193 249.807 634 236 634 222.193 634 211 645.193 211 659 211 672.807 222.193 684 236 684 249.807 684 261 672.807 261 659 Z" fill="#e6f5ff" fill-opacity="1" stroke="none"/>
  <path id="Ellipse-copy-52" d="M261 764 C261 750.193 249.807 739 236 739 222.193 739 211 750.193 211 764 211 777.807 222.193 789 236 789 249.807 789 261 777.807 261 764 Z" fill="#e6f5ff" fill-opacity="1" stroke="none"/>
  <path id="Ellipse-copy-63" d="M788 237 C788 223.193 776.807 212 763 212 749.193 212 738 223.193 738 237 738 250.807 749.193 262 763 262 776.807 262 788 250.807 788 237 Z" fill="#e6f5ff" fill-opacity="1" stroke="none"/>
  <path id="Ellipse-copy-62" d="M788 342 C788 328.193 776.807 317 763 317 749.193 317 738 328.193 738 342 738 355.807 749.193 367 763 367 776.807 367 788 355.807 788 342 Z" fill="#e6f5ff" fill-opacity="1" stroke="none"/>
  <path id="Ellipse-copy-61" d="M788 448 C788 434.193 776.807 423 763 423 749.193 423 738 434.193 738 448 738 461.807 749.193 473 763 473 776.807 473 788 461.807 788 448 Z" fill="#e6f5ff" fill-opacity="1" stroke="none"/>
  <path id="Ellipse-copy-60" d="M788 553 C788 539.193 776.807 528 763 528 749.193 528 738 539.193 738 553 738 566.807 749.193 578 763 578 776.807 578 788 566.807 788 553 Z" fill="#e6f5ff" fill-opacity="1" stroke="none"/>
  <path id="Ellipse-copy-59" d="M788 659 C788 645.193 776.807 634 763 634 749.193 634 738 645.193 738 659 738 672.807 749.193 684 763 684 776.807 684 788 672.807 788 659 Z" fill="#e6f5ff" fill-opacity="1" stroke="none"/>
  <path id="Ellipse-copy-58" d="M788 764 C788 750.193 776.807 739 763 739 749.193 739 738 750.193 738 764 738 777.807 749.193 789 763 789 776.807 789 788 777.807 788 764 Z" fill="#e6f5ff" fill-opacity="1" stroke="none"/>
  <path id="Ellipse-copy-15" d="M50 870 C50 856.193 38.807 845 25 845 11.193 845 0 856.193 0 870 0 883.807 11.193 895 25 895 38.807 895 50 883.807 50 870 Z" fill="#e6f4ff" fill-opacity="1" stroke="none"/>
  <path id="Ellipse-copy-11-1" d="M1000 131 C1000 117.193 988.807 106 975 106 961.193 106 950 117.193 950 131 950 144.807 961.193 156 975 156 988.807 156 1000 144.807 1000 131 Z" fill="#e6f4ff" fill-opacity="1" stroke="none"/>
  <path id="Ellipse-copy-12-1" d="M1000 237 C1000 223.193 988.807 212 975 212 961.193 212 950 223.193 950 237 950 250.807 961.193 262 975 262 988.807 262 1000 250.807 1000 237 Z" fill="#e6f4ff" fill-opacity="1" stroke="none"/>
  <path id="Ellipse-copy-13-1" d="M1000 342 C1000 328.193 988.807 317 975 317 961.193 317 950 328.193 950 342 950 355.807 961.193 367 975 367 988.807 367 1000 355.807 1000 342 Z" fill="#e6f4ff" fill-opacity="1" stroke="none"/>
  <path id="Ellipse-copy-14-1" d="M1000 448 C1000 434.193 988.807 423 975 423 961.193 423 950 434.193 950 448 950 461.807 961.193 473 975 473 988.807 473 1000 461.807 1000 448 Z" fill="#e6f4ff" fill-opacity="1" stroke="none"/>
  <path id="Ellipse-copy-18-1" d="M1000 553 C1000 539.193 988.807 528 975 528 961.193 528 950 539.193 950 553 950 566.807 961.193 578 975 578 988.807 578 1000 566.807 1000 553 Z" fill="#e6f4ff" fill-opacity="1" stroke="none"/>
  <path id="Ellipse-copy-17-1" d="M1000 659 C1000 645.193 988.807 634 975 634 961.193 634 950 645.193 950 659 950 672.807 961.193 684 975 684 988.807 684 1000 672.807 1000 659 Z" fill="#e6f4ff" fill-opacity="1" stroke="none"/>
  <path id="Ellipse-copy-16-1" d="M1000 764 C1000 750.193 988.807 739 975 739 961.193 739 950 750.193 950 764 950 777.807 961.193 789 975 789 988.807 789 1000 777.807 1000 764 Z" fill="#e6f4ff" fill-opacity="1" stroke="none"/>
  <path id="Ellipse-copy-15-1" d="M1000 870 C1000 856.193 988.807 845 975 845 961.193 845 950 856.193 950 870 950 883.807 961.193 895 975 895 988.807 895 1000 883.807 1000 870 Z" fill="#e6f4ff" fill-opacity="1" stroke="none"/>
  <path id="Ellipse-copy-4-1" d="M261 25 C261 11.193 249.807 0 236 0 222.193 0 211 11.193 211 25 211 38.807 222.193 50 236 50 249.807 50 261 38.807 261 25 Z" fill="#e6f4ff" fill-opacity="1" stroke="none"/>
  <path id="Ellipse-copy-5-1" d="M366 25 C366 11.193 354.807 0 341 0 327.193 0 316 11.193 316 25 316 38.807 327.193 50 341 50 354.807 50 366 38.807 366 25 Z" fill="#e6f4ff" fill-opacity="1" stroke="none"/>
  <path id="Ellipse-copy-6-1" d="M472 25 C472 11.193 460.807 0 447 0 433.193 0 422 11.193 422 25 422 38.807 433.193 50 447 50 460.807 50 472 38.807 472 25 Z" fill="#e6f4ff" fill-opacity="1" stroke="none"/>
  <path id="Ellipse-copy-10-1" d="M577 25 C577 11.193 565.807 0 552 0 538.193 0 527 11.193 527 25 527 38.807 538.193 50 552 50 565.807 50 577 38.807 577 25 Z" fill="#e6f4ff" fill-opacity="1" stroke="none"/>
  <path id="Ellipse-copy-9-1" d="M683 25 C683 11.193 671.807 0 658 0 644.193 0 633 11.193 633 25 633 38.807 644.193 50 658 50 671.807 50 683 38.807 683 25 Z" fill="#e6f4ff" fill-opacity="1" stroke="none"/>
  <path id="Ellipse-copy-67" d="M367 237 C367 223.193 355.807 212 342 212 328.193 212 317 223.193 317 237 317 250.807 328.193 262 342 262 355.807 262 367 250.807 367 237 Z" fill="#e6f5ff" fill-opacity="1" stroke="none"/>
  <path id="Ellipse-copy-66" d="M473 237 C473 223.193 461.807 212 448 212 434.193 212 423 223.193 423 237 423 250.807 434.193 262 448 262 461.807 262 473 250.807 473 237 Z" fill="#e6f5ff" fill-opacity="1" stroke="none"/>
  <path id="Ellipse-copy-65" d="M578 237 C578 223.193 566.807 212 553 212 539.193 212 528 223.193 528 237 528 250.807 539.193 262 553 262 566.807 262 578 250.807 578 237 Z" fill="#e6f5ff" fill-opacity="1" stroke="none"/>
  <path id="Ellipse-copy-85" d="M473 448 C473 434.193 461.807 423 448 423 434.193 423 423 434.193 423 448 423 461.807 434.193 473 448 473 461.807 473 473 461.807 473 448 Z" fill="#e6f5ff" fill-opacity="1" stroke="none"/>
  <path id="Ellipse-copy-84" d="M578 448 C578 434.193 566.807 423 553 423 539.193 423 528 434.193 528 448 528 461.807 539.193 473 553 473 566.807 473 578 461.807 578 448 Z" fill="#e6f5ff" fill-opacity="1" stroke="none"/>
  <path id="Ellipse-copy-87" d="M473 553 C473 539.193 461.807 528 448 528 434.193 528 423 539.193 423 553 423 566.807 434.193 578 448 578 461.807 578 473 566.807 473 553 Z" fill="#e6f5ff" fill-opacity="1" stroke="none"/>
  <path id="Ellipse-copy-86" d="M578 553 C578 539.193 566.807 528 553 528 539.193 528 528 539.193 528 553 528 566.807 539.193 578 553 578 566.807 578 578 566.807 578 553 Z" fill="#e6f5ff" fill-opacity="1" stroke="none"/>
  <path id="Ellipse-copy-64" d="M684 237 C684 223.193 672.807 212 659 212 645.193 212 634 223.193 634 237 634 250.807 645.193 262 659 262 672.807 262 684 250.807 684 237 Z" fill="#e6f5ff" fill-opacity="1" stroke="none"/>
  <path id="Ellipse-copy-71" d="M367 766 C367 752.193 355.807 741 342 741 328.193 741 317 752.193 317 766 317 779.807 328.193 791 342 791 355.807 791 367 779.807 367 766 Z" fill="#e6f5ff" fill-opacity="1" stroke="none"/>
  <path id="Ellipse-copy-70" d="M473 766 C473 752.193 461.807 741 448 741 434.193 741 423 752.193 423 766 423 779.807 434.193 791 448 791 461.807 791 473 779.807 473 766 Z" fill="#e6f5ff" fill-opacity="1" stroke="none"/>
  <path id="Ellipse-copy-69" d="M578 766 C578 752.193 566.807 741 553 741 539.193 741 528 752.193 528 766 528 779.807 539.193 791 553 791 566.807 791 578 779.807 578 766 Z" fill="#e6f5ff" fill-opacity="1" stroke="none"/>
  <path id="Ellipse-copy-68" d="M684 766 C684 752.193 672.807 741 659 741 645.193 741 634 752.193 634 766 634 779.807 645.193 791 659 791 672.807 791 684 779.807 684 766 Z" fill="#e6f5ff" fill-opacity="1" stroke="none"/>
  <path id="Ellipse-copy-8-1" d="M788 25 C788 11.193 776.807 0 763 0 749.193 0 738 11.193 738 25 738 38.807 749.193 50 763 50 776.807 50 788 38.807 788 25 Z" fill="#e6f4ff" fill-opacity="1" stroke="none"/>
  <path id="Ellipse-copy-7-1" d="M894 25 C894 11.193 882.807 0 869 0 855.193 0 844 11.193 844 25 844 38.807 855.193 50 869 50 882.807 50 894 38.807 894 25 Z" fill="#e6f4ff" fill-opacity="1" stroke="none"/>
 </g>
</svg>
