<?xml version="1.0" encoding="UTF-8"?>
<svg width="1000px" height="1000px" viewBox="0 0 1000 1000" xmlns="http://www.w3.org/2000/svg" xmlns:xlink="http://www.w3.org/1999/xlink" version="1.1">
 <!-- Generated by Pixelmator Pro 2.0.8 -->
 <path id="Ellipse-copy-3" d="M208 74 C208 60.193 196.807 49 183 49 169.193 49 158 60.193 158 74 158 87.807 169.193 99 183 99 196.807 99 208 87.807 208 74 Z" fill="#e6f4ff" fill-opacity="1" stroke="none"/>
 <path id="Ellipse-copy-2" d="M167 180.5 C167 159.789 150.211 143 129.5 143 108.789 143 92 159.789 92 180.5 92 201.211 108.789 218 129.5 218 150.211 218 167 201.211 167 180.5 Z" fill="#cce9ff" fill-opacity="1" stroke="none"/>
 <path id="Ellipse-copy-34" d="M273 180.5 C273 159.789 256.211 143 235.5 143 214.789 143 198 159.789 198 180.5 198 201.211 214.789 218 235.5 218 256.211 218 273 201.211 273 180.5 Z" fill="#cce9ff" fill-opacity="1" stroke="none"/>
 <path id="Ellipse-copy-35" d="M378 180.5 C378 159.789 361.211 143 340.5 143 319.789 143 303 159.789 303 180.5 303 201.211 319.789 218 340.5 218 361.211 218 378 201.211 378 180.5 Z" fill="#cce9ff" fill-opacity="1" stroke="none"/>
 <path id="Ellipse-copy-36" d="M484 180.5 C484 159.789 467.211 143 446.5 143 425.789 143 409 159.789 409 180.5 409 201.211 425.789 218 446.5 218 467.211 218 484 201.211 484 180.5 Z" fill="#cce9ff" fill-opacity="1" stroke="none"/>
 <path id="Ellipse-copy-37" d="M590 180.5 C590 159.789 573.211 143 552.5 143 531.789 143 515 159.789 515 180.5 515 201.211 531.789 218 552.5 218 573.211 218 590 201.211 590 180.5 Z" fill="#cce9ff" fill-opacity="1" stroke="none"/>
 <path id="Ellipse-copy-38" d="M695 180.5 C695 159.789 678.211 143 657.5 143 636.789 143 620 159.789 620 180.5 620 201.211 636.789 218 657.5 218 678.211 218 695 201.211 695 180.5 Z" fill="#cce9ff" fill-opacity="1" stroke="none"/>
 <path id="Ellipse-copy-39" d="M800 180.5 C800 159.789 783.211 143 762.5 143 741.789 143 725 159.789 725 180.5 725 201.211 741.789 218 762.5 218 783.211 218 800 201.211 800 180.5 Z" fill="#cce9ff" fill-opacity="1" stroke="none"/>
 <path id="Ellipse-copy-33" d="M906 180.5 C906 159.789 889.211 143 868.5 143 847.789 143 831 159.789 831 180.5 831 201.211 847.789 218 868.5 218 889.211 218 906 201.211 906 180.5 Z" fill="#cce9ff" fill-opacity="1" stroke="none"/>
 <path id="Ellipse-copy-4" d="M314 74 C314 60.193 302.807 49 289 49 275.193 49 264 60.193 264 74 264 87.807 275.193 99 289 99 302.807 99 314 87.807 314 74 Z" fill="#e6f4ff" fill-opacity="1" stroke="none"/>
 <path id="Ellipse-copy-5" d="M419 74 C419 60.193 407.807 49 394 49 380.193 49 369 60.193 369 74 369 87.807 380.193 99 394 99 407.807 99 419 87.807 419 74 Z" fill="#e6f4ff" fill-opacity="1" stroke="none"/>
 <path id="Ellipse-copy-6" d="M525 74 C525 60.193 513.807 49 500 49 486.193 49 475 60.193 475 74 475 87.807 486.193 99 500 99 513.807 99 525 87.807 525 74 Z" fill="#e6f4ff" fill-opacity="1" stroke="none"/>
 <path id="Ellipse-copy-10" d="M630 74 C630 60.193 618.807 49 605 49 591.193 49 580 60.193 580 74 580 87.807 591.193 99 605 99 618.807 99 630 87.807 630 74 Z" fill="#e6f4ff" fill-opacity="1" stroke="none"/>
 <path id="Ellipse-copy-9" d="M736 74 C736 60.193 724.807 49 711 49 697.193 49 686 60.193 686 74 686 87.807 697.193 99 711 99 724.807 99 736 87.807 736 74 Z" fill="#e6f4ff" fill-opacity="1" stroke="none"/>
 <path id="Ellipse-copy-8" d="M841 74 C841 60.193 829.807 49 816 49 802.193 49 791 60.193 791 74 791 87.807 802.193 99 816 99 829.807 99 841 87.807 841 74 Z" fill="#e6f4ff" fill-opacity="1" stroke="none"/>
 <path id="Ellipse-copy-16" d="M208 287 C208 273.193 196.807 262 183 262 169.193 262 158 273.193 158 287 158 300.807 169.193 312 183 312 196.807 312 208 300.807 208 287 Z" fill="#e6f4ff" fill-opacity="1" stroke="none"/>
 <path id="Ellipse-copy-15" d="M314 287 C314 273.193 302.807 262 289 262 275.193 262 264 273.193 264 287 264 300.807 275.193 312 289 312 302.807 312 314 300.807 314 287 Z" fill="#e6f4ff" fill-opacity="1" stroke="none"/>
 <path id="Ellipse-copy-14" d="M419 287 C419 273.193 407.807 262 394 262 380.193 262 369 273.193 369 287 369 300.807 380.193 312 394 312 407.807 312 419 300.807 419 287 Z" fill="#e6f4ff" fill-opacity="1" stroke="none"/>
 <path id="Ellipse-copy-7" d="M525 287 C525 273.193 513.807 262 500 262 486.193 262 475 273.193 475 287 475 300.807 486.193 312 500 312 513.807 312 525 300.807 525 287 Z" fill="#e6f4ff" fill-opacity="1" stroke="none"/>
 <path id="Ellipse-copy-13" d="M630 287 C630 273.193 618.807 262 605 262 591.193 262 580 273.193 580 287 580 300.807 591.193 312 605 312 618.807 312 630 300.807 630 287 Z" fill="#e6f4ff" fill-opacity="1" stroke="none"/>
 <path id="Ellipse-copy-12" d="M736 287 C736 273.193 724.807 262 711 262 697.193 262 686 273.193 686 287 686 300.807 697.193 312 711 312 724.807 312 736 300.807 736 287 Z" fill="#e6f4ff" fill-opacity="1" stroke="none"/>
 <path id="Ellipse-copy-11" d="M841 287 C841 273.193 829.807 262 816 262 802.193 262 791 273.193 791 287 791 300.807 802.193 312 816 312 829.807 312 841 300.807 841 287 Z" fill="#e6f4ff" fill-opacity="1" stroke="none"/>
 <path id="Ellipse-copy-69" d="M946 287 C946 273.193 934.807 262 921 262 907.193 262 896 273.193 896 287 896 300.807 907.193 312 921 312 934.807 312 946 300.807 946 287 Z" fill="#e6f4ff" fill-opacity="1" stroke="none"/>
 <path id="Ellipse-copy-70" d="M103 287 C103 273.193 91.807 262 78 262 64.193 262 53 273.193 53 287 53 300.807 64.193 312 78 312 91.807 312 103 300.807 103 287 Z" fill="#e6f4ff" fill-opacity="1" stroke="none"/>
 <path id="Ellipse-copy-71" d="M103 500 C103 486.193 91.807 475 78 475 64.193 475 53 486.193 53 500 53 513.807 64.193 525 78 525 91.807 525 103 513.807 103 500 Z" fill="#e6f4ff" fill-opacity="1" stroke="none"/>
 <path id="Ellipse-copy-72" d="M103 713 C103 699.193 91.807 688 78 688 64.193 688 53 699.193 53 713 53 726.807 64.193 738 78 738 91.807 738 103 726.807 103 713 Z" fill="#e6f4ff" fill-opacity="1" stroke="none"/>
 <path id="Ellipse-copy-73" d="M946 713 C946 699.193 934.807 688 921 688 907.193 688 896 699.193 896 713 896 726.807 907.193 738 921 738 934.807 738 946 726.807 946 713 Z" fill="#e6f4ff" fill-opacity="1" stroke="none"/>
 <path id="Ellipse-copy-74" d="M946 500 C946 486.193 934.807 475 921 475 907.193 475 896 486.193 896 500 896 513.807 907.193 525 921 525 934.807 525 946 513.807 946 500 Z" fill="#e6f4ff" fill-opacity="1" stroke="none"/>
 <path id="Ellipse-copy-24" d="M167 393.5 C167 372.789 150.211 356 129.5 356 108.789 356 92 372.789 92 393.5 92 414.211 108.789 431 129.5 431 150.211 431 167 414.211 167 393.5 Z" fill="#cce9ff" fill-opacity="1" stroke="none"/>
 <path id="Ellipse-copy-46" d="M273 393.5 C273 372.789 256.211 356 235.5 356 214.789 356 198 372.789 198 393.5 198 414.211 214.789 431 235.5 431 256.211 431 273 414.211 273 393.5 Z" fill="#cce9ff" fill-opacity="1" stroke="none"/>
 <path id="Ellipse-copy-45" d="M378 393.5 C378 372.789 361.211 356 340.5 356 319.789 356 303 372.789 303 393.5 303 414.211 319.789 431 340.5 431 361.211 431 378 414.211 378 393.5 Z" fill="#cce9ff" fill-opacity="1" stroke="none"/>
 <path id="Ellipse-copy-44" d="M484 393.5 C484 372.789 467.211 356 446.5 356 425.789 356 409 372.789 409 393.5 409 414.211 425.789 431 446.5 431 467.211 431 484 414.211 484 393.5 Z" fill="#cce9ff" fill-opacity="1" stroke="none"/>
 <path id="Ellipse-copy-43" d="M590 393.5 C590 372.789 573.211 356 552.5 356 531.789 356 515 372.789 515 393.5 515 414.211 531.789 431 552.5 431 573.211 431 590 414.211 590 393.5 Z" fill="#cce9ff" fill-opacity="1" stroke="none"/>
 <path id="Ellipse-copy-42" d="M695 393.5 C695 372.789 678.211 356 657.5 356 636.789 356 620 372.789 620 393.5 620 414.211 636.789 431 657.5 431 678.211 431 695 414.211 695 393.5 Z" fill="#cce9ff" fill-opacity="1" stroke="none"/>
 <path id="Ellipse-copy-41" d="M800 393.5 C800 372.789 783.211 356 762.5 356 741.789 356 725 372.789 725 393.5 725 414.211 741.789 431 762.5 431 783.211 431 800 414.211 800 393.5 Z" fill="#cce9ff" fill-opacity="1" stroke="none"/>
 <path id="Ellipse-copy-40" d="M906 393.5 C906 372.789 889.211 356 868.5 356 847.789 356 831 372.789 831 393.5 831 414.211 847.789 431 868.5 431 889.211 431 906 414.211 906 393.5 Z" fill="#cce9ff" fill-opacity="1" stroke="none"/>
 <path id="Ellipse-copy-23" d="M208 500 C208 486.193 196.807 475 183 475 169.193 475 158 486.193 158 500 158 513.807 169.193 525 183 525 196.807 525 208 513.807 208 500 Z" fill="#e6f4ff" fill-opacity="1" stroke="none"/>
 <path id="Ellipse-copy-22" d="M314 500 C314 486.193 302.807 475 289 475 275.193 475 264 486.193 264 500 264 513.807 275.193 525 289 525 302.807 525 314 513.807 314 500 Z" fill="#e6f4ff" fill-opacity="1" stroke="none"/>
 <path id="Ellipse-copy-21" d="M419 500 C419 486.193 407.807 475 394 475 380.193 475 369 486.193 369 500 369 513.807 380.193 525 394 525 407.807 525 419 513.807 419 500 Z" fill="#e6f4ff" fill-opacity="1" stroke="none"/>
 <path id="Ellipse-copy-20" d="M525 500 C525 486.193 513.807 475 500 475 486.193 475 475 486.193 475 500 475 513.807 486.193 525 500 525 513.807 525 525 513.807 525 500 Z" fill="#e6f4ff" fill-opacity="1" stroke="none"/>
 <path id="Ellipse-copy-19" d="M630 500 C630 486.193 618.807 475 605 475 591.193 475 580 486.193 580 500 580 513.807 591.193 525 605 525 618.807 525 630 513.807 630 500 Z" fill="#e6f4ff" fill-opacity="1" stroke="none"/>
 <path id="Ellipse-copy-18" d="M736 500 C736 486.193 724.807 475 711 475 697.193 475 686 486.193 686 500 686 513.807 697.193 525 711 525 724.807 525 736 513.807 736 500 Z" fill="#e6f4ff" fill-opacity="1" stroke="none"/>
 <path id="Ellipse-copy-17" d="M841 500 C841 486.193 829.807 475 816 475 802.193 475 791 486.193 791 500 791 513.807 802.193 525 816 525 829.807 525 841 513.807 841 500 Z" fill="#e6f4ff" fill-opacity="1" stroke="none"/>
 <path id="Ellipse-copy-32" d="M167 606.5 C167 585.789 150.211 569 129.5 569 108.789 569 92 585.789 92 606.5 92 627.211 108.789 644 129.5 644 150.211 644 167 627.211 167 606.5 Z" fill="#cce9ff" fill-opacity="1" stroke="none"/>
 <path id="Ellipse-copy-53" d="M273 606.5 C273 585.789 256.211 569 235.5 569 214.789 569 198 585.789 198 606.5 198 627.211 214.789 644 235.5 644 256.211 644 273 627.211 273 606.5 Z" fill="#cce9ff" fill-opacity="1" stroke="none"/>
 <path id="Ellipse-copy-52" d="M378 606.5 C378 585.789 361.211 569 340.5 569 319.789 569 303 585.789 303 606.5 303 627.211 319.789 644 340.5 644 361.211 644 378 627.211 378 606.5 Z" fill="#cce9ff" fill-opacity="1" stroke="none"/>
 <path id="Ellipse-copy-51" d="M484 606.5 C484 585.789 467.211 569 446.5 569 425.789 569 409 585.789 409 606.5 409 627.211 425.789 644 446.5 644 467.211 644 484 627.211 484 606.5 Z" fill="#cce9ff" fill-opacity="1" stroke="none"/>
 <path id="Ellipse-copy-50" d="M590 606.5 C590 585.789 573.211 569 552.5 569 531.789 569 515 585.789 515 606.5 515 627.211 531.789 644 552.5 644 573.211 644 590 627.211 590 606.5 Z" fill="#cce9ff" fill-opacity="1" stroke="none"/>
 <path id="Ellipse-copy-49" d="M695 606.5 C695 585.789 678.211 569 657.5 569 636.789 569 620 585.789 620 606.5 620 627.211 636.789 644 657.5 644 678.211 644 695 627.211 695 606.5 Z" fill="#cce9ff" fill-opacity="1" stroke="none"/>
 <path id="Ellipse-copy-48" d="M800 606.5 C800 585.789 783.211 569 762.5 569 741.789 569 725 585.789 725 606.5 725 627.211 741.789 644 762.5 644 783.211 644 800 627.211 800 606.5 Z" fill="#cce9ff" fill-opacity="1" stroke="none"/>
 <path id="Ellipse-copy-47" d="M906 606.5 C906 585.789 889.211 569 868.5 569 847.789 569 831 585.789 831 606.5 831 627.211 847.789 644 868.5 644 889.211 644 906 627.211 906 606.5 Z" fill="#cce9ff" fill-opacity="1" stroke="none"/>
 <path id="Ellipse-copy-31" d="M208 713 C208 699.193 196.807 688 183 688 169.193 688 158 699.193 158 713 158 726.807 169.193 738 183 738 196.807 738 208 726.807 208 713 Z" fill="#e6f4ff" fill-opacity="1" stroke="none"/>
 <path id="Ellipse-copy-30" d="M314 713 C314 699.193 302.807 688 289 688 275.193 688 264 699.193 264 713 264 726.807 275.193 738 289 738 302.807 738 314 726.807 314 713 Z" fill="#e6f4ff" fill-opacity="1" stroke="none"/>
 <path id="Ellipse-copy-29" d="M419 713 C419 699.193 407.807 688 394 688 380.193 688 369 699.193 369 713 369 726.807 380.193 738 394 738 407.807 738 419 726.807 419 713 Z" fill="#e6f4ff" fill-opacity="1" stroke="none"/>
 <path id="Ellipse-copy-28" d="M525 713 C525 699.193 513.807 688 500 688 486.193 688 475 699.193 475 713 475 726.807 486.193 738 500 738 513.807 738 525 726.807 525 713 Z" fill="#e6f4ff" fill-opacity="1" stroke="none"/>
 <path id="Ellipse-copy-27" d="M630 713 C630 699.193 618.807 688 605 688 591.193 688 580 699.193 580 713 580 726.807 591.193 738 605 738 618.807 738 630 726.807 630 713 Z" fill="#e6f4ff" fill-opacity="1" stroke="none"/>
 <path id="Ellipse-copy-26" d="M736 713 C736 699.193 724.807 688 711 688 697.193 688 686 699.193 686 713 686 726.807 697.193 738 711 738 724.807 738 736 726.807 736 713 Z" fill="#e6f4ff" fill-opacity="1" stroke="none"/>
 <path id="Ellipse-copy-25" d="M841 713 C841 699.193 829.807 688 816 688 802.193 688 791 699.193 791 713 791 726.807 802.193 738 816 738 829.807 738 841 726.807 841 713 Z" fill="#e6f4ff" fill-opacity="1" stroke="none"/>
 <path id="Ellipse-copy-68" d="M168 819.5 C168 798.789 151.211 782 130.5 782 109.789 782 93 798.789 93 819.5 93 840.211 109.789 857 130.5 857 151.211 857 168 840.211 168 819.5 Z" fill="#cce9ff" fill-opacity="1" stroke="none"/>
 <path id="Ellipse-copy-67" d="M274 819.5 C274 798.789 257.211 782 236.5 782 215.789 782 199 798.789 199 819.5 199 840.211 215.789 857 236.5 857 257.211 857 274 840.211 274 819.5 Z" fill="#cce9ff" fill-opacity="1" stroke="none"/>
 <path id="Ellipse-copy-66" d="M379 819.5 C379 798.789 362.211 782 341.5 782 320.789 782 304 798.789 304 819.5 304 840.211 320.789 857 341.5 857 362.211 857 379 840.211 379 819.5 Z" fill="#cce9ff" fill-opacity="1" stroke="none"/>
 <path id="Ellipse-copy-65" d="M485 819.5 C485 798.789 468.211 782 447.5 782 426.789 782 410 798.789 410 819.5 410 840.211 426.789 857 447.5 857 468.211 857 485 840.211 485 819.5 Z" fill="#cce9ff" fill-opacity="1" stroke="none"/>
 <path id="Ellipse-copy-64" d="M591 819.5 C591 798.789 574.211 782 553.5 782 532.789 782 516 798.789 516 819.5 516 840.211 532.789 857 553.5 857 574.211 857 591 840.211 591 819.5 Z" fill="#cce9ff" fill-opacity="1" stroke="none"/>
 <path id="Ellipse-copy-63" d="M696 819.5 C696 798.789 679.211 782 658.5 782 637.789 782 621 798.789 621 819.5 621 840.211 637.789 857 658.5 857 679.211 857 696 840.211 696 819.5 Z" fill="#cce9ff" fill-opacity="1" stroke="none"/>
 <path id="Ellipse-copy-62" d="M801 819.5 C801 798.789 784.211 782 763.5 782 742.789 782 726 798.789 726 819.5 726 840.211 742.789 857 763.5 857 784.211 857 801 840.211 801 819.5 Z" fill="#cce9ff" fill-opacity="1" stroke="none"/>
 <path id="Ellipse-copy-61" d="M907 819.5 C907 798.789 890.211 782 869.5 782 848.789 782 832 798.789 832 819.5 832 840.211 848.789 857 869.5 857 890.211 857 907 840.211 907 819.5 Z" fill="#cce9ff" fill-opacity="1" stroke="none"/>
 <path id="Ellipse-copy-60" d="M209 926 C209 912.193 197.807 901 184 901 170.193 901 159 912.193 159 926 159 939.807 170.193 951 184 951 197.807 951 209 939.807 209 926 Z" fill="#e6f4ff" fill-opacity="1" stroke="none"/>
 <path id="Ellipse-copy-59" d="M315 926 C315 912.193 303.807 901 290 901 276.193 901 265 912.193 265 926 265 939.807 276.193 951 290 951 303.807 951 315 939.807 315 926 Z" fill="#e6f4ff" fill-opacity="1" stroke="none"/>
 <path id="Ellipse-copy-58" d="M420 926 C420 912.193 408.807 901 395 901 381.193 901 370 912.193 370 926 370 939.807 381.193 951 395 951 408.807 951 420 939.807 420 926 Z" fill="#e6f4ff" fill-opacity="1" stroke="none"/>
 <path id="Ellipse-copy-57" d="M526 926 C526 912.193 514.807 901 501 901 487.193 901 476 912.193 476 926 476 939.807 487.193 951 501 951 514.807 951 526 939.807 526 926 Z" fill="#e6f4ff" fill-opacity="1" stroke="none"/>
 <path id="Ellipse-copy-56" d="M631 926 C631 912.193 619.807 901 606 901 592.193 901 581 912.193 581 926 581 939.807 592.193 951 606 951 619.807 951 631 939.807 631 926 Z" fill="#e6f4ff" fill-opacity="1" stroke="none"/>
 <path id="Ellipse-copy-55" d="M737 926 C737 912.193 725.807 901 712 901 698.193 901 687 912.193 687 926 687 939.807 698.193 951 712 951 725.807 951 737 939.807 737 926 Z" fill="#e6f4ff" fill-opacity="1" stroke="none"/>
 <path id="Ellipse-copy-54" d="M842 926 C842 912.193 830.807 901 817 901 803.193 901 792 912.193 792 926 792 939.807 803.193 951 817 951 830.807 951 842 939.807 842 926 Z" fill="#e6f4ff" fill-opacity="1" stroke="none"/>
</svg>
