<?xml version="1.0" encoding="UTF-8"?>
<svg viewBox="0 0 200 200" xmlns="http://www.w3.org/2000/svg" xmlns:xlink="http://www.w3.org/1999/xlink" version="1.1">
 <!-- Generated by Pixelmator Pro 2.0.7 -->
 <path id="Path" d="M200 100 L200 100.1 C200 114.698 196.804 129.092 190.639 142.294 189.3 145.18 187.8 148.01 186.18 150.76 179.697 161.737 171.182 171.379 161.09 179.17 158.51 181.17 155.843 183.04 153.09 184.78 151.09 186.04 149.037 187.227 146.93 188.34 144.032 189.885 141.058 191.284 138.02 192.53 L137.95 192.53 C125.909 197.474 113.016 200.012 100 200 L98.94 200 C94.226 199.946 89.521 199.565 84.86 198.86 L83.16 198.59 C74.038 197.048 65.178 194.23 56.84 190.22 53.727 188.738 50.696 187.089 47.76 185.28 18.078 167.107 -0.013 134.803 -0 100 -0 96.987 0.13 94.013 0.39 91.08 0.48 90.08 0.58 89.16 0.69 88.21 1.562 80.742 3.284 73.398 5.82 66.32 6.61 64.11 7.48 61.94 8.41 59.8 11.686 52.345 15.864 45.319 20.85 38.88 21.85 37.54 22.94 36.24 24.05 34.96 26.291 32.334 28.667 29.827 31.17 27.45 32.17 26.54 33.11 25.64 34.11 24.78 36.662 22.529 39.333 20.416 42.11 18.45 46.754 15.146 51.672 12.246 56.81 9.78 59.806 8.341 62.873 7.056 66 5.93 74.856 2.728 84.122 0.802 93.52 0.21 95.66 0.07 97.82 0 100 0 108.186 0.004 116.34 1.011 124.28 3 128.806 4.116 133.248 5.553 137.57 7.3 138.95 7.86 140.31 8.45 141.67 9.07 160.325 17.661 175.9 31.76 186.3 49.47 188.226 52.746 189.959 56.132 191.49 59.61 192.05 60.85 192.57 62.11 193.07 63.38 196.214 71.355 198.309 79.705 199.3 88.22 199.35 88.61 199.39 89 199.43 89.4 199.807 92.921 199.997 96.459 200 100 Z" fill="#b5a48f" fill-opacity="1" stroke="none"/>
 <g id="New-Group">
  <path id="Ellipse" d="M76 93 C76 79.193 64.807 68 51 68 37.193 68 26 79.193 26 93 26 106.807 37.193 118 51 118 64.807 118 76 106.807 76 93 Z" fill="#000000" fill-opacity="0.1" stroke="none"/>
  <path id="Ellipse-copy" d="M71 88 C71 76.954 62.046 68 51 68 39.954 68 31 76.954 31 88 31 99.046 39.954 108 51 108 62.046 108 71 99.046 71 88 Z" fill="#ffffff" fill-opacity="0.1" stroke="none"/>
 </g>
 <g id="New-Group-copy-1">
  <path id="Ellipse-1" d="M135 125 C135 111.193 123.807 100 110 100 96.193 100 85 111.193 85 125 85 138.807 96.193 150 110 150 123.807 150 135 138.807 135 125 Z" fill="#000000" fill-opacity="0.1" stroke="none"/>
  <path id="Ellipse-copy-1" d="M130 120 C130 108.954 121.046 100 110 100 98.954 100 90 108.954 90 120 90 131.046 98.954 140 110 140 121.046 140 130 131.046 130 120 Z" fill="#ffffff" fill-opacity="0.1" stroke="none"/>
 </g>
 <g id="New-Group-copy-2">
  <path id="Ellipse-2" d="M179 79 C179 65.193 167.807 54 154 54 140.193 54 129 65.193 129 79 129 92.807 140.193 104 154 104 167.807 104 179 92.807 179 79 Z" fill="#000000" fill-opacity="0.1" stroke="none"/>
  <path id="Ellipse-copy-2" d="M174 74 C174 62.954 165.046 54 154 54 142.954 54 134 62.954 134 74 134 85.046 142.954 94 154 94 165.046 94 174 85.046 174 74 Z" fill="#ffffff" fill-opacity="0.1" stroke="none"/>
 </g>
 <path id="Path-1" d="M200 100 C200 105.673 199.524 111.323 198.578 116.903 197.086 125.667 194.419 134.203 190.65 142.27 181.438 161.961 166.081 178.128 146.89 188.34 143.964 189.9 140.96 191.308 137.89 192.56 105.102 205.95 67.678 201.009 39.488 179.568 11.299 158.128 -3.457 123.383 0.69 88.21 6.635 138.552 49.308 176.483 100 176.483 150.692 176.483 193.365 138.552 199.31 88.21 199.773 92.123 200.003 96.06 200 100 Z" fill="#000000" fill-opacity="1" stroke="none"/>
</svg>
