<svg id="Layer_1" data-name="Layer 1" xmlns="http://www.w3.org/2000/svg" viewBox="0 0 200 200"><defs><style>.cls-1{fill:#fff;}.cls-2{opacity:0.1;}</style></defs><path class="cls-1" d="M200,100v0a100.45,100.45,0,0,1-1.42,16.84,99.36,99.36,0,0,1-7.93,25.38c-.37.81-.76,1.61-1.16,2.4-1,2.07-2.14,4.1-3.31,6.09a100.55,100.55,0,0,1-33.12,34q-3,1.89-6.16,3.56c-1,.55-2.07,1.08-3.12,1.6-1.92.93-3.88,1.81-5.86,2.62a99.7,99.7,0,0,1-34.45,7.38c-1.15,0-2.31.06-3.47.06a100.76,100.76,0,0,1-15.14-1.14,99.49,99.49,0,0,1-46.07-19.78q-3.65-2.82-7-6A99.92,99.92,0,0,1,3.34,125.73,100.93,100.93,0,0,1,1,113.86,100.18,100.18,0,0,1,8.41,59.8c.32-.73.65-1.46,1-2.18A100.62,100.62,0,0,1,31.17,27.45h0a99.82,99.82,0,0,1,8.06-6.88c.94-.72,1.9-1.43,2.88-2.12A99.35,99.35,0,0,1,93.52.21Q96.73,0,100,0a100.1,100.1,0,0,1,24.28,3c1.65.41,3.27.86,4.88,1.35a99.47,99.47,0,0,1,39.45,22.94c.35.32.69.65,1,1A100,100,0,0,1,191.5,59.61,99.95,99.95,0,0,1,200,100Z"/><path class="cls-2" d="M200,100a101,101,0,0,1-1.42,16.89,99.36,99.36,0,0,1-7.93,25.38,100.36,100.36,0,0,1-43.76,46.07,96.86,96.86,0,0,1-9,4.22A100.06,100.06,0,0,1,.69,88.21a100,100,0,0,0,198.62,0A99.81,99.81,0,0,1,200,100Z"/><path d="M173.24,45.07l-30.76-.89L114,14.19l15.15-9.87a99.47,99.47,0,0,1,39.45,22.94Z"/><polygon points="76.25 105.77 123.65 96.79 143.62 134.44 115.07 164.88 72.93 146.54 76.25 105.77"/><path d="M55.18,26.84,36.51,62.61l-24,12.67L9.4,57.62A100.62,100.62,0,0,1,31.17,27.45h0a99.82,99.82,0,0,1,8.06-6.88Z"/><path d="M200,100.05a100.45,100.45,0,0,1-1.42,16.84,99.36,99.36,0,0,1-7.93,25.38c-.37.81-.76,1.61-1.16,2.4l-1-13.83Z"/><path d="M143.78,189.94c-1.92.93-3.88,1.81-5.86,2.62a99.7,99.7,0,0,1-34.45,7.38l17.62-7.58Z"/><path d="M31.78,162.2v10.92A99.92,99.92,0,0,1,3.34,125.73L7,127.32Z"/></svg>