<?xml version="1.0" encoding="UTF-8"?>
<svg width="1000px" height="1000px" viewBox="0 0 1000 1000" xmlns="http://www.w3.org/2000/svg" xmlns:xlink="http://www.w3.org/1999/xlink" version="1.1">
 <!-- Generated by Pixelmator Pro 2.0.6 -->
 <path id="􀆨" d="M500.673 1000.844 C567.086 1000.844 629.606 988.134 688.233 962.712 746.86 937.291 798.576 902.178 843.381 857.374 888.185 812.569 923.298 760.853 948.719 702.226 974.141 643.599 986.851 581.079 986.851 514.666 986.851 466.049 980.018 419.814 966.355 375.963 952.692 332.112 933.943 291.835 910.111 255.134 886.279 218.432 859.11 186.099 828.605 158.136 820.342 150.51 811.843 146.299 803.104 145.505 794.366 144.711 786.501 146.38 779.51 150.51 772.519 154.641 767.118 160.36 763.305 167.669 759.491 174.978 758.3 182.922 759.73 191.502 761.16 200.081 766.006 208.343 774.267 216.287 814.941 253.148 846.956 297.237 870.311 348.556 893.667 399.875 905.504 455.245 905.821 514.666 905.821 570.911 895.414 623.5 874.601 672.436 853.788 721.371 824.871 764.348 787.852 801.368 750.832 838.388 707.775 867.383 658.681 888.356 609.587 909.328 556.917 919.814 500.673 919.814 444.429 919.814 391.84 909.328 342.904 888.356 293.968 867.383 250.991 838.388 213.972 801.368 176.952 764.348 148.036 721.371 127.223 672.436 106.409 623.5 96.002 570.911 96.002 514.666 96.32 454.927 108.157 399.398 131.512 348.079 154.868 296.76 186.723 252.671 227.08 215.81 235.341 207.867 240.187 199.604 241.617 191.025 243.047 182.445 241.935 174.502 238.281 167.193 234.626 159.884 229.224 154.164 222.075 150.033 214.925 145.903 206.981 144.235 198.243 145.029 189.504 145.823 181.004 150.033 172.742 157.66 142.237 185.622 115.068 218.034 91.236 254.895 67.404 291.756 48.656 332.112 34.992 375.963 21.328 419.814 14.496 466.049 14.496 514.666 14.496 581.079 27.206 643.599 52.628 702.226 78.049 760.853 113.161 812.569 157.966 857.374 202.771 902.178 254.487 937.291 313.114 962.712 371.741 988.134 434.26 1000.844 500.673 1000.844 Z M500.673 509.9 C512.113 509.9 521.407 506.167 528.557 498.699 535.707 491.231 539.282 481.46 539.282 469.385 L539.282 41.359 C539.282 29.283 535.707 19.512 528.557 12.045 521.407 4.578 512.113 0.844 500.673 0.844 489.234 0.844 480.019 4.578 473.028 12.045 466.037 19.512 462.542 29.283 462.542 41.359 L462.542 469.385 C462.542 481.46 466.037 491.231 473.028 498.699 480.019 506.167 489.234 509.9 500.673 509.9 Z" fill="#000000" fill-opacity="1" stroke="none"/>
</svg>
