<?xml version="1.0" encoding="UTF-8"?>
<svg width="1000px" height="1000px" viewBox="0 0 1000 1000" xmlns="http://www.w3.org/2000/svg" xmlns:xlink="http://www.w3.org/1999/xlink" version="1.1">
 <!-- Generated by Pixelmator Pro 2.0.6 -->
 <path id="􀆭" d="M540.912 39.814 C540.912 28.728 536.909 19.259 528.903 11.407 520.897 3.555 511.351 -0.371 500.265 -0.371 489.488 -0.371 480.096 3.555 472.09 11.407 464.084 19.259 460.08 28.728 460.08 39.814 L460.08 136.811 C460.08 147.897 464.084 157.366 472.09 165.218 480.096 173.07 489.488 176.996 500.265 176.996 511.351 176.996 520.897 173.07 528.903 165.218 536.909 157.366 540.912 147.897 540.912 136.811 Z M540.912 864.756 C540.912 853.67 536.909 844.202 528.903 836.349 520.897 828.497 511.351 824.571 500.265 824.571 489.488 824.571 480.096 828.497 472.09 836.349 464.084 844.202 460.08 853.67 460.08 864.756 L460.08 961.754 C460.08 972.839 464.084 982.308 472.09 990.16 480.096 998.012 489.488 1001.938 500.265 1001.938 511.351 1001.938 520.897 998.012 528.903 990.16 536.909 982.308 540.912 972.839 540.912 961.754 Z M959.849 540.968 C970.935 540.968 980.48 537.042 988.487 529.19 996.493 521.338 1000.496 511.869 1000.496 500.784 1000.496 490.006 996.493 480.614 988.487 472.608 980.48 464.602 970.935 460.599 959.849 460.599 L863.314 460.599 C852.536 460.599 843.145 464.602 835.138 472.608 827.131 480.614 823.129 490.006 823.129 500.784 823.129 511.869 827.131 521.338 835.138 529.19 843.145 537.042 852.536 540.968 863.314 540.968 Z M40.681 460.599 C29.904 460.599 20.511 464.602 12.505 472.608 4.499 480.614 0.496 490.006 0.496 500.784 0.496 511.869 4.499 521.338 12.505 529.19 20.511 537.042 29.904 540.968 40.681 540.968 L137.217 540.968 C148.302 540.968 157.848 537.042 165.854 529.19 173.86 521.338 177.863 511.869 177.863 500.784 177.863 490.006 173.86 480.614 165.854 472.608 157.848 464.602 148.302 460.599 137.217 460.599 Z M214.815 272.608 C222.513 280.307 231.982 284.155 243.221 284.155 254.46 284.155 263.929 280.307 271.628 272.608 279.326 265.218 283.252 255.826 283.406 244.433 283.56 233.039 279.788 223.494 272.09 215.795 L203.267 146.511 C195.877 139.121 186.562 135.349 175.323 135.195 164.084 135.04 154.46 138.813 146.455 146.511 138.756 154.209 134.907 163.756 134.907 175.149 134.907 186.541 138.602 195.934 145.993 203.324 Z M728.441 215.795 C720.742 223.494 716.893 232.962 716.893 244.202 716.893 255.441 720.742 264.91 728.441 272.608 736.139 280.307 745.608 284.233 756.847 284.386 768.086 284.54 777.71 280.614 785.716 272.608 L854.538 203.786 C862.235 196.088 866.085 186.541 866.085 175.149 866.085 163.756 862.235 154.209 854.538 146.511 846.84 138.813 837.448 134.964 826.362 134.964 815.277 134.964 805.884 138.813 798.187 146.511 Z M785.254 729.421 C777.555 721.723 768.086 717.874 756.847 717.874 745.608 717.874 736.139 721.723 728.441 729.421 720.742 737.12 716.893 746.588 716.893 757.828 716.893 769.067 720.742 778.536 728.441 786.234 L798.187 855.518 C805.884 863.217 815.277 866.988 826.362 866.834 837.448 866.681 846.84 862.755 854.538 855.056 862.235 847.358 866.085 837.889 866.085 826.65 866.085 815.411 862.235 805.942 854.538 798.243 Z M145.993 797.781 C138.294 805.48 134.445 814.949 134.445 826.188 134.445 837.427 138.14 846.896 145.531 854.594 153.229 862.293 162.775 866.219 174.168 866.373 185.562 866.526 195.107 862.755 202.806 855.056 L271.628 786.234 C279.326 778.536 283.252 769.067 283.406 757.828 283.56 746.588 279.788 737.12 272.09 729.421 264.391 721.723 254.846 717.874 243.452 717.874 232.059 717.874 222.513 721.723 214.815 729.421 Z M500.265 265.218 C467.933 265.218 437.602 271.376 409.272 283.694 380.942 296.011 355.923 312.947 334.214 334.502 312.505 356.057 295.492 381.076 283.175 409.56 270.858 438.043 264.699 468.451 264.699 500.784 264.699 533.116 270.858 563.524 283.175 592.008 295.492 620.491 312.505 645.587 334.214 667.296 355.923 689.005 380.942 706.018 409.272 718.336 437.602 730.653 467.933 736.811 500.265 736.811 532.29 736.811 562.544 730.653 591.027 718.336 619.511 706.018 644.53 689.005 666.085 667.296 687.64 645.587 704.576 620.491 716.893 592.008 729.211 563.524 735.369 533.116 735.369 500.784 735.369 468.451 729.211 438.043 716.893 409.56 704.576 381.076 687.64 356.057 666.085 334.502 644.53 312.947 619.511 296.011 591.027 283.694 562.544 271.376 532.29 265.218 500.265 265.218 Z M500.265 335.888 C530.443 335.888 558.002 343.355 582.944 358.289 607.886 373.224 627.825 393.162 642.759 418.105 657.694 443.047 665.161 470.606 665.161 500.784 665.161 530.961 657.694 558.52 642.759 583.463 627.825 608.405 607.886 628.42 582.944 643.509 558.002 658.598 530.443 666.142 500.265 666.142 470.088 666.142 442.528 658.598 417.586 643.509 392.644 628.42 372.629 608.405 357.54 583.463 342.451 558.52 334.907 530.961 334.907 500.784 334.907 470.606 342.451 443.047 357.54 418.105 372.629 393.162 392.644 373.224 417.586 358.289 442.528 343.355 470.088 335.888 500.265 335.888 Z" fill="#000000" fill-opacity="1" stroke="none"/>
</svg>
